{"glyphs":{"0":{"ha":833,"x_min":38,"x_max":796,"o":"m 417 -17 q 130 115 222 -17 q 38 485 38 247 q 130 854 38 722 q 417 986 222 986 q 703 854 611 986 q 796 485 796 722 q 703 115 796 247 q 417 -17 611 -17 m 417 147 q 547 213 510 147 q 583 394 583 278 l 583 575 q 547 757 583 692 q 417 822 510 822 q 287 757 324 822 q 250 575 250 692 l 250 394 q 287 213 250 278 q 417 147 324 147 m 417 403 q 349 422 368 403 q 331 469 331 442 l 331 500 q 349 547 331 528 q 417 567 368 567 q 484 547 465 567 q 503 500 503 528 l 503 469 q 484 422 503 442 q 417 403 465 403 z "},"1":{"ha":833,"x_min":49,"x_max":806,"o":"m 131 0 l 131 168 l 392 168 l 392 818 l 379 818 l 182 560 l 49 664 l 281 969 l 600 969 l 600 168 l 806 168 l 806 0 l 131 0 z "},"2":{"ha":833,"x_min":53,"x_max":771,"o":"m 771 0 l 74 0 l 74 190 l 379 444 q 493 563 458 513 q 528 668 528 613 l 528 682 q 492 774 528 743 q 394 806 456 806 q 288 765 325 806 q 235 669 250 725 l 53 739 q 99 834 69 789 q 173 913 128 879 q 278 966 218 946 q 415 986 338 986 q 557 964 494 986 q 663 903 619 942 q 728 810 706 864 q 750 694 750 757 q 730 583 750 633 q 674 488 710 532 q 591 401 639 443 q 489 318 543 360 l 304 175 l 771 175 l 771 0 z "},"3":{"ha":833,"x_min":33,"x_max":771,"o":"m 379 586 q 497 617 460 586 q 533 692 533 647 l 533 701 q 498 785 533 754 q 397 817 463 817 q 285 787 338 817 q 197 701 233 757 l 65 824 q 126 890 93 860 q 200 941 160 919 q 291 974 240 963 q 406 986 342 986 q 549 968 485 986 q 658 916 613 950 q 728 835 703 882 q 753 729 753 788 q 738 646 753 683 q 697 581 722 608 q 637 535 671 553 q 564 511 603 518 l 564 503 q 712 428 653 488 q 771 269 771 369 q 744 151 771 204 q 667 61 717 99 q 548 3 618 24 q 392 -17 478 -17 q 262 -1 318 -17 q 163 40 206 14 q 88 99 119 65 q 33 169 57 133 l 188 289 q 267 191 219 229 q 396 153 315 153 q 511 188 471 153 q 551 283 551 222 l 551 293 q 506 383 551 353 q 378 413 460 413 l 288 413 l 288 586 l 379 586 z "},"4":{"ha":833,"x_min":35,"x_max":796,"o":"m 471 0 l 471 186 l 35 186 l 35 364 l 421 969 l 671 969 l 671 347 l 796 347 l 796 186 l 671 186 l 671 0 l 471 0 m 203 347 l 471 347 l 471 754 l 458 754 l 203 347 z "},"5":{"ha":833,"x_min":58,"x_max":788,"o":"m 729 788 l 281 788 l 258 481 l 271 481 q 306 542 286 514 q 351 591 325 571 q 413 622 378 611 q 492 633 447 633 q 605 613 551 633 q 699 552 658 592 q 764 455 740 513 q 788 325 788 397 q 763 189 788 251 q 690 81 738 126 q 571 9 642 35 q 410 -17 500 -17 q 283 -1 339 -17 q 185 40 228 14 q 112 99 143 65 q 58 169 81 133 l 210 289 q 245 236 226 261 q 288 192 264 211 q 342 163 313 174 q 411 153 372 153 q 528 195 489 153 q 568 308 568 238 l 568 319 q 528 426 568 388 q 417 465 488 465 q 320 442 358 465 q 263 397 282 419 l 92 421 l 128 969 l 729 969 l 729 788 z "},"6":{"ha":833,"x_min":53,"x_max":790,"o":"m 422 -17 q 266 10 335 -17 q 150 88 197 38 q 78 210 103 139 q 53 368 53 281 q 85 560 53 469 q 167 728 117 651 q 281 867 218 806 q 407 969 344 928 l 694 969 q 533 849 604 907 q 408 734 461 792 q 320 615 354 676 q 271 483 286 554 l 283 479 q 314 533 296 507 q 358 580 332 560 q 420 613 385 600 q 503 625 456 625 q 617 603 564 625 q 708 542 669 582 q 768 447 746 503 q 790 322 790 392 q 764 186 790 249 q 690 78 738 124 q 574 8 642 33 q 422 -17 506 -17 m 421 146 q 535 185 496 146 q 574 297 574 225 l 574 317 q 534 427 574 389 q 421 465 494 465 q 310 427 350 465 q 269 317 269 389 l 269 297 q 308 185 269 225 q 421 146 346 146 z "},"7":{"ha":833,"x_min":71,"x_max":768,"o":"m 228 0 l 561 800 l 247 800 l 247 624 l 71 624 l 71 969 l 768 969 l 768 789 l 447 0 l 228 0 z "},"8":{"ha":833,"x_min":50,"x_max":783,"o":"m 417 -17 q 261 5 329 -17 q 146 64 193 26 q 74 153 99 101 q 50 267 50 206 q 104 419 50 361 q 243 500 158 476 l 243 511 q 125 592 171 538 q 79 731 79 646 q 101 833 79 786 q 167 915 124 881 q 272 967 210 949 q 417 986 335 986 q 560 967 497 986 q 667 915 624 949 q 732 833 710 881 q 754 731 754 786 q 708 592 754 646 q 590 511 663 538 l 590 500 q 729 419 675 476 q 783 267 783 361 q 759 153 783 206 q 688 64 735 101 q 572 5 640 26 q 417 -17 504 -17 m 417 143 q 527 176 489 143 q 565 267 565 210 l 565 294 q 528 385 565 353 q 417 418 490 418 q 306 385 343 418 q 268 294 268 353 l 268 267 q 306 176 268 210 q 417 143 344 143 m 417 571 q 522 603 486 571 q 558 689 558 635 l 558 710 q 522 795 558 764 q 417 826 485 826 q 312 795 349 826 q 275 710 275 764 l 275 689 q 311 603 275 635 q 417 571 347 571 z "},"9":{"ha":833,"x_min":43,"x_max":781,"o":"m 781 601 q 749 408 781 499 q 666 241 717 318 q 552 103 615 164 q 426 0 489 42 l 139 0 q 301 120 229 63 q 426 235 372 178 q 513 354 479 293 q 563 486 547 415 l 550 490 q 519 436 538 463 q 474 390 500 410 q 413 357 449 369 q 331 344 378 344 q 217 366 269 344 q 126 427 164 388 q 65 522 88 467 q 43 647 43 578 q 69 783 43 721 q 144 891 96 846 q 260 961 192 936 q 411 986 328 986 q 567 959 499 986 q 683 881 636 932 q 756 760 731 831 q 781 601 781 689 m 413 504 q 524 542 483 504 q 564 653 564 581 l 564 672 q 526 784 564 744 q 413 824 488 824 q 299 784 338 824 q 260 672 260 744 l 260 653 q 299 542 260 581 q 413 504 339 504 z "},"\u0000":{"ha":0,"x_min":0,"x_max":0,"o":""},"\r":{"ha":833,"x_min":0,"x_max":0,"o":""}," ":{"ha":833,"x_min":0,"x_max":0,"o":""},"a":{"ha":833,"x_min":72,"x_max":794,"o":"m 676 0 q 574 33 613 0 q 528 126 535 65 l 521 126 q 444 19 501 56 q 303 -17 386 -17 q 135 40 199 -17 q 72 197 72 96 q 154 364 72 310 q 394 418 236 418 l 510 418 l 510 454 q 480 551 510 518 q 379 583 450 583 q 274 558 314 583 q 204 493 233 533 l 92 593 q 205 694 128 654 q 403 733 282 733 q 633 666 550 733 q 715 463 715 599 l 715 149 l 794 149 l 794 0 l 676 0 m 381 118 q 472 144 435 118 q 510 221 510 171 l 510 307 l 400 307 q 274 222 274 307 l 274 194 q 303 138 274 157 q 381 118 332 118 z "},"b":{"ha":833,"x_min":82,"x_max":779,"o":"m 82 1028 l 288 1028 l 288 586 l 297 586 q 374 692 324 650 q 510 733 424 733 q 619 711 569 733 q 703 643 668 689 q 759 526 739 597 q 779 358 779 456 q 759 190 779 261 q 703 74 739 119 q 619 6 668 28 q 510 -17 569 -17 q 374 24 424 -17 q 297 131 324 65 l 288 131 l 288 0 l 82 0 l 82 1028 m 421 143 q 528 185 490 143 q 565 303 565 228 l 565 414 q 528 531 565 489 q 421 574 490 574 q 327 547 367 574 q 288 464 288 521 l 288 253 q 327 169 288 196 q 421 143 367 143 z "},"c":{"ha":833,"x_min":83,"x_max":754,"o":"m 446 -17 q 294 9 361 -17 q 180 83 226 35 q 108 201 133 132 q 83 358 83 271 q 108 515 83 446 q 180 633 133 585 q 294 708 226 682 q 444 733 361 733 q 634 685 563 733 q 743 558 706 638 l 585 472 q 534 542 565 514 q 444 569 503 569 q 335 528 374 569 q 297 417 297 488 l 297 300 q 335 188 297 229 q 447 147 374 147 q 541 175 507 147 q 599 247 575 203 l 754 158 q 641 31 715 79 q 446 -17 567 -17 z "},"d":{"ha":833,"x_min":54,"x_max":751,"o":"m 546 131 l 536 131 q 459 24 508 65 q 324 -17 410 -17 q 215 6 264 -17 q 130 74 165 28 q 74 190 94 119 q 54 358 54 261 q 74 526 54 456 q 130 643 94 597 q 215 711 165 689 q 324 733 264 733 q 400 722 367 733 q 459 692 433 711 q 503 645 485 672 q 536 586 522 618 l 546 586 l 546 1028 l 751 1028 l 751 0 l 546 0 l 546 131 m 413 143 q 506 169 467 143 q 546 253 546 196 l 546 464 q 506 547 546 521 q 413 574 467 574 q 306 531 343 574 q 268 414 268 489 l 268 303 q 306 185 268 228 q 413 143 343 143 z "},"e":{"ha":833,"x_min":69,"x_max":764,"o":"m 436 -17 q 163 83 256 -17 q 69 356 69 183 q 94 513 69 443 q 163 633 118 583 q 273 708 208 682 q 418 733 338 733 q 563 708 499 733 q 671 635 626 682 q 740 520 715 588 q 764 369 764 453 l 764 308 l 274 308 l 274 296 q 317 184 274 226 q 443 142 360 142 q 553 166 507 142 q 632 231 599 190 l 743 110 q 626 21 701 58 q 436 -17 551 -17 m 419 586 q 313 545 353 586 q 274 435 274 504 l 274 424 l 563 424 l 563 435 q 524 546 563 506 q 419 586 486 586 z "},"f":{"ha":833,"x_min":85,"x_max":772,"o":"m 99 160 l 310 160 l 310 557 l 85 557 l 85 717 l 310 717 l 310 821 q 363 970 310 913 q 529 1028 417 1028 l 772 1028 l 772 868 l 515 868 l 515 717 l 772 717 l 772 557 l 515 557 l 515 160 l 740 160 l 740 0 l 99 0 l 99 160 z "},"g":{"ha":833,"x_min":65,"x_max":810,"o":"m 810 -72 q 714 -240 810 -186 q 413 -294 618 -294 q 243 -283 310 -294 q 137 -249 176 -271 q 81 -196 97 -226 q 65 -129 65 -165 q 101 -37 65 -68 q 203 11 138 -6 l 203 19 q 130 59 157 33 q 103 132 103 85 q 138 210 103 185 q 232 249 174 235 l 232 257 q 133 343 168 288 q 97 478 97 399 q 119 588 97 540 q 183 668 142 636 q 281 717 224 700 q 408 733 338 733 q 535 718 476 733 l 535 757 q 564 826 535 799 q 644 854 593 854 l 771 854 l 771 704 l 599 704 l 599 692 q 690 608 657 661 q 722 478 722 554 q 700 368 722 415 q 636 288 678 321 q 537 239 594 256 q 408 222 479 222 q 347 226 376 222 q 292 236 318 229 q 266 215 276 228 q 256 183 256 203 q 264 157 256 167 q 287 142 272 147 q 321 136 301 138 q 361 135 340 135 l 525 135 q 656 119 601 135 q 744 76 710 104 q 794 11 779 49 q 810 -72 810 -26 m 615 -87 q 593 -44 615 -60 q 508 -28 571 -28 l 263 -28 q 235 -86 235 -51 q 263 -141 235 -119 q 360 -162 292 -162 l 481 -162 q 583 -143 551 -162 q 615 -87 615 -124 m 408 353 q 499 383 471 353 q 528 461 528 414 l 528 494 q 499 572 528 542 q 408 603 471 603 q 319 572 347 603 q 292 494 292 542 l 292 461 q 319 383 292 414 q 408 353 347 353 z "},"h":{"ha":833,"x_min":90,"x_max":749,"o":"m 90 1028 l 296 1028 l 296 586 l 304 586 q 335 643 317 617 q 378 690 353 669 q 438 722 404 710 q 515 733 472 733 q 610 716 567 733 q 683 664 653 699 q 731 579 714 629 q 749 464 749 529 l 749 0 l 543 0 l 543 436 q 422 575 543 575 q 376 569 399 575 q 335 549 353 563 q 306 517 317 536 q 296 471 296 497 l 296 0 l 90 0 l 90 1028 z "},"i":{"ha":833,"x_min":131,"x_max":775,"o":"m 461 808 q 365 837 392 808 q 338 906 338 865 l 338 946 q 365 1015 338 988 q 461 1043 392 1043 q 558 1015 531 1043 q 585 946 585 988 l 585 906 q 558 837 585 865 q 461 808 531 808 m 131 160 l 358 160 l 358 557 l 131 557 l 131 717 l 564 717 l 564 160 l 775 160 l 775 0 l 131 0 l 131 160 z "},"j":{"ha":833,"x_min":125,"x_max":629,"o":"m 128 -118 l 403 -118 l 403 557 l 125 557 l 125 717 l 608 717 l 608 -71 q 554 -219 608 -161 q 390 -278 500 -278 l 128 -278 l 128 -118 m 506 808 q 409 837 436 808 q 382 906 382 865 l 382 946 q 409 1015 382 988 q 506 1043 436 1043 q 601 1015 574 1043 q 629 946 629 988 l 629 906 q 601 837 629 865 q 506 808 574 808 z "},"k":{"ha":833,"x_min":90,"x_max":817,"o":"m 90 1028 l 296 1028 l 296 444 l 306 444 l 401 557 l 551 717 l 788 717 l 510 433 l 817 0 l 572 0 l 364 317 l 296 249 l 296 0 l 90 0 l 90 1028 z "},"l":{"ha":833,"x_min":94,"x_max":739,"o":"m 94 160 l 314 160 l 314 868 l 94 868 l 94 1028 l 519 1028 l 519 160 l 739 160 l 739 0 l 94 0 l 94 160 z "},"m":{"ha":833,"x_min":42,"x_max":792,"o":"m 42 0 l 42 717 l 207 717 l 207 611 l 217 611 q 265 697 233 661 q 353 733 296 733 q 481 611 457 733 l 489 611 q 510 658 497 636 q 540 697 522 681 q 583 724 558 714 q 642 733 608 733 q 792 513 792 733 l 792 0 l 626 0 l 626 492 q 609 562 626 542 q 564 582 592 582 q 519 565 538 582 q 500 511 500 547 l 500 0 l 333 0 l 333 492 q 317 562 333 542 q 274 582 301 582 q 226 565 246 582 q 207 511 207 547 l 207 0 l 42 0 z "},"n":{"ha":833,"x_min":90,"x_max":749,"o":"m 90 0 l 90 717 l 296 717 l 296 586 l 304 586 q 335 643 317 617 q 378 690 353 669 q 438 722 404 710 q 515 733 472 733 q 610 716 567 733 q 683 664 653 699 q 731 579 714 629 q 749 464 749 529 l 749 0 l 543 0 l 543 436 q 422 575 543 575 q 376 569 399 575 q 335 549 353 563 q 306 517 317 536 q 296 471 296 497 l 296 0 l 90 0 z "},"o":{"ha":833,"x_min":57,"x_max":776,"o":"m 417 -17 q 267 9 333 -17 q 153 83 200 35 q 82 201 107 132 q 57 358 57 271 q 82 515 57 446 q 153 633 107 585 q 267 708 200 682 q 417 733 333 733 q 567 708 500 733 q 680 633 633 682 q 751 515 726 585 q 776 358 776 446 q 751 201 776 271 q 680 83 726 132 q 567 9 633 35 q 417 -17 500 -17 m 417 136 q 525 179 486 136 q 564 301 564 222 l 564 415 q 525 538 564 494 q 417 581 486 581 q 308 538 347 581 q 269 415 269 494 l 269 301 q 308 179 269 222 q 417 136 347 136 z "},"p":{"ha":833,"x_min":82,"x_max":779,"o":"m 82 717 l 288 717 l 288 586 l 297 586 q 374 692 324 650 q 510 733 424 733 q 619 711 569 733 q 703 643 668 689 q 759 526 739 597 q 779 358 779 456 q 759 190 779 261 q 703 74 739 119 q 619 6 668 28 q 510 -17 569 -17 q 374 24 424 -17 q 297 131 324 65 l 288 131 l 288 -278 l 82 -278 l 82 717 m 421 143 q 528 185 490 143 q 565 303 565 228 l 565 414 q 528 531 565 489 q 421 574 490 574 q 327 547 367 574 q 288 464 288 521 l 288 253 q 327 169 288 196 q 421 143 367 143 z "},"q":{"ha":833,"x_min":54,"x_max":751,"o":"m 546 131 l 536 131 q 459 24 508 65 q 324 -17 410 -17 q 215 6 264 -17 q 130 74 165 28 q 74 190 94 119 q 54 358 54 261 q 74 526 54 456 q 130 643 94 597 q 215 711 165 689 q 324 733 264 733 q 400 722 367 733 q 459 692 433 711 q 503 645 485 672 q 536 586 522 618 l 546 586 l 546 717 l 751 717 l 751 -278 l 546 -278 l 546 131 m 413 143 q 506 169 467 143 q 546 253 546 196 l 546 464 q 506 547 546 521 q 413 574 467 574 q 306 531 343 574 q 268 414 268 489 l 268 303 q 306 185 268 228 q 413 143 343 143 z "},"r":{"ha":833,"x_min":103,"x_max":781,"o":"m 103 160 l 268 160 l 268 557 l 103 557 l 103 717 l 474 717 l 474 514 l 483 514 q 510 590 493 553 q 555 655 528 626 q 621 700 582 683 q 713 717 660 717 l 781 717 l 781 528 l 628 528 q 513 483 551 528 q 474 372 474 438 l 474 160 l 710 160 l 710 0 l 103 0 l 103 160 z "},"s":{"ha":833,"x_min":68,"x_max":742,"o":"m 408 -17 q 201 19 289 -17 q 68 118 113 56 l 183 225 q 281 153 225 179 q 410 128 338 128 q 506 147 471 128 q 540 204 540 165 q 517 247 540 235 q 451 265 493 258 l 336 283 q 246 305 288 290 q 174 344 204 319 q 125 406 143 369 q 107 493 107 442 q 193 669 107 606 q 435 733 279 733 q 615 705 540 733 q 733 624 689 676 l 631 507 q 549 565 599 542 q 428 589 499 589 q 308 517 308 589 q 332 473 308 485 q 397 454 356 461 l 511 436 q 601 415 560 429 q 674 375 643 400 q 724 314 706 350 q 742 226 742 278 q 655 49 742 114 q 408 -17 568 -17 z "},"t":{"ha":833,"x_min":58,"x_max":738,"o":"m 472 0 q 307 58 361 0 q 253 207 253 117 l 253 557 l 58 557 l 58 717 l 185 717 q 250 735 231 717 q 269 801 269 753 l 269 969 l 458 969 l 458 717 l 738 717 l 738 557 l 458 557 l 458 160 l 738 160 l 738 0 l 472 0 z "},"u":{"ha":833,"x_min":85,"x_max":743,"o":"m 538 131 l 529 131 q 455 26 506 69 q 318 -17 404 -17 q 224 1 267 -17 q 150 53 181 18 q 102 138 119 88 q 85 253 85 188 l 85 717 l 290 717 l 290 281 q 411 142 290 142 q 458 148 435 142 q 498 167 481 154 q 526 200 515 181 q 538 246 538 219 l 538 717 l 743 717 l 743 0 l 538 0 l 538 131 z "},"v":{"ha":833,"x_min":38,"x_max":796,"o":"m 294 0 l 38 717 l 254 717 l 347 410 l 415 171 l 426 171 l 494 410 l 588 717 l 796 717 l 539 0 l 294 0 z "},"w":{"ha":833,"x_min":10,"x_max":824,"o":"m 10 717 l 181 717 l 232 136 l 246 136 l 331 717 l 511 717 l 594 136 l 608 136 l 661 717 l 824 717 l 739 0 l 494 0 l 424 494 l 410 494 l 339 0 l 94 0 l 10 717 z "},"x":{"ha":833,"x_min":32,"x_max":801,"o":"m 32 0 l 300 364 l 50 717 l 285 717 l 361 601 l 419 508 l 431 508 l 490 601 l 568 717 l 783 717 l 533 375 l 801 0 l 565 0 l 475 135 l 413 231 l 401 231 l 340 135 l 249 0 l 32 0 z "},"y":{"ha":833,"x_min":26,"x_max":807,"o":"m 597 717 l 807 717 l 469 -115 q 385 -236 438 -194 q 240 -278 332 -278 l 99 -278 l 99 -118 l 271 -118 l 315 4 l 26 717 l 247 717 l 351 415 l 417 207 l 428 207 l 490 415 l 597 717 z "},"z":{"ha":833,"x_min":92,"x_max":742,"o":"m 92 0 l 92 171 l 490 557 l 106 557 l 106 717 l 728 717 l 728 546 l 329 160 l 742 160 l 742 0 l 92 0 z "},"A":{"ha":833,"x_min":7,"x_max":826,"o":"m 604 0 l 543 233 l 278 233 l 218 0 l 7 0 l 269 969 l 564 969 l 826 0 l 604 0 m 417 768 l 406 768 l 311 401 l 511 401 l 417 768 z "},"B":{"ha":833,"x_min":107,"x_max":772,"o":"m 107 969 l 447 969 q 666 900 590 969 q 742 711 742 831 q 701 578 742 628 q 583 507 660 529 l 583 499 q 723 421 674 476 q 772 267 772 365 q 695 72 772 144 q 479 0 618 0 l 107 0 l 107 969 m 415 146 q 525 171 490 146 q 560 263 560 196 l 560 303 q 525 394 560 369 q 415 419 490 419 l 310 419 l 310 146 l 415 146 m 389 558 q 496 583 463 558 q 529 671 529 607 l 529 713 q 496 800 529 776 q 389 824 463 824 l 310 824 l 310 558 l 389 558 z "},"C":{"ha":833,"x_min":57,"x_max":782,"o":"m 439 -17 q 151 115 244 -17 q 57 485 57 246 q 151 855 57 724 q 439 986 244 986 q 572 966 514 986 q 671 910 629 946 q 740 822 713 874 q 782 707 767 771 l 588 660 q 568 724 579 694 q 540 774 557 753 q 497 806 522 794 q 435 818 471 818 q 315 752 350 818 q 279 569 279 686 l 279 400 q 315 217 279 283 q 435 151 350 151 q 540 196 507 151 q 588 310 572 240 l 782 263 q 740 147 767 199 q 671 59 713 96 q 572 3 629 22 q 439 -17 514 -17 z "},"D":{"ha":833,"x_min":89,"x_max":786,"o":"m 89 969 l 401 969 q 692 844 597 969 q 786 485 786 719 q 692 125 786 250 q 401 0 597 0 l 89 0 l 89 969 m 388 164 q 524 224 481 164 q 567 397 567 283 l 567 574 q 524 746 567 686 q 388 806 481 806 l 294 806 l 294 164 l 388 164 z "},"E":{"ha":833,"x_min":111,"x_max":731,"o":"m 111 0 l 111 969 l 731 969 l 731 799 l 319 799 l 319 576 l 717 576 l 717 406 l 319 406 l 319 171 l 731 171 l 731 0 l 111 0 z "},"F":{"ha":833,"x_min":111,"x_max":754,"o":"m 111 0 l 111 969 l 754 969 l 754 799 l 319 799 l 319 576 l 708 576 l 708 406 l 319 406 l 319 0 l 111 0 z "},"G":{"ha":833,"x_min":49,"x_max":757,"o":"m 571 138 l 558 138 q 528 79 546 107 q 483 30 510 51 q 422 -4 457 8 q 342 -17 386 -17 q 216 17 271 -17 q 124 114 161 50 q 67 269 86 178 q 49 476 49 361 q 139 855 49 724 q 418 986 229 986 q 550 966 493 986 q 648 909 607 946 q 715 821 689 872 q 757 707 742 769 l 563 660 q 544 719 554 690 q 517 769 533 747 q 475 805 500 792 q 414 818 450 818 q 302 753 335 818 q 269 569 269 688 l 269 411 q 305 222 269 293 q 431 151 340 151 q 536 193 501 151 q 571 300 571 235 l 571 371 l 406 371 l 406 518 l 757 518 l 757 0 l 571 0 l 571 138 z "},"H":{"ha":833,"x_min":85,"x_max":749,"o":"m 539 406 l 294 406 l 294 0 l 85 0 l 85 969 l 294 969 l 294 576 l 539 576 l 539 969 l 749 969 l 749 0 l 539 0 l 539 406 z "},"I":{"ha":833,"x_min":104,"x_max":729,"o":"m 104 0 l 104 154 l 313 154 l 313 815 l 104 815 l 104 969 l 729 969 l 729 815 l 521 815 l 521 154 l 729 154 l 729 0 l 104 0 z "},"J":{"ha":833,"x_min":53,"x_max":710,"o":"m 710 969 l 710 271 q 687 152 710 206 q 622 61 664 99 q 519 3 579 24 q 386 -17 460 -17 q 156 58 238 -17 q 53 253 75 132 l 250 293 q 292 192 261 231 q 386 153 324 153 q 469 187 439 153 q 499 292 499 221 l 499 799 l 179 799 l 179 969 l 710 969 z "},"K":{"ha":833,"x_min":94,"x_max":838,"o":"m 389 404 l 303 283 l 303 0 l 94 0 l 94 969 l 303 969 l 303 564 l 314 564 l 419 725 l 590 969 l 824 969 l 533 560 l 838 0 l 603 0 l 389 404 z "},"L":{"ha":833,"x_min":128,"x_max":754,"o":"m 128 0 l 128 969 l 338 969 l 338 171 l 754 171 l 754 0 l 128 0 z "},"M":{"ha":833,"x_min":54,"x_max":779,"o":"m 599 432 l 610 703 l 597 703 l 417 204 l 236 703 l 224 703 l 235 432 l 235 0 l 54 0 l 54 969 l 300 969 l 419 643 l 431 643 l 550 969 l 779 969 l 779 0 l 599 0 l 599 432 z "},"N":{"ha":833,"x_min":85,"x_max":749,"o":"m 278 644 l 263 644 l 263 0 l 85 0 l 85 969 l 335 969 l 556 325 l 571 325 l 571 969 l 749 969 l 749 0 l 499 0 l 278 644 z "},"O":{"ha":833,"x_min":38,"x_max":796,"o":"m 417 -17 q 130 115 222 -17 q 38 485 38 247 q 130 854 38 722 q 417 986 222 986 q 703 854 611 986 q 796 485 796 722 q 703 115 796 247 q 417 -17 611 -17 m 417 151 q 540 217 506 151 q 574 401 574 283 l 574 569 q 540 752 574 686 q 417 818 506 818 q 294 752 328 818 q 260 569 260 686 l 260 400 q 294 217 260 283 q 417 151 328 151 z "},"P":{"ha":833,"x_min":106,"x_max":778,"o":"m 106 0 l 106 969 l 481 969 q 607 948 551 969 q 701 886 663 926 q 758 789 739 846 q 778 661 778 732 q 758 533 778 590 q 701 436 739 476 q 607 374 663 396 q 481 353 551 353 l 315 353 l 315 0 l 106 0 m 315 521 l 428 521 q 530 549 501 521 q 558 640 558 576 l 558 682 q 530 774 558 746 q 428 801 501 801 l 315 801 l 315 521 z "},"Q":{"ha":833,"x_min":38,"x_max":796,"o":"m 731 -265 l 533 -265 q 374 -211 421 -265 q 326 -65 326 -157 l 326 -8 q 108 148 178 21 q 38 485 38 275 q 130 854 38 722 q 417 986 222 986 q 703 854 611 986 q 796 485 796 722 q 726 148 796 275 q 507 -8 656 21 l 507 -117 l 731 -117 l 731 -265 m 417 151 q 540 217 506 151 q 574 401 574 283 l 574 569 q 540 752 574 686 q 417 818 506 818 q 294 752 328 818 q 260 569 260 686 l 260 400 q 294 217 260 283 q 417 151 328 151 z "},"R":{"ha":833,"x_min":106,"x_max":797,"o":"m 311 0 l 106 0 l 106 969 l 481 969 q 607 948 551 969 q 701 886 663 926 q 758 789 739 846 q 778 661 778 732 q 733 485 778 558 q 607 388 689 411 l 797 0 l 569 0 l 407 360 l 311 360 l 311 0 m 431 521 q 533 549 504 521 q 561 640 561 576 l 561 682 q 533 774 561 746 q 431 801 504 801 l 311 801 l 311 521 l 431 521 z "},"S":{"ha":833,"x_min":43,"x_max":772,"o":"m 401 -17 q 189 24 279 -17 q 43 133 99 64 l 164 267 q 280 181 217 208 q 408 153 343 153 q 522 186 483 153 q 561 282 561 219 q 531 360 561 333 q 431 397 501 386 l 329 414 q 140 510 199 436 q 82 692 82 585 q 174 909 82 832 q 431 986 265 986 q 626 951 543 986 q 761 857 710 917 l 643 725 q 551 792 604 768 q 432 817 499 817 q 292 701 292 817 q 323 626 292 651 q 425 589 354 601 l 526 571 q 708 482 644 550 q 772 299 772 414 q 749 173 772 231 q 678 73 725 115 q 562 7 631 31 q 401 -17 493 -17 z "},"T":{"ha":833,"x_min":33,"x_max":800,"o":"m 521 799 l 521 0 l 313 0 l 313 799 l 33 799 l 33 969 l 800 969 l 800 799 l 521 799 z "},"U":{"ha":833,"x_min":76,"x_max":757,"o":"m 285 969 l 285 356 q 288 272 285 310 q 305 207 292 233 q 344 166 318 181 q 417 151 371 151 q 489 166 463 151 q 528 207 515 181 q 545 272 542 233 q 549 356 549 310 l 549 969 l 757 969 l 757 383 q 744 208 757 283 q 693 83 731 133 q 589 8 656 33 q 417 -17 522 -17 q 244 8 311 -17 q 140 83 178 33 q 90 208 103 133 q 76 383 76 283 l 76 969 l 285 969 z "},"V":{"ha":833,"x_min":13,"x_max":821,"o":"m 269 0 l 13 969 l 244 969 l 358 476 l 415 197 l 426 197 l 485 476 l 600 969 l 821 969 l 564 0 l 269 0 z "},"W":{"ha":833,"x_min":15,"x_max":818,"o":"m 75 0 l 15 969 l 194 969 l 222 389 l 231 206 l 243 206 l 326 758 l 514 758 l 597 206 l 610 206 l 618 383 l 646 969 l 818 969 l 758 0 l 494 0 l 424 535 l 410 535 l 339 0 l 75 0 z "},"X":{"ha":833,"x_min":13,"x_max":821,"o":"m 821 0 l 583 0 l 483 193 l 415 346 l 403 346 l 333 193 l 231 0 l 13 0 l 285 501 l 31 969 l 268 969 l 347 815 l 418 660 l 429 660 l 501 815 l 585 969 l 803 969 l 549 499 l 821 0 z "},"Y":{"ha":833,"x_min":6,"x_max":828,"o":"m 313 0 l 313 343 l 6 969 l 238 969 l 340 744 l 415 554 l 426 554 l 501 744 l 604 969 l 828 969 l 521 343 l 521 0 l 313 0 z "},"Z":{"ha":833,"x_min":67,"x_max":765,"o":"m 765 0 l 67 0 l 67 182 l 518 799 l 81 799 l 81 969 l 751 969 l 751 788 l 300 171 l 765 171 l 765 0 z "},"&":{"ha":833,"x_min":19,"x_max":832,"o":"m 288 -17 q 172 6 222 -17 q 88 67 122 29 q 37 156 54 106 q 19 264 19 207 q 61 417 19 351 q 183 529 103 482 q 116 640 139 592 q 93 742 93 689 q 113 838 93 793 q 170 916 133 883 q 256 967 207 949 q 364 986 306 986 q 460 972 415 986 q 538 933 504 957 q 595 878 572 910 q 629 814 618 847 l 488 738 q 440 808 472 782 q 367 833 408 833 q 299 808 325 833 q 274 743 274 783 l 274 736 q 279 699 274 717 q 299 660 285 682 q 334 610 313 639 q 389 540 356 582 l 468 440 l 535 338 l 543 338 q 550 390 547 361 q 555 448 553 418 q 558 506 557 478 q 558 558 558 535 l 806 558 l 806 406 l 708 406 q 688 315 701 361 q 651 219 674 268 l 832 0 l 613 0 l 501 135 l 492 135 q 428 24 482 64 q 288 -17 374 -17 m 339 140 q 399 152 371 140 q 446 196 426 164 l 267 424 q 219 353 231 389 q 208 278 208 318 l 208 275 q 244 174 208 208 q 339 140 279 140 z "},"@":{"ha":833,"x_min":53,"x_max":768,"o":"m 619 -157 l 474 -157 q 278 -121 358 -157 q 147 -12 197 -85 q 75 169 97 60 q 53 424 53 278 q 77 690 53 582 q 148 863 101 797 q 263 958 194 929 q 418 986 331 986 q 574 960 508 986 q 683 887 640 933 q 747 778 726 840 q 768 643 768 715 l 768 126 l 619 126 l 619 211 l 610 211 q 561 135 594 160 q 479 110 528 110 q 352 181 397 110 q 307 408 307 253 q 352 635 307 564 q 479 707 397 707 q 561 682 528 707 q 610 606 594 657 l 619 606 l 619 643 q 606 742 619 701 q 566 807 592 782 q 505 843 540 832 q 426 854 469 854 q 335 838 375 854 q 266 781 294 821 q 223 671 238 740 q 208 497 208 601 l 208 318 q 223 174 208 238 q 269 66 238 110 q 351 -1 301 22 q 474 -24 401 -24 l 619 -24 l 619 -157 m 540 229 q 599 251 579 229 q 619 311 619 274 l 619 506 q 599 565 619 543 q 540 588 579 588 q 483 560 503 588 q 463 454 463 532 l 463 363 q 483 257 463 285 q 540 229 503 229 z "},"-":{"ha":833,"x_min":194,"x_max":639,"o":"m 194 325 l 194 522 l 639 522 l 639 325 l 194 325 z "},"­":{"ha":833,"x_min":194,"x_max":639,"o":"m 194 325 l 194 522 l 639 522 l 639 325 l 194 325 z "},"–":{"ha":833,"x_min":83,"x_max":750,"o":"m 83 339 l 83 507 l 750 507 l 750 339 l 83 339 z "},"—":{"ha":833,"x_min":0,"x_max":833,"o":"m 0 339 l 0 507 l 833 507 l 833 339 l 0 339 z "},"_":{"ha":833,"x_min":83,"x_max":750,"o":"m 83 -267 l 83 -99 l 750 -99 l 750 -267 l 83 -267 z "},".":{"ha":833,"x_min":271,"x_max":563,"o":"m 417 -17 q 305 17 339 -17 q 271 99 271 51 l 271 147 q 305 228 271 194 q 417 263 339 263 q 528 228 494 263 q 563 147 563 194 l 563 99 q 528 17 563 51 q 417 -17 494 -17 z "},"…":{"ha":833,"x_min":40,"x_max":793,"o":"m 142 -10 q 65 13 89 -10 q 40 65 40 35 l 40 129 q 65 182 40 160 q 142 204 89 204 q 217 182 192 204 q 242 129 242 160 l 242 65 q 217 13 242 35 q 142 -10 192 -10 m 417 -10 q 340 13 365 -10 q 315 65 315 35 l 315 129 q 340 182 315 160 q 417 204 365 204 q 493 182 468 204 q 518 129 518 160 l 518 65 q 493 13 518 35 q 417 -10 468 -10 m 692 -10 q 617 13 642 -10 q 592 65 592 35 l 592 129 q 617 182 592 160 q 692 204 642 204 q 768 182 743 204 q 793 129 793 160 l 793 65 q 768 13 793 35 q 692 -10 743 -10 z "},":":{"ha":833,"x_min":271,"x_max":563,"o":"m 417 -17 q 305 17 339 -17 q 271 99 271 51 l 271 147 q 305 228 271 194 q 417 263 339 263 q 528 228 494 263 q 563 147 563 194 l 563 99 q 528 17 563 51 q 417 -17 494 -17 m 417 454 q 305 488 339 454 q 271 569 271 522 l 271 618 q 305 699 271 665 q 417 733 339 733 q 528 699 494 733 q 563 618 563 665 l 563 569 q 528 488 563 522 q 417 454 494 454 z "},",":{"ha":833,"x_min":236,"x_max":579,"o":"m 315 242 l 579 242 l 389 -210 l 236 -210 l 315 242 z "},";":{"ha":833,"x_min":236,"x_max":579,"o":"m 315 242 l 579 242 l 389 -210 l 236 -210 l 315 242 m 417 454 q 305 488 339 454 q 271 569 271 522 l 271 618 q 305 699 271 665 q 417 733 339 733 q 528 699 494 733 q 563 618 563 665 l 563 569 q 528 488 563 522 q 417 454 494 454 z "},"'":{"ha":833,"x_min":325,"x_max":508,"o":"m 325 575 l 325 1028 l 508 1028 l 508 575 l 325 575 z "},"\"":{"ha":833,"x_min":169,"x_max":665,"o":"m 169 575 l 169 1028 l 353 1028 l 353 575 l 169 575 m 482 575 l 482 1028 l 665 1028 l 665 575 l 482 575 z "},"‘":{"ha":833,"x_min":225,"x_max":568,"o":"m 417 1028 l 568 1028 l 489 575 l 225 575 l 417 1028 z "},"’":{"ha":833,"x_min":265,"x_max":608,"o":"m 344 1028 l 608 1028 l 417 575 l 265 575 l 344 1028 z "},"“":{"ha":833,"x_min":47,"x_max":749,"o":"m 239 1028 l 390 1028 l 311 575 l 47 575 l 239 1028 m 597 1028 l 749 1028 l 669 575 l 406 575 l 597 1028 z "},"”":{"ha":833,"x_min":88,"x_max":789,"o":"m 167 1028 l 431 1028 l 239 575 l 88 575 l 167 1028 m 525 1028 l 789 1028 l 597 575 l 446 575 l 525 1028 z "},"‚":{"ha":833,"x_min":236,"x_max":579,"o":"m 315 242 l 579 242 l 389 -210 l 236 -210 l 315 242 z "},"„":{"ha":833,"x_min":63,"x_max":764,"o":"m 142 242 l 406 242 l 215 -210 l 63 -210 l 142 242 m 500 242 l 764 242 l 574 -210 l 421 -210 l 500 242 z "},"‹":{"ha":833,"x_min":240,"x_max":581,"o":"m 518 53 l 240 286 l 240 469 l 518 703 l 581 569 l 400 378 l 581 185 l 518 53 z "},"›":{"ha":833,"x_min":253,"x_max":593,"o":"m 253 185 l 433 378 l 253 569 l 315 703 l 593 469 l 593 286 l 315 53 l 253 185 z "},"«":{"ha":833,"x_min":83,"x_max":765,"o":"m 361 53 l 83 286 l 83 469 l 361 703 l 424 569 l 243 378 l 424 185 l 361 53 m 703 53 l 425 286 l 425 469 l 703 703 l 765 569 l 585 378 l 765 185 l 703 53 z "},"»":{"ha":833,"x_min":69,"x_max":751,"o":"m 69 185 l 250 378 l 69 569 l 132 703 l 410 469 l 410 286 l 132 53 l 69 185 m 411 185 l 592 378 l 411 569 l 474 703 l 751 469 l 751 286 l 474 53 l 411 185 z "},"¡":{"ha":833,"x_min":281,"x_max":553,"o":"m 304 -253 l 304 29 l 383 379 l 450 379 l 529 29 l 529 -253 l 304 -253 m 417 474 q 312 505 343 474 q 281 581 281 536 l 281 625 q 311 701 281 669 q 417 733 342 733 q 522 701 492 733 q 553 625 553 669 l 553 581 q 522 505 553 536 q 417 474 490 474 z "},"!":{"ha":833,"x_min":281,"x_max":553,"o":"m 383 338 l 304 688 l 304 969 l 529 969 l 529 688 l 450 338 l 383 338 m 417 -17 q 311 15 342 -17 q 281 92 281 47 l 281 136 q 312 211 281 179 q 417 243 343 243 q 522 211 490 243 q 553 136 553 179 l 553 92 q 522 15 553 47 q 417 -17 492 -17 z "},"¿":{"ha":833,"x_min":101,"x_max":749,"o":"m 429 -269 q 295 -249 356 -269 q 192 -190 235 -228 q 125 -100 149 -153 q 101 15 101 -47 q 122 122 101 74 q 176 205 142 169 q 255 263 210 240 q 350 293 300 285 l 350 393 l 544 393 l 544 181 q 379 144 440 176 q 318 33 318 113 l 318 14 q 352 -69 318 -44 q 436 -94 386 -94 q 529 -62 493 -94 q 579 24 565 -29 l 749 -47 q 712 -129 736 -89 q 649 -201 688 -169 q 556 -251 610 -232 q 429 -269 501 -269 m 444 474 q 339 505 371 474 q 307 581 307 536 l 307 625 q 338 701 307 669 q 444 733 369 733 q 549 701 518 733 q 581 625 581 669 l 581 581 q 549 505 581 536 q 444 474 518 474 z "},"?":{"ha":833,"x_min":85,"x_max":732,"o":"m 289 324 l 289 536 q 454 572 393 540 q 515 683 515 604 l 515 703 q 481 786 515 761 q 397 811 447 811 q 304 778 340 811 q 254 693 268 746 l 85 764 q 122 845 97 806 q 185 916 146 885 q 278 967 224 947 q 404 986 332 986 q 538 965 478 986 q 642 907 599 944 q 708 817 685 869 q 732 701 732 764 q 712 595 732 643 q 658 512 692 547 q 578 454 624 476 q 483 424 533 432 l 483 324 l 289 324 m 389 -17 q 284 15 315 -17 q 253 92 253 47 l 253 136 q 284 212 253 181 q 389 243 315 243 q 494 211 463 243 q 526 136 526 179 l 526 92 q 495 15 526 47 q 389 -17 464 -17 z "},"(":{"ha":833,"x_min":242,"x_max":736,"o":"m 242 432 q 265 627 242 533 q 327 801 288 721 q 419 947 367 882 q 531 1056 472 1011 l 736 1056 q 613 952 671 1011 q 510 822 554 893 q 440 671 467 751 q 414 503 414 590 l 414 361 q 440 193 414 274 q 510 42 467 113 q 613 -88 554 -29 q 736 -192 671 -147 l 531 -192 q 419 -83 472 -149 q 327 63 367 -18 q 265 237 288 143 q 242 432 242 331 z "},")":{"ha":833,"x_min":97,"x_max":592,"o":"m 592 432 q 569 237 592 331 q 506 63 546 143 q 414 -83 467 -18 q 303 -192 361 -149 l 97 -192 q 220 -88 161 -147 q 323 42 279 -29 q 393 193 367 113 q 419 361 419 274 l 419 503 q 393 671 419 590 q 323 822 367 751 q 220 952 279 893 q 97 1056 161 1011 l 303 1056 q 414 947 361 1011 q 506 801 467 882 q 569 627 546 721 q 592 432 592 533 z "},"[":{"ha":833,"x_min":254,"x_max":704,"o":"m 254 -192 l 254 1056 l 704 1056 l 704 918 l 419 918 l 419 -54 l 704 -54 l 704 -192 l 254 -192 z "},"]":{"ha":833,"x_min":129,"x_max":579,"o":"m 579 1056 l 579 -192 l 129 -192 l 129 -54 l 414 -54 l 414 918 l 129 918 l 129 1056 l 579 1056 z "},"{":{"ha":833,"x_min":128,"x_max":706,"o":"m 458 -192 q 324 -149 364 -192 q 283 -42 283 -107 l 283 21 q 291 82 283 56 q 310 129 299 108 q 335 166 321 150 q 361 197 349 182 q 394 245 385 225 q 403 288 403 265 q 365 343 403 324 q 253 363 328 363 l 128 363 l 128 501 l 253 501 q 365 521 328 501 q 403 576 403 540 q 394 619 403 599 q 361 667 385 639 q 335 697 349 681 q 310 735 321 714 q 291 782 299 756 q 283 843 283 808 l 283 906 q 324 1013 283 971 q 458 1056 364 1056 l 706 1056 l 706 918 l 449 918 l 449 851 q 466 771 449 799 q 504 715 483 743 q 549 653 528 686 q 569 575 569 619 q 529 482 569 517 q 406 438 489 447 l 406 426 q 529 382 489 417 q 569 289 569 347 q 549 211 569 244 q 504 149 528 178 q 466 93 483 121 q 449 13 449 65 l 449 -54 l 706 -54 l 706 -192 l 458 -192 z "},"}":{"ha":833,"x_min":128,"x_max":706,"o":"m 375 1056 q 510 1013 469 1056 q 550 906 550 971 l 550 843 q 542 782 550 808 q 524 735 535 756 q 499 697 513 714 q 472 667 485 681 q 440 619 449 639 q 431 576 431 599 q 468 521 431 540 q 581 501 506 501 l 706 501 l 706 363 l 581 363 q 468 343 506 363 q 431 288 431 324 q 440 245 431 265 q 472 197 449 225 q 499 166 485 182 q 524 129 513 150 q 542 82 535 108 q 550 21 550 56 l 550 -42 q 510 -149 550 -107 q 375 -192 469 -192 l 128 -192 l 128 -54 l 385 -54 l 385 13 q 367 93 385 65 q 329 149 350 121 q 285 211 306 178 q 264 289 264 244 q 304 382 264 347 q 428 426 344 417 l 428 438 q 304 482 344 447 q 264 575 264 517 q 285 653 264 619 q 329 715 306 686 q 367 771 350 743 q 385 851 385 799 l 385 918 l 128 918 l 128 1056 l 375 1056 z "},"/":{"ha":833,"x_min":101,"x_max":732,"o":"m 101 -192 l 547 1056 l 732 1056 l 286 -192 l 101 -192 z "},"\\":{"ha":833,"x_min":101,"x_max":732,"o":"m 547 -192 l 101 1056 l 286 1056 l 732 -192 l 547 -192 z "},"⁄":{"ha":833,"x_min":1,"x_max":832,"o":"m 689 969 l 832 969 l 592 553 l 449 553 l 689 969 m 242 417 l 385 417 l 144 0 l 1 0 l 242 417 z "},"%":{"ha":833,"x_min":3,"x_max":831,"o":"m 229 469 q 68 538 125 469 q 11 728 11 607 q 68 917 11 849 q 229 986 125 986 q 390 917 333 986 q 447 728 447 849 q 390 538 447 607 q 229 469 333 469 m 229 590 q 285 619 269 590 q 301 697 301 649 l 301 758 q 285 836 301 807 q 229 865 269 865 q 173 836 189 865 q 157 758 157 807 l 157 697 q 173 619 157 649 q 229 590 189 590 m 674 969 l 831 969 l 621 553 l 464 553 l 674 969 m 213 417 l 369 417 l 160 0 l 3 0 l 213 417 m 606 -17 q 444 52 501 -17 q 388 242 388 121 q 444 431 388 363 q 606 500 501 500 q 767 431 710 500 q 824 242 824 363 q 767 52 824 121 q 606 -17 710 -17 m 606 104 q 662 133 646 104 q 678 211 678 163 l 678 272 q 662 350 678 321 q 606 379 646 379 q 549 350 565 379 q 533 272 533 321 l 533 211 q 549 133 533 163 q 606 104 565 104 z "},"‰":{"ha":833,"x_min":0,"x_max":833,"o":"m 206 556 q 53 615 106 556 q 0 771 0 674 q 53 928 0 869 q 206 986 106 986 q 358 928 306 986 q 411 771 411 869 q 358 615 411 674 q 206 556 306 556 m 206 665 q 257 690 239 665 q 275 749 275 715 l 275 793 q 257 851 275 826 q 206 876 239 876 q 154 851 172 876 q 136 793 136 826 l 136 749 q 154 690 136 715 q 206 665 172 665 m 82 476 l 724 674 l 751 581 l 110 383 l 82 476 m 350 -17 q 201 42 254 -17 q 147 199 147 101 q 201 356 147 297 q 350 414 256 414 q 428 397 394 414 q 485 351 463 381 l 496 351 q 553 397 518 379 q 631 414 588 414 q 780 355 726 414 q 833 199 833 296 q 779 42 833 100 q 631 -17 725 -17 q 552 0 586 -17 q 496 46 518 17 l 485 46 q 428 1 463 18 q 350 -17 393 -17 m 353 93 q 404 118 386 93 q 422 176 422 143 l 422 221 q 404 279 422 254 q 353 304 386 304 q 301 279 319 304 q 283 221 283 254 l 283 176 q 301 118 283 143 q 353 93 319 93 m 628 93 q 679 118 661 93 q 697 176 697 143 l 697 221 q 679 279 697 254 q 628 304 661 304 q 576 279 594 304 q 558 221 558 254 l 558 176 q 576 118 558 143 q 628 93 594 93 z "},"|":{"ha":833,"x_min":329,"x_max":504,"o":"m 329 -192 l 329 1056 l 504 1056 l 504 -192 l 329 -192 z "},"¦":{"ha":833,"x_min":329,"x_max":504,"o":"m 329 557 l 329 1056 l 504 1056 l 504 557 l 329 557 m 329 -192 l 329 307 l 504 307 l 504 -192 l 329 -192 z "},"§":{"ha":833,"x_min":90,"x_max":753,"o":"m 710 4 q 687 -99 710 -53 q 624 -177 664 -144 q 526 -227 583 -210 q 401 -244 469 -244 q 256 -222 329 -244 q 122 -144 183 -200 l 224 -22 q 305 -78 260 -58 q 403 -99 350 -99 q 500 -73 464 -99 q 536 -4 536 -47 q 506 55 536 33 q 413 93 476 76 l 304 122 q 203 162 244 139 q 138 212 163 185 q 101 269 113 239 q 90 331 90 300 q 127 440 90 390 q 243 521 164 489 l 243 543 q 159 629 185 579 q 133 738 133 679 q 156 840 133 794 q 219 919 179 886 q 317 969 260 951 q 442 986 374 986 q 587 964 514 986 q 721 886 660 942 l 619 764 q 538 820 583 800 q 440 840 493 840 q 343 815 379 840 q 307 746 307 789 q 337 687 307 708 q 431 649 367 665 l 539 619 q 640 580 599 603 q 706 530 681 557 q 742 472 731 503 q 753 411 753 442 q 716 302 753 351 q 600 221 679 253 l 600 199 q 684 113 658 163 q 710 4 710 63 m 582 350 q 559 415 582 386 q 467 464 536 444 l 360 493 q 336 500 347 496 q 314 508 325 504 q 275 452 289 481 q 261 392 261 424 q 284 326 261 356 q 376 278 307 297 l 483 249 q 507 242 496 246 q 529 233 518 238 q 568 290 554 261 q 582 350 582 318 z "},"¶":{"ha":833,"x_min":28,"x_max":767,"o":"m 340 342 q 219 365 275 342 q 119 431 163 389 q 52 530 76 472 q 28 656 28 588 q 52 781 28 724 q 119 881 76 839 q 219 946 163 922 q 340 969 275 969 l 767 969 l 767 -207 l 601 -207 l 601 808 l 506 808 l 506 -207 l 340 -207 l 340 342 z "},"©":{"ha":833,"x_min":0,"x_max":833,"o":"m 417 25 q 253 57 329 25 q 122 149 178 89 q 33 293 65 208 q 0 485 0 378 q 33 676 0 590 q 122 821 65 761 q 253 913 178 881 q 417 944 329 944 q 580 913 504 944 q 712 821 656 881 q 801 676 768 761 q 833 485 833 590 q 801 293 833 378 q 712 149 768 208 q 580 57 656 89 q 417 25 504 25 m 417 101 q 548 128 488 101 q 652 201 608 154 q 721 310 696 247 q 746 443 746 372 l 746 526 q 721 660 746 597 q 652 769 696 722 q 548 842 608 815 q 417 868 488 868 q 285 842 346 868 q 181 769 225 815 q 113 660 138 722 q 88 526 88 597 l 88 443 q 113 310 88 372 q 181 201 138 247 q 285 128 225 154 q 417 101 346 101 m 429 213 q 324 232 371 213 q 243 287 276 251 q 192 372 210 322 q 174 483 174 422 q 192 597 174 546 q 245 683 211 647 q 326 738 279 718 q 429 757 372 757 q 567 717 515 757 q 643 615 618 678 l 525 556 q 490 608 511 588 q 432 628 468 628 q 367 602 390 628 q 343 536 343 576 l 343 435 q 367 368 343 394 q 433 342 390 342 q 495 363 472 342 q 533 414 518 383 l 651 354 q 621 301 639 326 q 576 256 603 275 q 513 224 549 236 q 429 213 476 213 z "},"®":{"ha":833,"x_min":163,"x_max":671,"o":"m 417 481 q 317 500 364 481 q 236 553 271 519 q 182 633 201 586 q 163 733 163 679 q 182 834 163 788 q 236 914 201 881 q 317 967 271 947 q 417 986 364 986 q 516 967 469 986 q 597 914 563 947 q 651 834 631 881 q 671 733 671 788 q 651 633 671 679 q 597 553 631 586 q 516 500 563 519 q 417 481 469 481 m 417 538 q 491 551 457 538 q 550 588 525 564 q 590 644 575 611 q 604 719 604 678 l 604 747 q 590 822 604 789 q 550 879 575 856 q 491 916 525 903 q 417 929 457 929 q 342 916 376 929 q 283 879 308 903 q 244 822 258 856 q 229 747 229 789 l 229 719 q 244 644 229 678 q 283 588 258 611 q 342 551 308 564 q 417 538 376 538 m 386 606 l 308 606 l 308 863 l 436 863 q 513 838 489 863 q 536 775 536 813 q 489 696 536 718 l 543 606 l 458 606 l 417 681 l 386 681 l 386 606 m 419 738 q 456 765 456 738 l 456 775 q 419 803 456 803 l 386 803 l 386 738 l 419 738 z "},"™":{"ha":833,"x_min":18,"x_max":767,"o":"m 114 568 l 114 885 l 18 885 l 18 969 l 329 969 l 329 885 l 233 885 l 233 568 l 114 568 m 358 568 l 358 969 l 485 969 l 563 821 l 571 821 l 649 969 l 767 969 l 767 568 l 667 568 l 667 703 l 678 832 l 672 832 l 563 629 l 453 832 l 447 832 l 458 703 l 458 568 l 358 568 z "},"ª":{"ha":833,"x_min":174,"x_max":679,"o":"m 596 472 q 524 495 551 472 q 493 561 497 518 l 488 561 q 433 487 474 513 q 335 461 393 461 q 217 501 261 461 q 174 611 174 540 q 231 728 174 690 q 399 765 289 765 l 479 765 l 479 790 q 458 858 479 835 q 389 881 438 881 q 315 863 343 881 q 265 818 286 846 l 188 888 q 267 958 213 931 q 406 986 321 986 q 566 939 508 986 q 624 796 624 892 l 624 576 l 679 576 l 679 472 l 596 472 m 403 688 q 314 628 314 688 l 314 608 q 334 569 314 582 q 389 556 354 556 q 453 574 428 556 q 479 628 479 592 l 479 688 l 403 688 z "},"º":{"ha":833,"x_min":165,"x_max":668,"o":"m 417 461 q 232 531 299 461 q 165 724 165 601 q 232 916 165 846 q 417 986 299 986 q 601 916 535 986 q 668 724 668 846 q 601 531 668 601 q 417 461 535 461 m 417 568 q 492 598 465 568 q 519 683 519 628 l 519 764 q 492 849 519 819 q 417 879 465 879 q 341 849 368 879 q 314 764 314 819 l 314 683 q 341 598 314 628 q 417 568 368 568 z "},"°":{"ha":833,"x_min":156,"x_max":678,"o":"m 417 464 q 314 484 361 464 q 231 539 267 504 q 176 622 196 574 q 156 725 156 669 q 176 828 156 781 q 231 911 196 876 q 314 966 267 946 q 417 986 361 986 q 519 966 472 986 q 602 911 567 946 q 658 828 638 876 q 678 725 678 781 q 658 622 678 669 q 602 539 638 574 q 519 484 567 504 q 417 464 472 464 m 417 596 q 503 633 471 596 q 536 725 536 671 q 503 817 536 779 q 417 854 471 854 q 330 817 363 854 q 297 725 297 779 q 330 633 297 671 q 417 596 363 596 z "},"*":{"ha":833,"x_min":42,"x_max":792,"o":"m 265 83 l 121 179 l 279 388 l 42 468 l 96 628 l 328 543 l 328 789 l 506 789 l 506 543 l 738 628 l 792 468 l 554 388 l 713 179 l 568 83 l 417 290 l 265 83 z "},"†":{"ha":833,"x_min":85,"x_max":749,"o":"m 329 -278 l 329 567 l 85 567 l 85 717 l 329 717 l 329 1028 l 504 1028 l 504 717 l 749 717 l 749 567 l 504 567 l 504 -278 l 329 -278 z "},"‡":{"ha":833,"x_min":85,"x_max":749,"o":"m 329 -278 l 329 33 l 85 33 l 85 183 l 329 183 l 329 567 l 85 567 l 85 717 l 329 717 l 329 1028 l 504 1028 l 504 717 l 749 717 l 749 567 l 504 567 l 504 183 l 749 183 l 749 33 l 504 33 l 504 -278 l 329 -278 z "},"#":{"ha":833,"x_min":13,"x_max":821,"o":"m 163 269 l 13 269 l 13 422 l 190 422 l 211 547 l 65 547 l 65 700 l 239 700 l 286 969 l 449 969 l 278 0 l 115 0 l 163 269 m 556 969 l 718 969 l 671 700 l 821 700 l 821 547 l 643 547 l 622 422 l 768 422 l 768 269 l 594 269 l 547 0 l 385 0 l 556 969 z "},"^":{"ha":833,"x_min":38,"x_max":796,"o":"m 633 332 l 421 781 l 404 781 l 192 332 l 38 407 l 308 969 l 526 969 l 796 407 l 633 332 z "},"~":{"ha":833,"x_min":50,"x_max":783,"o":"m 568 292 q 484 307 524 292 q 403 343 444 322 q 340 373 367 361 q 288 385 314 385 q 234 362 254 385 q 197 292 214 339 l 50 344 q 127 497 72 439 q 265 556 182 556 q 349 540 310 556 q 431 504 389 525 q 493 474 467 486 q 546 463 519 463 q 599 485 579 463 q 636 556 619 508 l 783 503 q 706 350 761 408 q 568 292 651 292 z "},"+":{"ha":833,"x_min":86,"x_max":747,"o":"m 328 86 l 328 342 l 86 342 l 86 506 l 328 506 l 328 761 l 506 761 l 506 506 l 747 506 l 747 342 l 506 342 l 506 86 l 328 86 z "},"−":{"ha":833,"x_min":86,"x_max":747,"o":"m 86 342 l 86 506 l 747 506 l 747 342 l 86 342 z "},"±":{"ha":833,"x_min":86,"x_max":747,"o":"m 328 256 l 328 486 l 86 486 l 86 650 l 328 650 l 328 881 l 506 881 l 506 650 l 747 650 l 747 486 l 506 486 l 506 256 l 328 256 m 86 0 l 86 165 l 747 165 l 747 0 l 86 0 z "},"×":{"ha":833,"x_min":97,"x_max":736,"o":"m 417 306 l 215 104 l 97 222 l 299 424 l 97 625 l 215 743 l 417 542 l 618 743 l 736 625 l 535 424 l 736 222 l 618 104 l 417 306 z "},"÷":{"ha":833,"x_min":86,"x_max":747,"o":"m 86 342 l 86 506 l 747 506 l 747 342 l 86 342 m 417 40 q 322 68 350 40 q 294 136 294 96 l 294 169 q 322 238 294 210 q 417 265 350 265 q 511 238 483 265 q 539 169 539 210 l 539 136 q 511 68 539 96 q 417 40 483 40 m 417 582 q 322 610 350 582 q 294 678 294 638 l 294 711 q 322 779 294 751 q 417 807 350 807 q 511 779 483 807 q 539 711 539 751 l 539 678 q 511 610 539 638 q 417 582 483 582 z "},"=":{"ha":833,"x_min":86,"x_max":747,"o":"m 86 501 l 86 665 l 747 665 l 747 501 l 86 501 m 86 182 l 86 346 l 747 346 l 747 182 l 86 182 z "},"≈":{"ha":833,"x_min":50,"x_max":783,"o":"m 568 451 q 484 467 524 451 q 403 503 444 482 q 340 533 367 521 q 288 544 314 544 q 234 522 254 544 q 197 451 214 499 l 50 504 q 127 657 72 599 q 265 715 182 715 q 349 700 310 715 q 431 664 389 685 q 493 634 467 646 q 546 622 519 622 q 599 645 579 622 q 636 715 619 668 l 783 663 q 706 510 761 568 q 568 451 651 451 m 568 132 q 484 147 524 132 q 403 183 444 163 q 340 213 367 201 q 288 225 314 225 q 234 202 254 225 q 197 132 214 179 l 50 185 q 127 338 72 279 q 265 396 182 396 q 349 381 310 396 q 431 344 389 365 q 493 315 467 326 q 546 303 519 303 q 599 326 579 303 q 636 396 619 349 l 783 343 q 706 190 761 249 q 568 132 651 132 z "},"≠":{"ha":833,"x_min":86,"x_max":747,"o":"m 126 50 l 199 182 l 86 182 l 86 346 l 292 346 l 379 501 l 86 501 l 86 665 l 460 665 l 532 797 l 707 797 l 635 665 l 747 665 l 747 501 l 542 501 l 454 346 l 747 346 l 747 182 l 374 182 l 301 50 l 126 50 z "},"<":{"ha":833,"x_min":118,"x_max":715,"o":"m 118 328 l 118 519 l 715 839 l 715 647 l 303 429 l 303 418 l 715 200 l 715 8 l 118 328 z "},">":{"ha":833,"x_min":118,"x_max":715,"o":"m 118 200 l 531 418 l 531 429 l 118 647 l 118 839 l 715 519 l 715 328 l 118 8 l 118 200 z "},"≤":{"ha":833,"x_min":118,"x_max":715,"o":"m 118 0 l 118 161 l 715 161 l 715 0 l 118 0 m 715 654 l 314 518 l 314 508 l 715 375 l 715 200 l 118 418 l 118 608 l 715 826 l 715 654 z "},"≥":{"ha":833,"x_min":118,"x_max":715,"o":"m 118 378 l 518 511 l 518 521 l 118 657 l 118 826 l 715 608 l 715 418 l 118 200 l 118 378 m 118 161 l 715 161 l 715 0 l 118 0 l 118 161 z "},"·":{"ha":833,"x_min":271,"x_max":563,"o":"m 417 283 q 305 317 339 283 q 271 399 271 351 l 271 447 q 305 528 271 494 q 417 563 339 563 q 528 528 494 563 q 563 447 563 494 l 563 399 q 528 317 563 351 q 417 283 494 283 z "},"•":{"ha":833,"x_min":203,"x_max":631,"o":"m 417 217 q 317 231 358 217 q 251 269 276 244 q 214 326 225 293 q 203 399 203 360 l 203 446 q 214 518 203 485 q 251 576 225 551 q 317 614 276 600 q 417 628 358 628 q 516 614 475 628 q 583 576 557 600 q 619 518 608 551 q 631 446 631 485 l 631 399 q 619 326 631 360 q 583 269 608 293 q 516 231 557 244 q 417 217 475 217 z "},"◊":{"ha":833,"x_min":39,"x_max":794,"o":"m 342 0 l 39 485 l 342 969 l 492 969 l 794 485 l 492 0 l 342 0 m 421 171 l 613 485 l 421 799 l 413 799 l 221 485 l 413 171 l 421 171 z "},"¬":{"ha":833,"x_min":86,"x_max":725,"o":"m 557 75 l 557 342 l 86 342 l 86 506 l 725 506 l 725 75 l 557 75 z "},"√":{"ha":833,"x_min":21,"x_max":828,"o":"m 296 0 l 132 544 l 21 544 l 21 717 l 264 717 l 343 444 l 415 146 l 426 146 l 504 444 l 656 969 l 828 969 l 542 0 l 296 0 z "},"∫":{"ha":833,"x_min":39,"x_max":758,"o":"m 39 -118 l 296 -118 l 296 821 q 349 970 296 913 q 515 1028 403 1028 l 758 1028 l 758 868 l 501 868 l 501 -71 q 447 -219 501 -161 q 282 -278 393 -278 l 39 -278 l 39 -118 z "},"∞":{"ha":833,"x_min":15,"x_max":818,"o":"m 224 175 q 69 240 124 175 q 15 424 15 306 q 73 607 15 542 q 235 672 131 672 q 356 631 306 672 q 439 493 407 589 l 444 493 q 503 629 456 586 q 610 672 551 672 q 764 607 710 672 q 818 424 818 542 q 760 240 818 306 q 599 175 703 175 q 477 217 528 175 q 394 354 426 258 l 389 354 q 367 273 383 307 q 329 217 351 239 q 280 185 307 196 q 224 175 253 175 m 242 317 q 314 344 286 317 q 356 407 342 371 q 312 493 338 456 q 242 531 286 531 q 195 506 214 531 q 176 433 176 481 l 176 414 q 195 342 176 367 q 242 317 214 317 m 592 317 q 638 342 619 317 q 657 414 657 367 l 657 433 q 638 506 657 481 q 592 531 619 531 q 519 503 547 531 q 478 440 492 476 q 522 354 496 392 q 592 317 547 317 z "},"℮":{"ha":833,"x_min":36,"x_max":797,"o":"m 257 118 q 325 78 282 94 q 417 61 368 61 q 509 75 468 61 q 583 114 550 89 q 643 174 617 139 q 690 250 669 208 l 763 210 q 705 122 738 164 q 630 50 672 81 q 535 1 588 19 q 417 -17 482 -17 q 260 22 331 -17 q 140 126 190 60 q 63 285 90 193 q 36 485 36 376 q 63 685 36 593 q 140 843 90 776 q 260 948 190 910 q 417 986 331 986 q 573 948 503 986 q 693 843 643 910 q 770 685 743 776 q 797 485 797 593 l 257 485 l 257 118 m 576 557 l 576 858 q 508 897 550 882 q 417 911 465 911 q 326 897 368 911 q 257 858 283 882 l 257 557 l 576 557 z "},"ℓ":{"ha":833,"x_min":44,"x_max":771,"o":"m 464 -17 q 358 0 407 -17 q 272 47 308 17 q 214 122 235 78 q 193 221 193 165 l 193 225 q 164 206 185 219 q 133 188 143 193 l 44 331 q 122 378 83 351 q 183 419 160 404 l 183 758 q 203 890 183 836 q 257 979 222 944 q 338 1029 292 1014 q 439 1044 385 1044 q 626 974 561 1044 q 692 781 692 904 q 672 658 692 715 q 614 544 653 600 q 516 433 575 489 q 378 317 457 378 l 378 260 q 400 184 378 207 q 461 161 422 161 q 499 168 482 161 q 533 192 517 175 q 567 235 550 208 q 604 304 583 263 l 771 219 q 656 49 731 114 q 464 -17 581 -17 m 444 863 q 399 841 419 863 q 378 765 378 819 l 378 525 q 467 631 432 574 q 503 764 503 689 l 503 778 q 486 842 503 822 q 444 863 469 863 z "},"№":{"ha":833,"x_min":24,"x_max":829,"o":"m 668 451 q 501 717 501 451 q 668 981 501 981 q 829 717 829 981 q 668 451 829 451 m 24 0 l 24 969 l 267 969 l 303 504 l 326 139 l 343 139 l 343 969 l 465 969 l 465 0 l 222 0 l 186 465 l 163 831 l 146 831 l 146 0 l 24 0 m 668 560 q 709 586 700 560 q 718 664 718 613 l 718 768 q 709 845 718 818 q 668 872 700 872 q 626 845 635 872 q 618 768 618 818 l 618 664 q 626 587 618 614 q 668 560 635 560 m 513 314 l 513 421 l 818 421 l 818 314 l 513 314 z "},"∂":{"ha":833,"x_min":57,"x_max":776,"o":"m 776 381 q 751 203 776 278 q 678 79 725 128 q 565 7 631 31 q 419 -17 499 -17 q 267 9 335 -17 q 153 83 200 35 q 82 199 107 131 q 57 354 57 268 q 76 496 57 432 q 132 605 96 560 q 219 675 168 650 q 335 700 271 700 q 465 665 413 700 q 551 567 518 629 l 564 572 q 414 779 524 683 q 131 969 304 875 l 433 969 q 559 876 497 931 q 669 748 621 821 q 747 584 718 675 q 776 381 776 493 m 417 136 q 525 179 486 136 q 564 301 564 222 l 564 379 q 525 501 564 458 q 417 544 486 544 q 308 501 347 544 q 269 379 269 458 l 269 301 q 308 179 269 222 q 417 136 347 136 z "},"¢":{"ha":833,"x_min":83,"x_max":754,"o":"m 358 -158 l 358 -8 q 156 111 228 15 q 83 358 83 207 q 156 606 83 510 q 358 725 228 701 l 358 875 l 517 875 l 517 728 q 657 669 603 714 q 743 558 711 625 l 594 478 q 558 532 581 507 q 504 571 536 557 l 504 144 q 566 183 540 157 q 608 240 592 208 l 754 158 q 664 47 722 92 q 517 -11 606 3 l 517 -158 l 358 -158 m 281 300 q 303 206 281 246 q 372 147 326 167 l 372 569 q 304 512 328 551 q 281 417 281 472 l 281 300 z "},"€":{"ha":833,"x_min":63,"x_max":796,"o":"m 467 -17 q 296 17 371 -17 q 169 115 221 51 q 90 272 117 179 q 63 485 63 365 q 90 697 63 603 q 169 854 117 790 q 296 952 221 918 q 467 986 371 986 q 589 972 538 986 q 679 933 640 957 q 745 880 718 910 q 796 818 772 850 l 644 713 q 574 794 614 767 q 475 821 533 821 q 351 778 397 821 q 288 660 304 736 l 596 660 l 596 535 l 279 535 l 279 435 l 596 435 l 596 310 l 288 310 q 351 191 304 233 q 475 149 397 149 q 574 176 533 149 q 644 257 614 203 l 796 151 q 745 90 772 119 q 679 36 718 60 q 589 -2 640 13 q 467 -17 538 -17 z "},"ƒ":{"ha":833,"x_min":-69,"x_max":857,"o":"m -43 -118 l 213 -118 l 307 449 l 81 449 l 107 608 l 335 608 l 363 776 q 433 919 378 868 q 600 969 488 969 l 857 969 l 831 810 l 574 810 l 540 608 l 779 608 l 754 449 l 513 449 l 424 -85 q 353 -227 408 -176 q 186 -278 299 -278 l -69 -278 l -43 -118 z "},"£":{"ha":833,"x_min":64,"x_max":776,"o":"m 96 0 l 96 189 q 183 256 151 213 q 214 357 214 299 q 213 374 214 368 l 64 374 l 64 526 l 163 526 q 133 608 146 565 q 119 700 119 650 q 144 817 119 764 q 215 907 169 869 q 324 965 260 944 q 465 986 388 986 q 647 949 571 986 q 776 840 724 911 l 639 711 q 569 780 607 753 q 472 807 531 807 q 369 770 407 807 q 332 667 332 733 q 344 594 332 628 q 371 526 356 560 l 614 526 l 614 374 l 419 374 l 419 364 q 410 300 419 328 q 384 251 400 272 q 349 215 368 231 q 311 190 329 200 l 311 178 l 768 178 l 768 0 l 96 0 z "},"$":{"ha":833,"x_min":42,"x_max":789,"o":"m 351 -14 q 169 33 247 -6 q 42 133 90 71 l 163 265 q 258 192 207 218 q 365 157 308 165 l 365 413 l 333 418 q 136 516 200 442 q 72 697 72 590 q 144 889 72 815 q 351 981 217 963 l 351 1126 l 510 1126 l 510 982 q 659 938 597 971 q 763 856 721 904 l 643 722 q 496 806 585 786 l 496 574 l 528 568 q 725 472 661 543 q 789 294 789 400 q 770 188 789 238 q 716 99 751 138 q 628 33 681 60 q 510 -7 576 6 l 510 -157 l 351 -157 l 351 -14 m 268 704 q 291 637 268 660 q 365 600 314 614 l 365 810 q 291 775 314 801 q 268 704 268 749 m 594 281 q 571 351 594 328 q 496 388 547 375 l 496 158 q 570 201 546 169 q 594 281 594 232 z "},"¥":{"ha":833,"x_min":0,"x_max":833,"o":"m 78 157 l 318 157 l 318 307 l 78 307 l 78 464 l 222 464 l 0 969 l 217 969 l 413 464 l 426 464 l 624 969 l 833 969 l 613 464 l 756 464 l 756 307 l 515 307 l 515 157 l 756 157 l 756 0 l 78 0 l 78 157 z "},"฿":{"ha":833,"x_min":89,"x_max":789,"o":"m 497 -157 l 339 -157 l 339 0 l 89 0 l 89 969 l 339 969 l 339 1126 l 497 1126 l 497 968 q 692 891 624 961 q 761 711 761 821 q 601 507 761 551 l 601 499 q 740 421 690 478 q 789 267 789 364 q 713 72 789 144 q 499 0 636 0 l 497 0 l 497 -157 m 353 557 l 353 825 l 275 825 l 275 557 l 353 557 m 483 563 q 542 597 522 572 q 561 668 561 622 l 561 714 q 542 785 561 760 q 483 819 522 810 l 483 563 m 353 144 l 353 419 l 275 419 l 275 144 l 353 144 m 483 146 q 563 176 536 151 q 589 257 589 200 l 589 307 q 563 388 589 364 q 483 418 536 413 l 483 146 z "},"₡":{"ha":833,"x_min":57,"x_max":790,"o":"m 442 -17 l 439 -17 q 372 -12 403 -17 l 363 -157 l 264 -157 l 276 14 q 110 183 164 63 q 57 485 57 303 q 126 819 57 693 q 343 976 196 944 l 353 1126 l 451 1126 l 442 986 q 477 985 460 986 q 511 981 494 983 l 521 1126 l 619 1126 l 607 956 q 714 881 668 929 q 790 758 760 833 l 633 683 q 593 761 617 729 l 551 171 q 633 286 604 206 l 790 211 q 690 65 753 117 q 540 -7 626 13 l 531 -157 l 432 -157 l 442 -17 m 429 831 l 382 144 q 406 140 393 142 q 435 139 419 139 l 454 139 l 501 822 q 435 831 469 831 l 429 831 m 254 400 q 263 296 254 343 q 292 214 271 249 l 332 801 q 272 709 289 769 q 254 569 254 649 l 254 400 z "},"₤":{"ha":833,"x_min":68,"x_max":776,"o":"m 768 0 l 96 0 l 96 189 q 196 278 167 219 l 68 278 l 68 401 l 210 401 q 196 449 204 425 q 176 496 188 472 l 68 496 l 68 619 l 129 619 q 122 658 125 639 q 119 700 119 678 q 144 817 119 764 q 215 907 169 869 q 324 965 260 944 q 465 986 388 986 q 647 949 571 986 q 776 840 724 911 l 639 711 q 569 780 607 753 q 472 807 531 807 q 369 770 407 807 q 332 667 332 733 q 338 619 332 640 l 589 619 l 589 496 l 386 496 q 404 450 396 474 q 417 401 413 426 l 589 401 l 589 278 l 400 278 q 360 224 385 246 q 311 190 335 203 l 311 178 l 768 178 l 768 0 z "},"₦":{"ha":833,"x_min":32,"x_max":801,"o":"m 386 331 l 247 331 l 247 0 l 94 0 l 94 321 l 32 321 l 32 451 l 94 451 l 94 518 l 32 518 l 32 649 l 94 649 l 94 969 l 356 969 l 447 639 l 586 639 l 586 969 l 739 969 l 739 649 l 801 649 l 801 518 l 739 518 l 739 451 l 801 451 l 801 321 l 739 321 l 739 0 l 478 0 l 386 331 m 356 442 l 261 783 l 247 783 l 247 442 l 356 442 m 572 186 l 586 186 l 586 528 l 478 528 l 572 186 z "},"₨":{"ha":833,"x_min":51,"x_max":833,"o":"m 51 0 l 51 969 l 260 969 q 447 903 382 969 q 511 717 511 838 q 483 580 511 643 q 394 482 454 517 l 475 231 q 517 149 492 178 q 592 119 543 119 q 656 175 656 119 q 644 217 656 199 q 608 261 633 236 l 588 282 q 519 369 543 326 q 496 468 496 411 q 551 610 496 560 q 694 661 607 661 q 766 652 729 661 q 833 624 803 643 l 781 503 q 748 520 764 514 q 713 526 732 526 q 660 474 660 526 q 671 430 660 449 q 707 386 682 411 l 728 365 q 796 278 772 321 q 819 178 819 236 q 762 38 819 92 q 579 -17 704 -17 q 413 27 479 -17 q 315 178 347 71 l 235 446 l 217 446 l 217 0 l 51 0 m 264 582 q 326 603 307 582 q 344 676 344 625 l 344 735 q 326 808 344 786 q 264 829 307 829 l 217 829 l 217 582 l 264 582 z "},"₩":{"ha":833,"x_min":11,"x_max":822,"o":"m 94 375 l 11 375 l 11 501 l 90 501 l 88 607 l 11 607 l 11 735 l 83 735 l 75 969 l 250 969 l 250 725 l 588 725 l 588 969 l 758 969 l 750 735 l 822 735 l 822 607 l 746 607 l 743 501 l 822 501 l 822 375 l 739 375 l 726 0 l 476 0 l 433 617 l 400 617 l 357 0 l 107 0 l 94 375 m 274 129 l 308 617 l 239 617 l 239 129 l 274 129 m 599 129 l 599 617 l 529 617 l 564 129 l 599 129 z "},"₪":{"ha":833,"x_min":47,"x_max":792,"o":"m 256 738 l 388 738 l 388 125 l 506 125 q 606 160 564 125 q 649 276 649 194 l 649 969 l 792 969 l 792 275 q 772 154 792 206 q 718 68 753 103 q 635 17 683 33 q 529 0 586 0 l 256 0 l 256 738 m 47 0 l 47 969 l 324 969 q 428 953 381 969 q 510 901 476 936 q 564 815 544 867 q 583 694 583 764 l 583 232 l 451 232 l 451 693 q 410 810 451 775 q 310 844 368 844 l 190 844 l 190 0 l 47 0 z "},"₫":{"ha":833,"x_min":97,"x_max":790,"o":"m 526 351 l 518 351 q 491 299 507 324 q 452 257 475 275 q 399 228 429 239 q 328 217 368 217 q 235 233 278 217 q 163 282 193 249 q 115 366 132 315 q 97 486 97 417 q 162 690 97 625 q 328 756 226 756 q 399 744 368 756 q 452 715 429 733 q 491 672 475 697 q 518 621 507 647 l 526 621 l 526 811 l 351 811 l 351 957 l 526 957 l 526 1028 l 721 1028 l 721 957 l 790 957 l 790 811 l 721 811 l 721 231 l 526 231 l 526 351 m 411 361 q 497 389 467 361 q 526 450 526 417 l 526 522 q 497 583 526 556 q 411 611 467 611 q 325 579 353 611 q 297 499 297 547 l 297 474 q 325 393 297 425 q 411 361 353 361 m 114 0 l 114 149 l 753 149 l 753 0 l 114 0 z "},"₭":{"ha":833,"x_min":26,"x_max":835,"o":"m 304 0 l 96 0 l 96 411 l 26 411 l 26 578 l 96 578 l 96 969 l 304 969 l 304 578 l 360 578 l 589 969 l 813 969 l 569 578 l 771 578 l 771 411 l 583 411 l 835 0 l 601 0 l 360 411 l 304 411 l 304 0 z "},"₮":{"ha":833,"x_min":33,"x_max":800,"o":"m 515 247 l 515 0 l 318 0 l 318 161 l 139 83 l 139 222 l 318 300 l 318 417 l 139 339 l 139 478 l 318 556 l 318 807 l 33 807 l 33 969 l 800 969 l 800 807 l 515 807 l 515 642 l 694 719 l 694 581 l 515 503 l 515 386 l 694 464 l 694 325 l 515 247 z "},"₱":{"ha":833,"x_min":35,"x_max":804,"o":"m 303 0 l 106 0 l 106 440 l 35 440 l 35 571 l 106 571 l 106 639 l 35 639 l 35 769 l 106 769 l 106 969 l 442 969 q 622 923 551 969 q 719 769 692 876 l 804 769 l 804 639 l 738 639 l 738 571 l 804 571 l 804 440 l 719 440 q 622 285 692 332 q 442 238 553 238 l 303 238 l 303 0 m 303 763 l 531 763 q 492 821 519 803 q 407 839 465 839 l 303 839 l 303 763 m 538 565 l 538 644 l 303 644 l 303 565 l 538 565 m 407 369 q 494 388 467 369 q 532 447 522 407 l 303 447 l 303 369 l 407 369 z "},"₲":{"ha":833,"x_min":49,"x_max":757,"o":"m 274 7 q 103 174 158 53 q 49 486 49 296 q 70 697 49 604 q 137 853 92 789 q 250 951 182 917 q 411 986 318 985 l 431 1126 l 592 1126 l 569 960 q 749 739 699 907 l 592 683 q 568 742 582 715 q 531 789 554 769 l 492 518 l 757 518 l 757 325 q 735 186 757 249 q 671 79 713 124 q 569 9 629 35 q 431 -18 508 -17 l 411 -157 l 250 -157 l 274 7 m 403 825 q 290 755 324 818 q 256 569 256 692 l 256 399 q 269 267 256 319 q 311 183 282 214 l 403 825 m 439 142 q 546 193 514 147 q 578 303 578 239 l 578 371 l 471 371 l 439 142 z "},"₴":{"ha":833,"x_min":38,"x_max":796,"o":"m 428 -17 q 295 4 353 -17 q 199 62 238 25 q 140 147 160 99 q 121 251 121 196 q 123 287 121 269 q 132 319 125 304 l 38 319 l 38 433 l 200 433 l 407 550 l 407 558 l 38 558 l 38 672 l 506 672 q 514 717 514 690 q 484 797 514 771 q 401 824 454 824 q 313 803 353 824 q 240 747 274 783 l 136 871 q 252 955 182 924 q 410 986 322 986 q 533 967 479 986 q 625 915 588 947 q 682 838 663 882 q 701 747 701 794 q 699 708 701 728 q 690 672 696 688 l 796 672 l 796 558 l 639 558 l 432 442 l 432 433 l 796 433 l 796 319 l 321 319 q 312 291 314 306 q 310 261 310 276 q 343 173 310 204 q 439 142 376 142 q 533 164 486 142 q 631 240 579 186 l 736 117 q 608 20 688 57 q 428 -17 529 -17 z "},"₵":{"ha":833,"x_min":57,"x_max":782,"o":"m 282 11 q 112 178 167 58 q 57 485 57 299 q 146 849 57 721 q 419 986 235 978 l 439 1126 l 599 1126 l 576 965 q 704 876 658 936 q 772 742 750 817 l 610 688 q 583 751 599 722 q 539 800 567 781 l 446 140 q 506 155 481 142 q 550 191 532 168 q 580 244 568 214 q 599 307 592 274 l 782 263 q 740 147 767 199 q 671 59 713 96 q 572 3 629 22 q 439 -17 514 -17 l 438 -17 l 418 -157 l 258 -157 l 282 11 m 410 828 q 303 758 342 817 q 265 569 265 700 l 265 400 q 319 190 265 253 l 410 828 z "},"₸":{"ha":833,"x_min":61,"x_max":772,"o":"m 63 824 l 63 969 l 771 969 l 771 824 l 63 824 m 521 578 l 521 0 l 313 0 l 313 578 l 61 578 l 61 724 l 772 724 l 772 578 l 521 578 z "},"₹":{"ha":833,"x_min":64,"x_max":783,"o":"m 489 0 l 233 342 l 64 342 l 64 493 l 232 493 q 348 515 301 493 q 400 593 394 536 l 64 593 l 64 721 l 400 721 q 347 796 393 774 q 232 818 300 818 l 64 818 l 64 969 l 783 969 l 783 818 l 492 818 l 492 811 q 547 784 521 806 q 589 721 574 763 l 783 721 l 783 593 l 601 593 q 554 462 594 514 q 443 379 514 410 l 735 0 l 489 0 z "},"₺":{"ha":833,"x_min":54,"x_max":803,"o":"m 151 276 l 54 232 l 54 376 l 151 421 l 151 513 l 54 468 l 54 613 l 151 657 l 151 969 l 344 969 l 344 747 l 568 850 l 568 706 l 344 603 l 344 511 l 568 614 l 568 469 l 344 367 l 344 169 l 408 169 q 495 182 458 169 q 557 224 532 194 q 594 303 582 254 q 606 424 606 351 l 803 424 q 781 258 803 335 q 715 123 760 181 q 601 33 671 65 q 435 0 531 0 l 151 0 l 151 276 z "},"₽":{"ha":833,"x_min":44,"x_max":785,"o":"m 338 158 l 338 0 l 128 0 l 128 158 l 44 158 l 44 310 l 128 310 l 128 382 l 44 382 l 44 533 l 128 533 l 128 969 l 489 969 q 708 890 632 969 q 785 675 785 810 q 708 461 785 540 q 489 382 632 382 l 338 382 l 338 310 l 624 310 l 624 158 l 338 158 m 338 533 l 436 533 q 538 561 510 533 q 567 653 567 589 l 567 696 q 538 788 567 760 q 436 815 510 815 l 338 815 l 338 533 z "},"₿":{"ha":833,"x_min":107,"x_max":772,"o":"m 435 0 l 350 0 l 350 -157 l 233 -157 l 233 0 l 107 0 l 107 969 l 233 969 l 233 1126 l 350 1126 l 350 969 l 435 969 l 435 1126 l 551 1126 l 551 957 q 693 870 644 933 q 742 711 742 807 q 702 580 742 629 q 583 507 663 531 l 583 499 q 724 421 675 476 q 772 267 772 365 q 714 93 772 161 q 551 6 656 25 l 551 -157 l 435 -157 l 435 0 m 310 558 l 389 558 q 496 584 463 558 q 529 674 529 610 l 529 714 q 496 804 529 779 q 389 829 463 829 l 310 829 l 310 558 m 310 140 l 415 140 q 525 167 490 140 q 560 260 560 193 l 560 301 q 525 394 560 368 q 415 419 490 419 l 310 419 l 310 140 z "},"ﬁ":{"ha":833,"x_min":43,"x_max":764,"o":"m 104 557 l 43 557 l 43 717 l 104 717 l 104 821 q 158 969 104 911 q 322 1028 211 1028 l 457 1028 l 457 868 l 310 868 l 310 717 l 743 717 l 743 0 l 538 0 l 538 557 l 310 557 l 310 0 l 104 0 l 104 557 m 640 808 q 544 837 571 808 q 517 906 517 865 l 517 946 q 544 1015 517 988 q 640 1043 571 1043 q 737 1015 710 1043 q 764 946 764 988 l 764 906 q 737 837 764 865 q 640 808 710 808 z "},"ﬂ":{"ha":833,"x_min":43,"x_max":743,"o":"m 104 557 l 43 557 l 43 717 l 104 717 l 104 821 q 158 969 104 911 q 322 1028 211 1028 l 458 1028 l 458 868 l 310 868 l 310 717 l 460 717 l 460 557 l 310 557 l 310 0 l 104 0 l 104 557 m 538 1028 l 743 1028 l 743 0 l 538 0 l 538 1028 z "},"á":{"ha":833,"x_min":72,"x_max":794,"o":"m 676 0 q 574 33 613 0 q 528 126 535 65 l 521 126 q 444 19 501 56 q 303 -17 386 -17 q 135 40 199 -17 q 72 197 72 96 q 154 364 72 310 q 394 418 236 418 l 510 418 l 510 454 q 480 551 510 518 q 379 583 450 583 q 274 558 314 583 q 204 493 233 533 l 92 593 q 205 694 128 654 q 403 733 282 733 q 633 666 550 733 q 715 463 715 599 l 715 149 l 794 149 l 794 0 l 676 0 m 381 118 q 472 144 435 118 q 510 221 510 171 l 510 307 l 400 307 q 274 222 274 307 l 274 194 q 303 138 274 157 q 381 118 332 118 m 429 792 l 307 851 l 444 1121 l 615 1036 l 429 792 z "},"ă":{"ha":833,"x_min":72,"x_max":794,"o":"m 676 0 q 574 33 613 0 q 528 126 535 65 l 521 126 q 444 19 501 56 q 303 -17 386 -17 q 135 40 199 -17 q 72 197 72 96 q 154 364 72 310 q 394 418 236 418 l 510 418 l 510 454 q 480 551 510 518 q 379 583 450 583 q 274 558 314 583 q 204 493 233 533 l 92 593 q 205 694 128 654 q 403 733 282 733 q 633 666 550 733 q 715 463 715 599 l 715 149 l 794 149 l 794 0 l 676 0 m 381 118 q 472 144 435 118 q 510 221 510 171 l 510 307 l 400 307 q 274 222 274 307 l 274 194 q 303 138 274 157 q 381 118 332 118 m 407 792 q 299 815 344 792 q 223 872 254 838 q 171 949 192 907 q 138 1028 150 990 l 253 1086 l 282 1042 q 340 963 314 992 q 407 935 367 935 q 474 963 447 935 q 532 1042 500 992 l 561 1086 l 676 1028 q 643 949 664 990 q 591 872 622 907 q 515 815 560 838 q 407 792 469 792 z "},"â":{"ha":833,"x_min":72,"x_max":794,"o":"m 676 0 q 574 33 613 0 q 528 126 535 65 l 521 126 q 444 19 501 56 q 303 -17 386 -17 q 135 40 199 -17 q 72 197 72 96 q 154 364 72 310 q 394 418 236 418 l 510 418 l 510 454 q 480 551 510 518 q 379 583 450 583 q 274 558 314 583 q 204 493 233 533 l 92 593 q 205 694 128 654 q 403 733 282 733 q 633 666 550 733 q 715 463 715 599 l 715 149 l 794 149 l 794 0 l 676 0 m 381 118 q 472 144 435 118 q 510 221 510 171 l 510 307 l 400 307 q 274 222 274 307 l 274 194 q 303 138 274 157 q 381 118 332 118 m 493 1092 l 676 871 l 572 790 l 404 950 l 236 790 l 138 871 l 321 1092 l 493 1092 z "},"ä":{"ha":833,"x_min":72,"x_max":794,"o":"m 676 0 q 574 33 613 0 q 528 126 535 65 l 521 126 q 444 19 501 56 q 303 -17 386 -17 q 135 40 199 -17 q 72 197 72 96 q 154 364 72 310 q 394 418 236 418 l 510 418 l 510 454 q 480 551 510 518 q 379 583 450 583 q 274 558 314 583 q 204 493 233 533 l 92 593 q 205 694 128 654 q 403 733 282 733 q 633 666 550 733 q 715 463 715 599 l 715 149 l 794 149 l 794 0 l 676 0 m 381 118 q 472 144 435 118 q 510 221 510 171 l 510 307 l 400 307 q 274 222 274 307 l 274 194 q 303 138 274 157 q 381 118 332 118 m 254 821 q 167 847 192 821 q 143 908 143 872 l 143 944 q 167 1006 143 981 q 254 1031 192 1031 q 342 1006 317 1031 q 367 944 367 981 l 367 908 q 342 847 367 872 q 254 821 317 821 m 560 821 q 472 847 497 821 q 447 908 447 872 l 447 944 q 472 1006 447 981 q 560 1031 497 1031 q 647 1006 622 1031 q 671 944 671 981 l 671 908 q 647 847 671 872 q 560 821 622 821 z "},"ạ":{"ha":833,"x_min":72,"x_max":794,"o":"m 676 0 q 574 33 613 0 q 528 126 535 65 l 521 126 q 444 19 501 56 q 303 -17 386 -17 q 135 40 199 -17 q 72 197 72 96 q 154 364 72 310 q 394 418 236 418 l 510 418 l 510 454 q 480 551 510 518 q 379 583 450 583 q 274 558 314 583 q 204 493 233 533 l 92 593 q 205 694 128 654 q 403 733 282 733 q 633 666 550 733 q 715 463 715 599 l 715 149 l 794 149 l 794 0 l 676 0 m 381 118 q 472 144 435 118 q 510 221 510 171 l 510 307 l 400 307 q 274 222 274 307 l 274 194 q 303 138 274 157 q 381 118 332 118 m 406 -282 q 318 -257 343 -282 q 293 -196 293 -232 l 293 -160 q 318 -97 293 -122 q 406 -72 343 -72 q 493 -97 468 -72 q 518 -160 518 -122 l 518 -196 q 493 -257 518 -232 q 406 -282 468 -282 z "},"à":{"ha":833,"x_min":72,"x_max":794,"o":"m 676 0 q 574 33 613 0 q 528 126 535 65 l 521 126 q 444 19 501 56 q 303 -17 386 -17 q 135 40 199 -17 q 72 197 72 96 q 154 364 72 310 q 394 418 236 418 l 510 418 l 510 454 q 480 551 510 518 q 379 583 450 583 q 274 558 314 583 q 204 493 233 533 l 92 593 q 205 694 128 654 q 403 733 282 733 q 633 666 550 733 q 715 463 715 599 l 715 149 l 794 149 l 794 0 l 676 0 m 381 118 q 472 144 435 118 q 510 221 510 171 l 510 307 l 400 307 q 274 222 274 307 l 274 194 q 303 138 274 157 q 381 118 332 118 m 199 1036 l 369 1121 l 507 851 l 385 792 l 199 1036 z "},"ả":{"ha":833,"x_min":72,"x_max":794,"o":"m 676 0 q 574 33 613 0 q 528 126 535 65 l 521 126 q 444 19 501 56 q 303 -17 386 -17 q 135 40 199 -17 q 72 197 72 96 q 154 364 72 310 q 394 418 236 418 l 510 418 l 510 454 q 480 551 510 518 q 379 583 450 583 q 274 558 314 583 q 204 493 233 533 l 92 593 q 205 694 128 654 q 403 733 282 733 q 633 666 550 733 q 715 463 715 599 l 715 149 l 794 149 l 794 0 l 676 0 m 381 118 q 472 144 435 118 q 510 221 510 171 l 510 307 l 400 307 q 274 222 274 307 l 274 194 q 303 138 274 157 q 381 118 332 118 m 239 1101 l 438 1101 q 503 1093 476 1101 q 544 1071 529 1085 q 567 1039 560 1057 q 574 1000 574 1021 q 551 913 574 960 q 494 825 529 867 l 456 778 l 351 826 l 408 954 l 239 954 l 239 1101 z "},"ā":{"ha":833,"x_min":72,"x_max":794,"o":"m 676 0 q 574 33 613 0 q 528 126 535 65 l 521 126 q 444 19 501 56 q 303 -17 386 -17 q 135 40 199 -17 q 72 197 72 96 q 154 364 72 310 q 394 418 236 418 l 510 418 l 510 454 q 480 551 510 518 q 379 583 450 583 q 274 558 314 583 q 204 493 233 533 l 92 593 q 205 694 128 654 q 403 733 282 733 q 633 666 550 733 q 715 463 715 599 l 715 149 l 794 149 l 794 0 l 676 0 m 381 118 q 472 144 435 118 q 510 221 510 171 l 510 307 l 400 307 q 274 222 274 307 l 274 194 q 303 138 274 157 q 381 118 332 118 m 194 997 l 619 997 l 619 854 l 194 854 l 194 997 z "},"ą":{"ha":833,"x_min":72,"x_max":839,"o":"m 794 0 q 712 -53 743 -32 q 664 -92 681 -75 q 642 -121 647 -108 q 636 -146 636 -133 q 652 -182 636 -172 q 689 -192 668 -192 q 732 -181 714 -192 q 765 -153 750 -169 l 839 -224 q 778 -276 821 -257 q 669 -294 736 -294 q 603 -288 635 -294 q 549 -269 572 -282 q 511 -233 525 -256 q 497 -176 497 -210 q 541 -80 497 -118 q 663 -6 585 -42 l 660 0 q 567 36 601 4 q 528 126 533 68 l 521 126 q 444 19 501 56 q 303 -17 386 -17 q 135 40 199 -17 q 72 197 72 96 q 154 364 72 310 q 394 418 236 418 l 510 418 l 510 454 q 480 551 510 518 q 379 583 450 583 q 274 558 314 583 q 204 493 233 533 l 92 593 q 205 694 128 654 q 403 733 282 733 q 633 666 550 733 q 715 463 715 599 l 715 149 l 794 149 l 794 0 m 400 307 q 274 222 274 307 l 274 194 q 302 138 274 157 q 379 118 331 118 q 472 144 435 118 q 510 221 510 171 l 510 307 l 400 307 z "},"å":{"ha":833,"x_min":72,"x_max":794,"o":"m 676 0 q 574 33 613 0 q 528 126 535 65 l 521 126 q 444 19 501 56 q 303 -17 386 -17 q 135 40 199 -17 q 72 197 72 96 q 154 364 72 310 q 394 418 236 418 l 510 418 l 510 454 q 480 551 510 518 q 379 583 450 583 q 274 558 314 583 q 204 493 233 533 l 92 593 q 205 694 128 654 q 403 733 282 733 q 633 666 550 733 q 715 463 715 599 l 715 149 l 794 149 l 794 0 l 676 0 m 381 118 q 472 144 435 118 q 510 221 510 171 l 510 307 l 400 307 q 274 222 274 307 l 274 194 q 303 138 274 157 q 381 118 332 118 m 407 763 q 326 777 364 763 q 261 818 289 792 q 217 881 233 844 q 201 961 201 918 q 217 1040 201 1004 q 261 1103 233 1076 q 326 1144 289 1129 q 407 1160 364 1160 q 488 1145 450 1160 q 553 1104 525 1131 q 597 1041 581 1078 q 613 961 613 1004 q 597 882 613 918 q 553 819 581 846 q 488 778 525 793 q 407 763 450 763 m 407 867 q 460 886 442 867 q 478 938 478 906 l 478 985 q 460 1037 478 1018 q 407 1056 442 1056 q 354 1036 372 1056 q 336 985 336 1017 l 336 938 q 354 885 336 904 q 407 867 372 867 z "},"ǻ":{"ha":833,"x_min":72,"x_max":794,"o":"m 676 0 q 574 33 613 0 q 528 126 535 65 l 521 126 q 444 19 501 56 q 303 -17 386 -17 q 135 40 199 -17 q 72 197 72 96 q 154 364 72 310 q 394 418 236 418 l 510 418 l 510 454 q 480 551 510 518 q 379 583 450 583 q 274 558 314 583 q 204 493 233 533 l 92 593 q 205 694 128 654 q 403 733 282 733 q 633 666 550 733 q 715 463 715 599 l 715 149 l 794 149 l 794 0 l 676 0 m 381 118 q 472 144 435 118 q 510 221 510 171 l 510 307 l 400 307 q 274 222 274 307 l 274 194 q 303 138 274 157 q 381 118 332 118 m 397 1119 l 324 1199 l 503 1361 l 606 1249 l 397 1119 m 407 771 q 324 782 363 771 q 258 815 286 793 q 213 867 229 836 q 196 938 196 897 q 213 1008 196 976 q 258 1060 229 1039 q 324 1093 286 1082 q 407 1104 363 1104 q 490 1093 451 1104 q 556 1060 528 1082 q 601 1008 585 1039 q 618 938 618 976 q 601 867 618 899 q 556 815 585 836 q 490 782 528 793 q 407 771 451 771 m 407 868 q 483 931 483 868 l 483 944 q 464 992 483 978 q 407 1007 444 1007 q 331 944 331 1007 l 331 931 q 350 883 331 897 q 407 868 369 868 z "},"ã":{"ha":833,"x_min":72,"x_max":794,"o":"m 676 0 q 574 33 613 0 q 528 126 535 65 l 521 126 q 444 19 501 56 q 303 -17 386 -17 q 135 40 199 -17 q 72 197 72 96 q 154 364 72 310 q 394 418 236 418 l 510 418 l 510 454 q 480 551 510 518 q 379 583 450 583 q 274 558 314 583 q 204 493 233 533 l 92 593 q 205 694 128 654 q 403 733 282 733 q 633 666 550 733 q 715 463 715 599 l 715 149 l 794 149 l 794 0 l 676 0 m 381 118 q 472 144 435 118 q 510 221 510 171 l 510 307 l 400 307 q 274 222 274 307 l 274 194 q 303 138 274 157 q 381 118 332 118 m 513 822 q 456 831 481 822 q 406 850 432 839 q 350 872 375 863 q 297 881 325 881 q 256 872 274 881 q 215 846 238 864 l 143 940 q 207 1003 168 978 q 301 1029 246 1029 q 358 1021 333 1029 q 408 1001 382 1013 q 464 980 439 989 q 517 971 489 971 q 558 979 540 971 q 599 1006 576 988 l 671 911 q 607 848 646 874 q 513 822 568 822 z "},"ắ":{"ha":833,"x_min":72,"x_max":794,"o":"m 676 0 q 574 33 613 0 q 528 126 535 65 l 521 126 q 444 19 501 56 q 303 -17 386 -17 q 135 40 199 -17 q 72 197 72 96 q 154 364 72 310 q 394 418 236 418 l 510 418 l 510 454 q 480 551 510 518 q 379 583 450 583 q 274 558 314 583 q 204 493 233 533 l 92 593 q 205 694 128 654 q 403 733 282 733 q 633 666 550 733 q 715 463 715 599 l 715 149 l 794 149 l 794 0 l 676 0 m 381 118 q 472 144 435 118 q 510 221 510 171 l 510 307 l 400 307 q 274 222 274 307 l 274 194 q 303 138 274 157 q 381 118 332 118 m 406 782 q 295 801 342 782 q 215 850 249 819 q 160 917 182 881 q 125 989 139 953 l 229 1054 l 258 1015 q 297 970 279 988 q 331 942 314 953 q 365 926 347 931 q 406 922 383 922 q 481 942 449 922 q 553 1015 513 961 l 582 1054 l 686 989 q 651 917 672 953 q 596 850 629 881 q 516 801 563 819 q 406 782 469 782 m 432 1006 l 322 1060 l 460 1329 l 618 1250 l 432 1006 z "},"ặ":{"ha":833,"x_min":72,"x_max":794,"o":"m 676 0 q 574 33 613 0 q 528 126 535 65 l 521 126 q 444 19 501 56 q 303 -17 386 -17 q 135 40 199 -17 q 72 197 72 96 q 154 364 72 310 q 394 418 236 418 l 510 418 l 510 454 q 480 551 510 518 q 379 583 450 583 q 274 558 314 583 q 204 493 233 533 l 92 593 q 205 694 128 654 q 403 733 282 733 q 633 666 550 733 q 715 463 715 599 l 715 149 l 794 149 l 794 0 l 676 0 m 381 118 q 472 144 435 118 q 510 221 510 171 l 510 307 l 400 307 q 274 222 274 307 l 274 194 q 303 138 274 157 q 381 118 332 118 m 407 792 q 299 815 344 792 q 223 872 254 838 q 171 949 192 907 q 138 1028 150 990 l 253 1086 l 282 1042 q 340 963 314 992 q 407 935 367 935 q 474 963 447 935 q 532 1042 500 992 l 561 1086 l 676 1028 q 643 949 664 990 q 591 872 622 907 q 515 815 560 838 q 407 792 469 792 m 406 -282 q 318 -257 343 -282 q 293 -196 293 -232 l 293 -160 q 318 -97 293 -122 q 406 -72 343 -72 q 493 -97 468 -72 q 518 -160 518 -122 l 518 -196 q 493 -257 518 -232 q 406 -282 468 -282 z "},"ằ":{"ha":833,"x_min":72,"x_max":794,"o":"m 676 0 q 574 33 613 0 q 528 126 535 65 l 521 126 q 444 19 501 56 q 303 -17 386 -17 q 135 40 199 -17 q 72 197 72 96 q 154 364 72 310 q 394 418 236 418 l 510 418 l 510 454 q 480 551 510 518 q 379 583 450 583 q 274 558 314 583 q 204 493 233 533 l 92 593 q 205 694 128 654 q 403 733 282 733 q 633 666 550 733 q 715 463 715 599 l 715 149 l 794 149 l 794 0 l 676 0 m 381 118 q 472 144 435 118 q 510 221 510 171 l 510 307 l 400 307 q 274 222 274 307 l 274 194 q 303 138 274 157 q 381 118 332 118 m 406 782 q 295 801 342 782 q 215 850 249 819 q 160 917 182 881 q 125 989 139 953 l 229 1054 l 258 1015 q 297 970 279 988 q 331 942 314 953 q 365 926 347 931 q 406 922 383 922 q 481 942 449 922 q 553 1015 513 961 l 582 1054 l 686 989 q 651 917 672 953 q 596 850 629 881 q 516 801 563 819 q 406 782 469 782 m 193 1250 l 351 1329 l 489 1060 l 379 1006 l 193 1250 z "},"ẳ":{"ha":833,"x_min":72,"x_max":794,"o":"m 676 0 q 574 33 613 0 q 528 126 535 65 l 521 126 q 444 19 501 56 q 303 -17 386 -17 q 135 40 199 -17 q 72 197 72 96 q 154 364 72 310 q 394 418 236 418 l 510 418 l 510 454 q 480 551 510 518 q 379 583 450 583 q 274 558 314 583 q 204 493 233 533 l 92 593 q 205 694 128 654 q 403 733 282 733 q 633 666 550 733 q 715 463 715 599 l 715 149 l 794 149 l 794 0 l 676 0 m 381 118 q 472 144 435 118 q 510 221 510 171 l 510 307 l 400 307 q 274 222 274 307 l 274 194 q 303 138 274 157 q 381 118 332 118 m 406 782 q 295 801 342 782 q 215 850 249 819 q 160 917 182 881 q 125 989 139 953 l 229 1054 l 258 1015 q 297 970 279 988 q 331 942 314 953 q 365 926 347 931 q 406 922 383 922 q 481 942 449 922 q 553 1015 513 961 l 582 1054 l 686 989 q 651 917 672 953 q 596 850 629 881 q 516 801 563 819 q 406 782 469 782 m 225 1310 l 414 1310 q 479 1301 453 1310 q 521 1279 506 1293 q 543 1247 536 1265 q 550 1210 550 1229 q 524 1122 550 1168 q 464 1033 499 1076 l 426 988 l 335 1032 l 394 1169 l 225 1169 l 225 1310 z "},"ẵ":{"ha":833,"x_min":72,"x_max":794,"o":"m 676 0 q 574 33 613 0 q 528 126 535 65 l 521 126 q 444 19 501 56 q 303 -17 386 -17 q 135 40 199 -17 q 72 197 72 96 q 154 364 72 310 q 394 418 236 418 l 510 418 l 510 454 q 480 551 510 518 q 379 583 450 583 q 274 558 314 583 q 204 493 233 533 l 92 593 q 205 694 128 654 q 403 733 282 733 q 633 666 550 733 q 715 463 715 599 l 715 149 l 794 149 l 794 0 l 676 0 m 381 118 q 472 144 435 118 q 510 221 510 171 l 510 307 l 400 307 q 274 222 274 307 l 274 194 q 303 138 274 157 q 381 118 332 118 m 406 782 q 295 801 342 782 q 215 850 249 819 q 160 917 182 881 q 125 989 139 953 l 229 1054 l 258 1015 q 297 970 279 988 q 331 942 314 953 q 365 926 347 931 q 406 922 383 922 q 481 942 449 922 q 553 1015 513 961 l 582 1054 l 686 989 q 651 917 672 953 q 596 850 629 881 q 516 801 563 819 q 406 782 469 782 m 510 1081 q 453 1089 478 1081 q 403 1108 429 1097 q 347 1130 372 1121 q 294 1139 322 1139 q 253 1131 271 1139 q 213 1104 235 1122 l 143 1193 q 207 1256 168 1231 q 301 1282 246 1282 q 358 1274 333 1282 q 408 1254 382 1265 q 464 1233 439 1242 q 517 1224 489 1224 q 558 1232 540 1224 q 599 1258 576 1240 l 668 1169 q 604 1106 643 1132 q 510 1081 565 1081 z "},"ấ":{"ha":833,"x_min":72,"x_max":832,"o":"m 676 0 q 574 33 613 0 q 528 126 535 65 l 521 126 q 444 19 501 56 q 303 -17 386 -17 q 135 40 199 -17 q 72 197 72 96 q 154 364 72 310 q 394 418 236 418 l 510 418 l 510 454 q 480 551 510 518 q 379 583 450 583 q 274 558 314 583 q 204 493 233 533 l 92 593 q 205 694 128 654 q 403 733 282 733 q 633 666 550 733 q 715 463 715 599 l 715 149 l 794 149 l 794 0 l 676 0 m 381 118 q 472 144 435 118 q 510 221 510 171 l 510 307 l 400 307 q 274 222 274 307 l 274 194 q 303 138 274 157 q 381 118 332 118 m 646 1006 l 536 1060 l 674 1329 l 832 1250 l 646 1006 m 471 1072 l 672 868 l 575 779 l 403 924 l 231 779 l 139 868 l 340 1072 l 471 1072 z "},"ậ":{"ha":833,"x_min":72,"x_max":794,"o":"m 676 0 q 574 33 613 0 q 528 126 535 65 l 521 126 q 444 19 501 56 q 303 -17 386 -17 q 135 40 199 -17 q 72 197 72 96 q 154 364 72 310 q 394 418 236 418 l 510 418 l 510 454 q 480 551 510 518 q 379 583 450 583 q 274 558 314 583 q 204 493 233 533 l 92 593 q 205 694 128 654 q 403 733 282 733 q 633 666 550 733 q 715 463 715 599 l 715 149 l 794 149 l 794 0 l 676 0 m 381 118 q 472 144 435 118 q 510 221 510 171 l 510 307 l 400 307 q 274 222 274 307 l 274 194 q 303 138 274 157 q 381 118 332 118 m 493 1092 l 676 871 l 572 790 l 404 950 l 236 790 l 138 871 l 321 1092 l 493 1092 m 406 -282 q 318 -257 343 -282 q 293 -196 293 -232 l 293 -160 q 318 -97 293 -122 q 406 -72 343 -72 q 493 -97 468 -72 q 518 -160 518 -122 l 518 -196 q 493 -257 518 -232 q 406 -282 468 -282 z "},"ầ":{"ha":833,"x_min":-21,"x_max":794,"o":"m 676 0 q 574 33 613 0 q 528 126 535 65 l 521 126 q 444 19 501 56 q 303 -17 386 -17 q 135 40 199 -17 q 72 197 72 96 q 154 364 72 310 q 394 418 236 418 l 510 418 l 510 454 q 480 551 510 518 q 379 583 450 583 q 274 558 314 583 q 204 493 233 533 l 92 593 q 205 694 128 654 q 403 733 282 733 q 633 666 550 733 q 715 463 715 599 l 715 149 l 794 149 l 794 0 l 676 0 m 381 118 q 472 144 435 118 q 510 221 510 171 l 510 307 l 400 307 q 274 222 274 307 l 274 194 q 303 138 274 157 q 381 118 332 118 m -21 1250 l 138 1329 l 275 1060 l 165 1006 l -21 1250 m 471 1072 l 672 868 l 575 779 l 403 924 l 231 779 l 139 868 l 340 1072 l 471 1072 z "},"ẩ":{"ha":833,"x_min":72,"x_max":794,"o":"m 676 0 q 574 33 613 0 q 528 126 535 65 l 521 126 q 444 19 501 56 q 303 -17 386 -17 q 135 40 199 -17 q 72 197 72 96 q 154 364 72 310 q 394 418 236 418 l 510 418 l 510 454 q 480 551 510 518 q 379 583 450 583 q 274 558 314 583 q 204 493 233 533 l 92 593 q 205 694 128 654 q 403 733 282 733 q 633 666 550 733 q 715 463 715 599 l 715 149 l 794 149 l 794 0 l 676 0 m 381 118 q 472 144 435 118 q 510 221 510 171 l 510 307 l 400 307 q 274 222 274 307 l 274 194 q 303 138 274 157 q 381 118 332 118 m 458 1310 l 644 1310 q 709 1301 683 1310 q 751 1279 735 1293 q 774 1247 767 1265 q 781 1210 781 1229 q 754 1122 781 1168 q 693 1033 728 1075 l 656 988 l 564 1035 l 624 1169 l 458 1169 l 458 1310 m 471 1072 l 672 868 l 575 779 l 403 924 l 231 779 l 139 868 l 340 1072 l 471 1072 z "},"ẫ":{"ha":833,"x_min":72,"x_max":794,"o":"m 676 0 q 574 33 613 0 q 528 126 535 65 l 521 126 q 444 19 501 56 q 303 -17 386 -17 q 135 40 199 -17 q 72 197 72 96 q 154 364 72 310 q 394 418 236 418 l 510 418 l 510 454 q 480 551 510 518 q 379 583 450 583 q 274 558 314 583 q 204 493 233 533 l 92 593 q 205 694 128 654 q 403 733 282 733 q 633 666 550 733 q 715 463 715 599 l 715 149 l 794 149 l 794 0 l 676 0 m 381 118 q 472 144 435 118 q 510 221 510 171 l 510 307 l 400 307 q 274 222 274 307 l 274 194 q 303 138 274 157 q 381 118 332 118 m 301 1296 q 358 1288 333 1296 q 408 1268 382 1279 q 464 1247 439 1256 q 517 1238 489 1238 q 558 1246 540 1238 q 599 1272 576 1254 l 668 1183 q 604 1120 643 1146 q 510 1094 565 1094 q 453 1103 478 1094 q 403 1122 429 1111 q 347 1144 372 1135 q 294 1153 322 1153 q 253 1144 271 1153 q 213 1118 235 1136 l 143 1207 q 207 1270 168 1244 q 301 1296 246 1296 m 472 1054 l 669 868 l 576 779 l 404 911 l 232 779 l 142 868 l 339 1054 l 472 1054 z "},"æ":{"ha":833,"x_min":6,"x_max":811,"o":"m 190 -17 q 117 -3 151 -17 q 58 36 83 10 q 19 103 33 63 q 6 196 6 143 q 71 366 6 308 q 258 424 136 424 l 314 424 l 314 483 q 232 606 314 606 q 177 581 196 606 q 146 511 158 556 l 18 557 q 97 690 42 647 q 233 733 153 733 q 340 707 297 733 q 407 632 383 681 l 413 632 q 578 733 471 733 q 674 710 631 733 q 747 643 717 686 q 794 539 778 600 q 811 401 811 478 l 811 317 l 479 317 l 479 296 q 505 166 479 215 q 579 117 531 117 q 638 147 618 117 q 668 217 657 176 l 803 179 q 774 103 792 139 q 730 40 757 67 q 666 -1 703 14 q 582 -17 629 -17 q 449 22 508 -17 q 364 146 389 60 l 358 146 q 301 22 346 61 q 190 -17 257 -17 m 235 108 q 297 144 279 108 q 314 249 314 181 l 314 317 l 274 317 q 194 292 222 317 q 167 218 167 267 l 167 192 q 183 131 167 153 q 235 108 200 108 m 569 608 q 501 567 524 608 q 479 468 479 526 l 479 424 l 660 424 l 660 468 q 638 567 660 526 q 569 608 615 608 z "},"ǽ":{"ha":833,"x_min":6,"x_max":811,"o":"m 190 -17 q 117 -3 151 -17 q 58 36 83 10 q 19 103 33 63 q 6 196 6 143 q 71 366 6 308 q 258 424 136 424 l 314 424 l 314 483 q 232 606 314 606 q 177 581 196 606 q 146 511 158 556 l 18 557 q 97 690 42 647 q 233 733 153 733 q 340 707 297 733 q 407 632 383 681 l 413 632 q 578 733 471 733 q 674 710 631 733 q 747 643 717 686 q 794 539 778 600 q 811 401 811 478 l 811 317 l 479 317 l 479 296 q 505 166 479 215 q 579 117 531 117 q 638 147 618 117 q 668 217 657 176 l 803 179 q 774 103 792 139 q 730 40 757 67 q 666 -1 703 14 q 582 -17 629 -17 q 449 22 508 -17 q 364 146 389 60 l 358 146 q 301 22 346 61 q 190 -17 257 -17 m 235 108 q 297 144 279 108 q 314 249 314 181 l 314 317 l 274 317 q 194 292 222 317 q 167 218 167 267 l 167 192 q 183 131 167 153 q 235 108 200 108 m 569 608 q 501 567 524 608 q 479 468 479 526 l 479 424 l 660 424 l 660 468 q 638 567 660 526 q 569 608 615 608 m 438 792 l 315 851 l 453 1121 l 624 1036 l 438 792 z "},"ć":{"ha":833,"x_min":83,"x_max":754,"o":"m 446 -17 q 294 9 361 -17 q 180 83 226 35 q 108 201 133 132 q 83 358 83 271 q 108 515 83 446 q 180 633 133 585 q 294 708 226 682 q 444 733 361 733 q 634 685 563 733 q 743 558 706 638 l 585 472 q 534 542 565 514 q 444 569 503 569 q 335 528 374 569 q 297 417 297 488 l 297 300 q 335 188 297 229 q 447 147 374 147 q 541 175 507 147 q 599 247 575 203 l 754 158 q 641 31 715 79 q 446 -17 567 -17 m 458 792 l 336 851 l 474 1121 l 644 1036 l 458 792 z "},"č":{"ha":833,"x_min":83,"x_max":754,"o":"m 446 -17 q 294 9 361 -17 q 180 83 226 35 q 108 201 133 132 q 83 358 83 271 q 108 515 83 446 q 180 633 133 585 q 294 708 226 682 q 444 733 361 733 q 634 685 563 733 q 743 558 706 638 l 585 472 q 534 542 565 514 q 444 569 503 569 q 335 528 374 569 q 297 417 297 488 l 297 300 q 335 188 297 229 q 447 147 374 147 q 541 175 507 147 q 599 247 575 203 l 754 158 q 641 31 715 79 q 446 -17 567 -17 m 350 803 l 167 1024 l 271 1104 l 439 944 l 607 1104 l 706 1024 l 522 803 l 350 803 z "},"ç":{"ha":833,"x_min":83,"x_max":754,"o":"m 444 733 q 634 685 563 733 q 743 558 706 638 l 585 472 q 534 542 565 514 q 444 569 503 569 q 335 528 374 569 q 297 417 297 488 l 297 300 q 335 188 297 229 q 447 147 374 147 q 541 175 507 147 q 599 247 575 203 l 754 158 q 645 34 717 82 q 460 -17 574 -14 l 447 -76 l 453 -82 q 486 -75 469 -78 q 519 -72 503 -72 q 591 -94 561 -72 q 621 -168 621 -117 q 606 -228 621 -204 q 565 -267 590 -251 q 506 -288 539 -282 q 438 -294 472 -294 q 324 -274 365 -294 q 265 -233 283 -254 l 329 -156 q 366 -184 343 -172 q 421 -196 389 -196 q 465 -187 447 -196 q 482 -161 482 -179 q 478 -144 482 -153 q 462 -128 474 -136 q 430 -115 450 -121 q 378 -106 410 -108 l 349 -103 l 368 -10 q 158 108 233 13 q 83 358 83 204 q 108 515 83 446 q 180 633 133 585 q 294 708 226 682 q 444 733 361 733 z "},"ĉ":{"ha":833,"x_min":83,"x_max":754,"o":"m 446 -17 q 294 9 361 -17 q 180 83 226 35 q 108 201 133 132 q 83 358 83 271 q 108 515 83 446 q 180 633 133 585 q 294 708 226 682 q 444 733 361 733 q 634 685 563 733 q 743 558 706 638 l 585 472 q 534 542 565 514 q 444 569 503 569 q 335 528 374 569 q 297 417 297 488 l 297 300 q 335 188 297 229 q 447 147 374 147 q 541 175 507 147 q 599 247 575 203 l 754 158 q 641 31 715 79 q 446 -17 567 -17 m 522 1092 l 706 871 l 601 790 l 433 950 l 265 790 l 167 871 l 350 1092 l 522 1092 z "},"ċ":{"ha":833,"x_min":83,"x_max":754,"o":"m 446 -17 q 294 9 361 -17 q 180 83 226 35 q 108 201 133 132 q 83 358 83 271 q 108 515 83 446 q 180 633 133 585 q 294 708 226 682 q 444 733 361 733 q 634 685 563 733 q 743 558 706 638 l 585 472 q 534 542 565 514 q 444 569 503 569 q 335 528 374 569 q 297 417 297 488 l 297 300 q 335 188 297 229 q 447 147 374 147 q 541 175 507 147 q 599 247 575 203 l 754 158 q 641 31 715 79 q 446 -17 567 -17 m 436 808 q 340 837 367 808 q 313 906 313 865 l 313 946 q 340 1015 313 988 q 436 1043 367 1043 q 533 1015 506 1043 q 560 946 560 988 l 560 906 q 533 837 560 865 q 436 808 506 808 z "},"ď":{"ha":833,"x_min":38,"x_max":885,"o":"m 257 -17 q 96 74 154 -17 q 38 358 38 165 q 96 642 38 551 q 257 733 154 733 q 367 693 329 733 q 425 588 404 653 l 436 588 l 436 1028 l 632 1028 l 632 0 l 436 0 l 436 129 l 425 129 q 367 24 404 64 q 257 -17 329 -17 m 339 135 q 409 163 382 135 q 436 250 436 192 l 436 467 q 409 553 436 525 q 339 582 382 582 q 267 549 293 582 q 242 439 242 515 l 242 278 q 267 168 242 201 q 339 135 293 135 m 706 1028 l 885 1028 l 810 735 l 703 735 l 706 1028 z "},"đ":{"ha":833,"x_min":54,"x_max":828,"o":"m 546 131 l 536 131 q 459 24 508 65 q 324 -17 410 -17 q 215 6 264 -17 q 130 74 165 28 q 74 190 94 119 q 54 358 54 261 q 74 526 54 456 q 130 643 94 597 q 215 711 165 689 q 324 733 264 733 q 400 722 367 733 q 459 692 433 711 q 503 645 485 672 q 536 586 522 618 l 546 586 l 546 806 l 351 806 l 351 958 l 546 958 l 546 1028 l 751 1028 l 751 958 l 828 958 l 828 806 l 751 806 l 751 0 l 546 0 l 546 131 m 413 143 q 506 169 467 143 q 546 253 546 196 l 546 464 q 506 547 546 521 q 413 574 467 574 q 306 531 343 574 q 268 414 268 489 l 268 303 q 306 185 268 228 q 413 143 343 143 z "},"ð":{"ha":833,"x_min":56,"x_max":779,"o":"m 671 963 l 567 901 q 651 801 613 856 q 719 682 690 746 q 763 544 747 618 q 779 386 779 471 q 753 204 779 281 q 681 79 728 128 q 567 7 633 31 q 421 -17 501 -17 q 267 9 335 -17 q 152 82 199 35 q 81 197 106 129 q 56 351 56 265 q 76 492 56 429 q 133 601 96 556 q 221 670 169 646 q 336 694 272 694 q 468 659 415 694 q 554 561 521 624 l 567 567 q 507 691 547 631 q 408 808 467 751 l 281 733 l 210 817 l 324 883 q 217 960 274 924 q 99 1028 161 996 l 413 1028 q 448 1003 431 1017 q 483 976 465 990 l 601 1046 l 671 963 m 419 136 q 528 179 489 136 q 567 301 567 222 l 567 379 q 526 499 567 458 q 418 539 486 539 q 308 497 347 539 q 268 376 268 456 l 268 301 q 309 179 268 222 q 419 136 350 136 z "},"é":{"ha":833,"x_min":69,"x_max":764,"o":"m 436 -17 q 163 83 256 -17 q 69 356 69 183 q 94 513 69 443 q 163 633 118 583 q 273 708 208 682 q 418 733 338 733 q 563 708 499 733 q 671 635 626 682 q 740 520 715 588 q 764 369 764 453 l 764 308 l 274 308 l 274 296 q 317 184 274 226 q 443 142 360 142 q 553 166 507 142 q 632 231 599 190 l 743 110 q 626 21 701 58 q 436 -17 551 -17 m 419 586 q 313 545 353 586 q 274 435 274 504 l 274 424 l 563 424 l 563 435 q 524 546 563 506 q 419 586 486 586 m 440 792 l 318 851 l 456 1121 l 626 1036 l 440 792 z "},"ĕ":{"ha":833,"x_min":69,"x_max":764,"o":"m 436 -17 q 163 83 256 -17 q 69 356 69 183 q 94 513 69 443 q 163 633 118 583 q 273 708 208 682 q 418 733 338 733 q 563 708 499 733 q 671 635 626 682 q 740 520 715 588 q 764 369 764 453 l 764 308 l 274 308 l 274 296 q 317 184 274 226 q 443 142 360 142 q 553 166 507 142 q 632 231 599 190 l 743 110 q 626 21 701 58 q 436 -17 551 -17 m 419 586 q 313 545 353 586 q 274 435 274 504 l 274 424 l 563 424 l 563 435 q 524 546 563 506 q 419 586 486 586 m 418 792 q 310 815 356 792 q 234 872 265 838 q 182 949 203 907 q 149 1028 161 990 l 264 1086 l 293 1042 q 351 963 325 992 q 418 935 378 935 q 485 963 458 935 q 543 1042 511 992 l 572 1086 l 688 1028 q 654 949 675 990 q 602 872 633 907 q 526 815 571 838 q 418 792 481 792 z "},"ě":{"ha":833,"x_min":69,"x_max":764,"o":"m 436 -17 q 163 83 256 -17 q 69 356 69 183 q 94 513 69 443 q 163 633 118 583 q 273 708 208 682 q 418 733 338 733 q 563 708 499 733 q 671 635 626 682 q 740 520 715 588 q 764 369 764 453 l 764 308 l 274 308 l 274 296 q 317 184 274 226 q 443 142 360 142 q 553 166 507 142 q 632 231 599 190 l 743 110 q 626 21 701 58 q 436 -17 551 -17 m 419 586 q 313 545 353 586 q 274 435 274 504 l 274 424 l 563 424 l 563 435 q 524 546 563 506 q 419 586 486 586 m 332 803 l 149 1024 l 253 1104 l 421 944 l 589 1104 l 688 1024 l 504 803 l 332 803 z "},"ê":{"ha":833,"x_min":69,"x_max":764,"o":"m 436 -17 q 163 83 256 -17 q 69 356 69 183 q 94 513 69 443 q 163 633 118 583 q 273 708 208 682 q 418 733 338 733 q 563 708 499 733 q 671 635 626 682 q 740 520 715 588 q 764 369 764 453 l 764 308 l 274 308 l 274 296 q 317 184 274 226 q 443 142 360 142 q 553 166 507 142 q 632 231 599 190 l 743 110 q 626 21 701 58 q 436 -17 551 -17 m 419 586 q 313 545 353 586 q 274 435 274 504 l 274 424 l 563 424 l 563 435 q 524 546 563 506 q 419 586 486 586 m 504 1092 l 688 871 l 583 790 l 415 950 l 247 790 l 149 871 l 332 1092 l 504 1092 z "},"ë":{"ha":833,"x_min":69,"x_max":764,"o":"m 436 -17 q 163 83 256 -17 q 69 356 69 183 q 94 513 69 443 q 163 633 118 583 q 273 708 208 682 q 418 733 338 733 q 563 708 499 733 q 671 635 626 682 q 740 520 715 588 q 764 369 764 453 l 764 308 l 274 308 l 274 296 q 317 184 274 226 q 443 142 360 142 q 553 166 507 142 q 632 231 599 190 l 743 110 q 626 21 701 58 q 436 -17 551 -17 m 419 586 q 313 545 353 586 q 274 435 274 504 l 274 424 l 563 424 l 563 435 q 524 546 563 506 q 419 586 486 586 m 265 821 q 178 847 203 821 q 154 908 154 872 l 154 944 q 178 1006 154 981 q 265 1031 203 1031 q 353 1006 328 1031 q 378 944 378 981 l 378 908 q 353 847 378 872 q 265 821 328 821 m 571 821 q 483 847 508 821 q 458 908 458 872 l 458 944 q 483 1006 458 981 q 571 1031 508 1031 q 658 1006 633 1031 q 682 944 682 981 l 682 908 q 658 847 682 872 q 571 821 633 821 z "},"ė":{"ha":833,"x_min":69,"x_max":764,"o":"m 436 -17 q 163 83 256 -17 q 69 356 69 183 q 94 513 69 443 q 163 633 118 583 q 273 708 208 682 q 418 733 338 733 q 563 708 499 733 q 671 635 626 682 q 740 520 715 588 q 764 369 764 453 l 764 308 l 274 308 l 274 296 q 317 184 274 226 q 443 142 360 142 q 553 166 507 142 q 632 231 599 190 l 743 110 q 626 21 701 58 q 436 -17 551 -17 m 419 586 q 313 545 353 586 q 274 435 274 504 l 274 424 l 563 424 l 563 435 q 524 546 563 506 q 419 586 486 586 m 418 808 q 322 837 349 808 q 294 906 294 865 l 294 946 q 322 1015 294 988 q 418 1043 349 1043 q 515 1015 488 1043 q 542 946 542 988 l 542 906 q 515 837 542 865 q 418 808 488 808 z "},"ẹ":{"ha":833,"x_min":69,"x_max":764,"o":"m 436 -17 q 163 83 256 -17 q 69 356 69 183 q 94 513 69 443 q 163 633 118 583 q 273 708 208 682 q 418 733 338 733 q 563 708 499 733 q 671 635 626 682 q 740 520 715 588 q 764 369 764 453 l 764 308 l 274 308 l 274 296 q 317 184 274 226 q 443 142 360 142 q 553 166 507 142 q 632 231 599 190 l 743 110 q 626 21 701 58 q 436 -17 551 -17 m 419 586 q 313 545 353 586 q 274 435 274 504 l 274 424 l 563 424 l 563 435 q 524 546 563 506 q 419 586 486 586 m 425 -282 q 338 -257 363 -282 q 313 -196 313 -232 l 313 -160 q 338 -97 313 -122 q 425 -72 363 -72 q 513 -97 488 -72 q 538 -160 538 -122 l 538 -196 q 513 -257 538 -232 q 425 -282 488 -282 z "},"è":{"ha":833,"x_min":69,"x_max":764,"o":"m 436 -17 q 163 83 256 -17 q 69 356 69 183 q 94 513 69 443 q 163 633 118 583 q 273 708 208 682 q 418 733 338 733 q 563 708 499 733 q 671 635 626 682 q 740 520 715 588 q 764 369 764 453 l 764 308 l 274 308 l 274 296 q 317 184 274 226 q 443 142 360 142 q 553 166 507 142 q 632 231 599 190 l 743 110 q 626 21 701 58 q 436 -17 551 -17 m 419 586 q 313 545 353 586 q 274 435 274 504 l 274 424 l 563 424 l 563 435 q 524 546 563 506 q 419 586 486 586 m 210 1036 l 381 1121 l 518 851 l 396 792 l 210 1036 z "},"ẻ":{"ha":833,"x_min":69,"x_max":764,"o":"m 436 -17 q 163 83 256 -17 q 69 356 69 183 q 94 513 69 443 q 163 633 118 583 q 273 708 208 682 q 418 733 338 733 q 563 708 499 733 q 671 635 626 682 q 740 520 715 588 q 764 369 764 453 l 764 308 l 274 308 l 274 296 q 317 184 274 226 q 443 142 360 142 q 553 166 507 142 q 632 231 599 190 l 743 110 q 626 21 701 58 q 436 -17 551 -17 m 419 586 q 313 545 353 586 q 274 435 274 504 l 274 424 l 563 424 l 563 435 q 524 546 563 506 q 419 586 486 586 m 251 1101 l 450 1101 q 515 1093 489 1101 q 557 1071 542 1085 q 579 1039 572 1057 q 586 1000 586 1021 q 564 913 586 960 q 507 825 542 867 l 468 778 l 364 826 l 421 954 l 251 954 l 251 1101 z "},"ē":{"ha":833,"x_min":69,"x_max":764,"o":"m 436 -17 q 163 83 256 -17 q 69 356 69 183 q 94 513 69 443 q 163 633 118 583 q 273 708 208 682 q 418 733 338 733 q 563 708 499 733 q 671 635 626 682 q 740 520 715 588 q 764 369 764 453 l 764 308 l 274 308 l 274 296 q 317 184 274 226 q 443 142 360 142 q 553 166 507 142 q 632 231 599 190 l 743 110 q 626 21 701 58 q 436 -17 551 -17 m 419 586 q 313 545 353 586 q 274 435 274 504 l 274 424 l 563 424 l 563 435 q 524 546 563 506 q 419 586 486 586 m 206 997 l 631 997 l 631 854 l 206 854 l 206 997 z "},"ę":{"ha":833,"x_min":69,"x_max":764,"o":"m 504 -294 q 440 -288 471 -294 q 384 -269 408 -282 q 346 -233 360 -256 q 332 -178 332 -211 q 376 -85 332 -121 q 496 -17 419 -49 l 493 -10 q 424 -17 469 -17 q 278 8 343 -17 q 166 80 213 32 q 94 197 119 128 q 69 357 69 267 q 94 514 69 444 q 163 633 118 583 q 273 708 208 682 q 418 733 338 733 q 563 708 499 733 q 671 635 626 682 q 740 520 715 588 q 764 369 764 453 l 764 308 l 274 308 l 274 296 q 317 184 274 226 q 443 142 360 142 q 553 166 507 142 q 632 231 599 190 l 743 110 q 717 84 731 96 q 688 59 704 72 q 651 29 672 46 q 600 -10 629 13 q 538 -58 563 -39 q 499 -92 514 -78 q 477 -119 483 -107 q 471 -146 471 -132 q 487 -182 471 -172 q 524 -192 503 -192 q 567 -181 549 -192 q 600 -153 585 -169 l 674 -224 q 613 -276 656 -257 q 504 -294 571 -294 m 563 424 l 563 435 q 524 546 563 506 q 419 586 486 586 q 313 545 353 586 q 274 435 274 504 l 274 424 l 563 424 z "},"ẽ":{"ha":833,"x_min":69,"x_max":764,"o":"m 436 -17 q 163 83 256 -17 q 69 356 69 183 q 94 513 69 443 q 163 633 118 583 q 273 708 208 682 q 418 733 338 733 q 563 708 499 733 q 671 635 626 682 q 740 520 715 588 q 764 369 764 453 l 764 308 l 274 308 l 274 296 q 317 184 274 226 q 443 142 360 142 q 553 166 507 142 q 632 231 599 190 l 743 110 q 626 21 701 58 q 436 -17 551 -17 m 419 586 q 313 545 353 586 q 274 435 274 504 l 274 424 l 563 424 l 563 435 q 524 546 563 506 q 419 586 486 586 m 524 822 q 467 831 492 822 q 417 850 443 839 q 361 872 386 863 q 308 881 336 881 q 267 872 285 881 q 226 846 249 864 l 154 940 q 218 1003 179 978 q 313 1029 257 1029 q 369 1021 344 1029 q 419 1001 393 1013 q 475 980 450 989 q 528 971 500 971 q 569 979 551 971 q 610 1006 588 988 l 682 911 q 618 848 657 874 q 524 822 579 822 z "},"ế":{"ha":833,"x_min":69,"x_max":844,"o":"m 436 -17 q 163 83 256 -17 q 69 356 69 183 q 94 513 69 443 q 163 633 118 583 q 273 708 208 682 q 418 733 338 733 q 563 708 499 733 q 671 635 626 682 q 740 520 715 588 q 764 369 764 453 l 764 308 l 274 308 l 274 296 q 317 184 274 226 q 443 142 360 142 q 553 166 507 142 q 632 231 599 190 l 743 110 q 626 21 701 58 q 436 -17 551 -17 m 419 586 q 313 545 353 586 q 274 435 274 504 l 274 424 l 563 424 l 563 435 q 524 546 563 506 q 419 586 486 586 m 658 1006 l 549 1060 l 686 1329 l 844 1250 l 658 1006 m 483 1072 l 685 868 l 588 779 l 415 924 l 243 779 l 151 868 l 353 1072 l 483 1072 z "},"ệ":{"ha":833,"x_min":69,"x_max":764,"o":"m 436 -17 q 163 83 256 -17 q 69 356 69 183 q 94 513 69 443 q 163 633 118 583 q 273 708 208 682 q 418 733 338 733 q 563 708 499 733 q 671 635 626 682 q 740 520 715 588 q 764 369 764 453 l 764 308 l 274 308 l 274 296 q 317 184 274 226 q 443 142 360 142 q 553 166 507 142 q 632 231 599 190 l 743 110 q 626 21 701 58 q 436 -17 551 -17 m 419 586 q 313 545 353 586 q 274 435 274 504 l 274 424 l 563 424 l 563 435 q 524 546 563 506 q 419 586 486 586 m 504 1092 l 688 871 l 583 790 l 415 950 l 247 790 l 149 871 l 332 1092 l 504 1092 m 425 -282 q 338 -257 363 -282 q 313 -196 313 -232 l 313 -160 q 338 -97 313 -122 q 425 -72 363 -72 q 513 -97 488 -72 q 538 -160 538 -122 l 538 -196 q 513 -257 538 -232 q 425 -282 488 -282 z "},"ề":{"ha":833,"x_min":-8,"x_max":764,"o":"m 436 -17 q 163 83 256 -17 q 69 356 69 183 q 94 513 69 443 q 163 633 118 583 q 273 708 208 682 q 418 733 338 733 q 563 708 499 733 q 671 635 626 682 q 740 520 715 588 q 764 369 764 453 l 764 308 l 274 308 l 274 296 q 317 184 274 226 q 443 142 360 142 q 553 166 507 142 q 632 231 599 190 l 743 110 q 626 21 701 58 q 436 -17 551 -17 m 419 586 q 313 545 353 586 q 274 435 274 504 l 274 424 l 563 424 l 563 435 q 524 546 563 506 q 419 586 486 586 m -8 1250 l 150 1329 l 288 1060 l 178 1006 l -8 1250 m 483 1072 l 685 868 l 588 779 l 415 924 l 243 779 l 151 868 l 353 1072 l 483 1072 z "},"ể":{"ha":833,"x_min":69,"x_max":793,"o":"m 436 -17 q 163 83 256 -17 q 69 356 69 183 q 94 513 69 443 q 163 633 118 583 q 273 708 208 682 q 418 733 338 733 q 563 708 499 733 q 671 635 626 682 q 740 520 715 588 q 764 369 764 453 l 764 308 l 274 308 l 274 296 q 317 184 274 226 q 443 142 360 142 q 553 166 507 142 q 632 231 599 190 l 743 110 q 626 21 701 58 q 436 -17 551 -17 m 419 586 q 313 545 353 586 q 274 435 274 504 l 274 424 l 563 424 l 563 435 q 524 546 563 506 q 419 586 486 586 m 471 1310 l 657 1310 q 722 1301 696 1310 q 763 1279 747 1293 q 786 1247 779 1265 q 793 1210 793 1229 q 767 1122 793 1168 q 706 1033 740 1075 l 668 988 l 576 1035 l 636 1169 l 471 1169 l 471 1310 m 483 1072 l 685 868 l 588 779 l 415 924 l 243 779 l 151 868 l 353 1072 l 483 1072 z "},"ễ":{"ha":833,"x_min":69,"x_max":764,"o":"m 436 -17 q 163 83 256 -17 q 69 356 69 183 q 94 513 69 443 q 163 633 118 583 q 273 708 208 682 q 418 733 338 733 q 563 708 499 733 q 671 635 626 682 q 740 520 715 588 q 764 369 764 453 l 764 308 l 274 308 l 274 296 q 317 184 274 226 q 443 142 360 142 q 553 166 507 142 q 632 231 599 190 l 743 110 q 626 21 701 58 q 436 -17 551 -17 m 419 586 q 313 545 353 586 q 274 435 274 504 l 274 424 l 563 424 l 563 435 q 524 546 563 506 q 419 586 486 586 m 314 1296 q 370 1288 346 1296 q 421 1268 394 1279 q 476 1247 451 1256 q 529 1238 501 1238 q 571 1246 553 1238 q 611 1272 589 1254 l 681 1183 q 617 1120 656 1146 q 522 1094 578 1094 q 466 1103 490 1094 q 415 1122 442 1111 q 360 1144 385 1135 q 307 1153 335 1153 q 265 1144 283 1153 q 225 1118 247 1136 l 156 1207 q 219 1270 181 1244 q 314 1296 258 1296 m 485 1054 l 682 868 l 589 779 l 417 911 l 244 779 l 154 868 l 351 1054 l 485 1054 z "},"ə":{"ha":833,"x_min":69,"x_max":764,"o":"m 560 408 l 560 421 q 517 533 560 490 q 390 575 474 575 q 281 551 326 575 q 201 486 235 526 l 90 607 q 207 696 132 658 q 397 733 282 733 q 671 633 578 733 q 764 361 764 533 q 740 203 764 274 q 670 84 715 133 q 560 9 625 35 q 415 -17 496 -17 q 271 9 335 -17 q 162 82 207 35 q 93 197 117 129 q 69 347 69 264 l 69 408 l 560 408 m 271 282 q 309 171 271 211 q 414 131 347 131 q 520 172 481 131 q 560 282 560 213 l 560 293 l 271 293 l 271 282 z "},"ğ":{"ha":833,"x_min":65,"x_max":810,"o":"m 413 -294 q 243 -283 310 -294 q 137 -249 176 -271 q 81 -196 97 -226 q 65 -129 65 -165 q 101 -37 65 -68 q 203 11 138 -6 l 203 19 q 130 59 157 33 q 103 132 103 85 q 138 210 103 185 q 232 249 174 235 l 232 257 q 133 344 168 289 q 97 479 97 400 q 183 669 97 604 q 411 733 268 733 q 538 717 481 733 l 807 717 l 807 581 l 692 581 q 715 533 708 558 q 722 475 722 507 q 700 367 722 414 q 636 288 678 321 q 537 239 594 256 q 408 222 479 222 q 347 226 376 222 q 292 236 318 229 q 266 215 276 228 q 256 183 256 203 q 264 157 256 167 q 287 142 272 147 q 321 136 301 138 q 361 135 340 135 l 525 135 q 656 119 601 135 q 744 76 710 104 q 794 11 779 49 q 810 -72 810 -26 q 714 -240 810 -186 q 413 -294 618 -294 m 408 353 q 499 383 471 353 q 528 461 528 414 l 528 494 q 499 572 528 542 q 408 603 471 603 q 319 572 347 603 q 292 494 292 542 l 292 461 q 319 383 292 414 q 408 353 347 353 m 615 -87 q 593 -44 615 -60 q 508 -28 571 -28 l 263 -28 q 235 -86 235 -51 q 263 -141 235 -119 q 360 -162 292 -162 l 481 -162 q 583 -143 551 -162 q 615 -87 615 -124 m 410 792 q 302 815 347 792 q 226 872 257 838 q 174 949 194 907 q 140 1028 153 990 l 256 1086 l 285 1042 q 343 963 317 992 q 410 935 369 935 q 476 963 450 935 q 535 1042 503 992 l 564 1086 l 679 1028 q 646 949 667 990 q 594 872 625 907 q 517 815 563 838 q 410 792 472 792 z "},"ĝ":{"ha":833,"x_min":65,"x_max":810,"o":"m 413 -294 q 243 -283 310 -294 q 137 -249 176 -271 q 81 -196 97 -226 q 65 -129 65 -165 q 101 -37 65 -68 q 203 11 138 -6 l 203 19 q 130 59 157 33 q 103 132 103 85 q 138 210 103 185 q 232 249 174 235 l 232 257 q 133 344 168 289 q 97 479 97 400 q 183 669 97 604 q 411 733 268 733 q 538 717 481 733 l 807 717 l 807 581 l 692 581 q 715 533 708 558 q 722 475 722 507 q 700 367 722 414 q 636 288 678 321 q 537 239 594 256 q 408 222 479 222 q 347 226 376 222 q 292 236 318 229 q 266 215 276 228 q 256 183 256 203 q 264 157 256 167 q 287 142 272 147 q 321 136 301 138 q 361 135 340 135 l 525 135 q 656 119 601 135 q 744 76 710 104 q 794 11 779 49 q 810 -72 810 -26 q 714 -240 810 -186 q 413 -294 618 -294 m 408 353 q 499 383 471 353 q 528 461 528 414 l 528 494 q 499 572 528 542 q 408 603 471 603 q 319 572 347 603 q 292 494 292 542 l 292 461 q 319 383 292 414 q 408 353 347 353 m 615 -87 q 593 -44 615 -60 q 508 -28 571 -28 l 263 -28 q 235 -86 235 -51 q 263 -141 235 -119 q 360 -162 292 -162 l 481 -162 q 583 -143 551 -162 q 615 -87 615 -124 m 496 1092 l 679 871 l 575 790 l 407 950 l 239 790 l 140 871 l 324 1092 l 496 1092 z "},"ģ":{"ha":833,"x_min":65,"x_max":810,"o":"m 810 -72 q 714 -240 810 -186 q 413 -294 618 -294 q 243 -283 310 -294 q 137 -249 176 -271 q 81 -196 97 -226 q 65 -129 65 -165 q 101 -37 65 -68 q 203 11 138 -6 l 203 19 q 130 59 157 33 q 103 132 103 85 q 138 210 103 185 q 232 249 174 235 l 232 257 q 133 343 168 288 q 97 478 97 399 q 119 588 97 540 q 183 668 142 636 q 281 717 224 700 q 408 733 338 733 q 535 718 476 733 l 535 757 q 564 826 535 799 q 644 854 593 854 l 771 854 l 771 704 l 599 704 l 599 692 q 690 608 657 661 q 722 478 722 554 q 700 368 722 415 q 636 288 678 321 q 537 239 594 256 q 408 222 479 222 q 347 226 376 222 q 292 236 318 229 q 266 215 276 228 q 256 183 256 203 q 264 157 256 167 q 287 142 272 147 q 321 136 301 138 q 361 135 340 135 l 525 135 q 656 119 601 135 q 744 76 710 104 q 794 11 779 49 q 810 -72 810 -26 m 615 -87 q 593 -44 615 -60 q 508 -28 571 -28 l 263 -28 q 235 -86 235 -51 q 263 -141 235 -119 q 360 -162 292 -162 l 481 -162 q 583 -143 551 -162 q 615 -87 615 -124 m 408 353 q 499 383 471 353 q 528 461 528 414 l 528 494 q 499 572 528 542 q 408 603 471 603 q 319 572 347 603 q 292 494 292 542 l 292 461 q 319 383 292 414 q 408 353 347 353 m 421 1103 l 543 1103 l 518 804 l 300 804 l 421 1103 z "},"ġ":{"ha":833,"x_min":65,"x_max":810,"o":"m 810 -72 q 714 -240 810 -186 q 413 -294 618 -294 q 243 -283 310 -294 q 137 -249 176 -271 q 81 -196 97 -226 q 65 -129 65 -165 q 101 -37 65 -68 q 203 11 138 -6 l 203 19 q 130 59 157 33 q 103 132 103 85 q 138 210 103 185 q 232 249 174 235 l 232 257 q 133 343 168 288 q 97 478 97 399 q 119 588 97 540 q 183 668 142 636 q 281 717 224 700 q 408 733 338 733 q 535 718 476 733 l 535 757 q 564 826 535 799 q 644 854 593 854 l 771 854 l 771 704 l 599 704 l 599 692 q 690 608 657 661 q 722 478 722 554 q 700 368 722 415 q 636 288 678 321 q 537 239 594 256 q 408 222 479 222 q 347 226 376 222 q 292 236 318 229 q 266 215 276 228 q 256 183 256 203 q 264 157 256 167 q 287 142 272 147 q 321 136 301 138 q 361 135 340 135 l 525 135 q 656 119 601 135 q 744 76 710 104 q 794 11 779 49 q 810 -72 810 -26 m 615 -87 q 593 -44 615 -60 q 508 -28 571 -28 l 263 -28 q 235 -86 235 -51 q 263 -141 235 -119 q 360 -162 292 -162 l 481 -162 q 583 -143 551 -162 q 615 -87 615 -124 m 408 353 q 499 383 471 353 q 528 461 528 414 l 528 494 q 499 572 528 542 q 408 603 471 603 q 319 572 347 603 q 292 494 292 542 l 292 461 q 319 383 292 414 q 408 353 347 353 m 410 808 q 313 837 340 808 q 286 906 286 865 l 286 946 q 313 1015 286 988 q 410 1043 340 1043 q 506 1015 479 1043 q 533 946 533 988 l 533 906 q 506 837 533 865 q 410 808 479 808 z "},"ħ":{"ha":833,"x_min":13,"x_max":749,"o":"m 90 0 l 90 806 l 13 806 l 13 958 l 90 958 l 90 1028 l 296 1028 l 296 958 l 490 958 l 490 806 l 296 806 l 296 586 l 304 586 q 335 643 317 617 q 378 690 353 669 q 438 722 404 710 q 515 733 472 733 q 610 716 567 733 q 683 664 653 699 q 731 579 714 629 q 749 464 749 529 l 749 0 l 543 0 l 543 436 q 422 575 543 575 q 376 569 399 575 q 335 549 353 563 q 306 517 317 536 q 296 471 296 497 l 296 0 l 90 0 z "},"ĥ":{"ha":833,"x_min":-75,"x_max":749,"o":"m 90 1028 l 296 1028 l 296 586 l 304 586 q 335 643 317 617 q 378 690 353 669 q 438 722 404 710 q 515 733 472 733 q 610 716 567 733 q 683 664 653 699 q 731 579 714 629 q 749 464 749 529 l 749 0 l 543 0 l 543 436 q 422 575 543 575 q 376 569 399 575 q 335 549 353 563 q 306 517 317 536 q 296 471 296 497 l 296 0 l 90 0 l 90 1028 m 281 1344 l 464 1124 l 360 1043 l 192 1203 l 24 1043 l -75 1124 l 108 1344 l 281 1344 z "},"ı":{"ha":833,"x_min":131,"x_max":775,"o":"m 131 160 l 358 160 l 358 557 l 131 557 l 131 717 l 564 717 l 564 160 l 775 160 l 775 0 l 131 0 l 131 160 z "},"í":{"ha":833,"x_min":131,"x_max":775,"o":"m 131 160 l 358 160 l 358 557 l 131 557 l 131 717 l 564 717 l 564 160 l 775 160 l 775 0 l 131 0 l 131 160 m 483 792 l 361 851 l 499 1121 l 669 1036 l 483 792 z "},"ĭ":{"ha":833,"x_min":131,"x_max":775,"o":"m 131 160 l 358 160 l 358 557 l 131 557 l 131 717 l 564 717 l 564 160 l 775 160 l 775 0 l 131 0 l 131 160 m 461 792 q 353 815 399 792 q 277 872 308 838 q 225 949 246 907 q 192 1028 204 990 l 307 1086 l 336 1042 q 394 963 368 992 q 461 935 421 935 q 528 963 501 935 q 586 1042 554 992 l 615 1086 l 731 1028 q 697 949 718 990 q 645 872 676 907 q 569 815 614 838 q 461 792 524 792 z "},"î":{"ha":833,"x_min":131,"x_max":775,"o":"m 131 160 l 358 160 l 358 557 l 131 557 l 131 717 l 564 717 l 564 160 l 775 160 l 775 0 l 131 0 l 131 160 m 547 1092 l 731 871 l 626 790 l 458 950 l 290 790 l 192 871 l 375 1092 l 547 1092 z "},"ï":{"ha":833,"x_min":131,"x_max":775,"o":"m 131 160 l 358 160 l 358 557 l 131 557 l 131 717 l 564 717 l 564 160 l 775 160 l 775 0 l 131 0 l 131 160 m 308 821 q 222 847 246 821 q 197 908 197 872 l 197 944 q 222 1006 197 981 q 308 1031 246 1031 q 396 1006 371 1031 q 421 944 421 981 l 421 908 q 396 847 421 872 q 308 821 371 821 m 614 821 q 526 847 551 821 q 501 908 501 872 l 501 944 q 526 1006 501 981 q 614 1031 551 1031 q 701 1006 676 1031 q 725 944 725 981 l 725 908 q 701 847 725 872 q 614 821 676 821 z "},"ị":{"ha":833,"x_min":131,"x_max":775,"o":"m 461 808 q 365 837 392 808 q 338 906 338 865 l 338 946 q 365 1015 338 988 q 461 1043 392 1043 q 558 1015 531 1043 q 585 946 585 988 l 585 906 q 558 837 585 865 q 461 808 531 808 m 131 160 l 358 160 l 358 557 l 131 557 l 131 717 l 564 717 l 564 160 l 775 160 l 775 0 l 131 0 l 131 160 m 461 -282 q 374 -257 399 -282 q 349 -196 349 -232 l 349 -160 q 374 -97 349 -122 q 461 -72 399 -72 q 549 -97 524 -72 q 574 -160 574 -122 l 574 -196 q 549 -257 574 -232 q 461 -282 524 -282 z "},"ì":{"ha":833,"x_min":131,"x_max":775,"o":"m 131 160 l 358 160 l 358 557 l 131 557 l 131 717 l 564 717 l 564 160 l 775 160 l 775 0 l 131 0 l 131 160 m 253 1036 l 424 1121 l 561 851 l 439 792 l 253 1036 z "},"ỉ":{"ha":833,"x_min":131,"x_max":775,"o":"m 131 160 l 358 160 l 358 557 l 131 557 l 131 717 l 564 717 l 564 160 l 775 160 l 775 0 l 131 0 l 131 160 m 294 1101 l 493 1101 q 558 1093 532 1101 q 600 1071 585 1085 q 622 1039 615 1057 q 629 1000 629 1021 q 607 913 629 960 q 550 825 585 867 l 511 778 l 407 826 l 464 954 l 294 954 l 294 1101 z "},"ī":{"ha":833,"x_min":131,"x_max":775,"o":"m 131 160 l 358 160 l 358 557 l 131 557 l 131 717 l 564 717 l 564 160 l 775 160 l 775 0 l 131 0 l 131 160 m 249 997 l 674 997 l 674 854 l 249 854 l 249 997 z "},"į":{"ha":833,"x_min":131,"x_max":819,"o":"m 650 -294 q 584 -288 615 -294 q 529 -269 553 -282 q 492 -233 506 -256 q 478 -176 478 -210 q 522 -80 478 -118 q 643 -6 565 -42 l 642 0 l 131 0 l 131 160 l 358 160 l 358 557 l 131 557 l 131 717 l 564 717 l 564 160 l 775 160 l 775 0 q 692 -53 724 -32 q 644 -92 661 -75 q 622 -121 628 -108 q 617 -146 617 -133 q 633 -182 617 -172 q 669 -192 649 -192 q 713 -181 694 -192 q 746 -153 731 -169 l 819 -224 q 759 -276 801 -257 q 650 -294 717 -294 m 461 808 q 365 837 392 808 q 338 906 338 865 l 338 946 q 365 1015 338 988 q 461 1043 392 1043 q 558 1015 531 1043 q 585 946 585 988 l 585 906 q 558 837 585 865 q 461 808 531 808 z "},"ĩ":{"ha":833,"x_min":131,"x_max":775,"o":"m 131 160 l 358 160 l 358 557 l 131 557 l 131 717 l 564 717 l 564 160 l 775 160 l 775 0 l 131 0 l 131 160 m 567 822 q 510 831 535 822 q 460 850 486 839 q 404 872 429 863 q 351 881 379 881 q 310 872 328 881 q 269 846 292 864 l 197 940 q 261 1003 222 978 q 356 1029 300 1029 q 412 1021 388 1029 q 463 1001 436 1013 q 518 980 493 989 q 571 971 543 971 q 613 979 594 971 q 653 1006 631 988 l 725 911 q 661 848 700 874 q 567 822 622 822 z "},"ĳ":{"ha":833,"x_min":82,"x_max":751,"o":"m 103 717 l 308 717 l 308 0 l 103 0 l 103 717 m 308 -118 l 525 -118 l 525 717 l 731 717 l 731 -71 q 676 -219 731 -161 q 511 -278 622 -278 l 308 -278 l 308 -118 m 206 808 q 109 837 136 808 q 82 906 82 865 l 82 946 q 109 1015 82 988 q 206 1043 136 1043 q 303 1015 276 1043 q 331 946 331 988 l 331 906 q 303 837 331 865 q 206 808 276 808 m 628 808 q 530 837 557 808 q 503 906 503 865 l 503 946 q 530 1015 503 988 q 628 1043 557 1043 q 724 1015 697 1043 q 751 946 751 988 l 751 906 q 724 837 751 865 q 628 808 697 808 z "},"ȷ":{"ha":833,"x_min":125,"x_max":608,"o":"m 128 -118 l 403 -118 l 403 557 l 125 557 l 125 717 l 608 717 l 608 -71 q 554 -219 608 -161 q 390 -278 500 -278 l 128 -278 l 128 -118 z "},"ĵ":{"ha":833,"x_min":125,"x_max":775,"o":"m 128 -118 l 403 -118 l 403 557 l 125 557 l 125 717 l 608 717 l 608 -71 q 554 -219 608 -161 q 390 -278 500 -278 l 128 -278 l 128 -118 m 592 1092 l 775 871 l 671 790 l 503 950 l 335 790 l 236 871 l 419 1092 l 592 1092 z "},"ķ":{"ha":833,"x_min":90,"x_max":817,"o":"m 90 1028 l 296 1028 l 296 444 l 306 444 l 401 557 l 551 717 l 788 717 l 510 433 l 817 0 l 572 0 l 364 317 l 296 249 l 296 0 l 90 0 l 90 1028 m 319 -75 l 538 -75 l 417 -374 l 294 -374 l 319 -75 z "},"ĸ":{"ha":833,"x_min":90,"x_max":817,"o":"m 364 317 l 296 249 l 296 0 l 90 0 l 90 717 l 296 717 l 296 428 l 306 428 l 401 557 l 551 717 l 788 717 l 510 433 l 817 0 l 572 0 l 364 317 z "},"ĺ":{"ha":833,"x_min":94,"x_max":739,"o":"m 94 160 l 314 160 l 314 868 l 94 868 l 94 1028 l 519 1028 l 519 160 l 739 160 l 739 0 l 94 0 l 94 160 m 439 1044 l 317 1104 l 454 1374 l 625 1289 l 439 1044 z "},"ľ":{"ha":833,"x_min":94,"x_max":833,"o":"m 94 160 l 314 160 l 314 868 l 94 868 l 94 1028 l 519 1028 l 519 160 l 739 160 l 739 0 l 94 0 l 94 160 m 742 729 l 607 729 l 615 1028 l 833 1028 l 742 729 z "},"ļ":{"ha":833,"x_min":94,"x_max":739,"o":"m 94 160 l 314 160 l 314 868 l 94 868 l 94 1028 l 519 1028 l 519 160 l 739 160 l 739 0 l 94 0 l 94 160 m 308 -75 l 526 -75 l 406 -374 l 283 -374 l 308 -75 z "},"ŀ":{"ha":833,"x_min":75,"x_max":833,"o":"m 75 160 l 294 160 l 294 868 l 75 868 l 75 1028 l 500 1028 l 500 160 l 719 160 l 719 0 l 75 0 l 75 160 m 710 311 q 613 340 640 311 q 586 408 586 368 l 586 449 q 613 518 586 490 q 710 546 640 546 q 806 518 779 546 q 833 449 833 490 l 833 408 q 806 340 833 368 q 710 311 779 311 z "},"ł":{"ha":833,"x_min":94,"x_max":739,"o":"m 94 160 l 314 160 l 314 356 l 135 297 l 135 449 l 314 507 l 314 868 l 94 868 l 94 1028 l 519 1028 l 519 569 l 699 628 l 699 476 l 519 418 l 519 160 l 739 160 l 739 0 l 94 0 l 94 160 z "},"ń":{"ha":833,"x_min":90,"x_max":749,"o":"m 90 0 l 90 717 l 296 717 l 296 586 l 304 586 q 335 643 317 617 q 378 690 353 669 q 438 722 404 710 q 515 733 472 733 q 610 716 567 733 q 683 664 653 699 q 731 579 714 629 q 749 464 749 529 l 749 0 l 543 0 l 543 436 q 422 575 543 575 q 376 569 399 575 q 335 549 353 563 q 306 517 317 536 q 296 471 296 497 l 296 0 l 90 0 m 442 792 l 319 851 l 457 1121 l 628 1036 l 442 792 z "},"ň":{"ha":833,"x_min":90,"x_max":749,"o":"m 90 0 l 90 717 l 296 717 l 296 586 l 304 586 q 335 643 317 617 q 378 690 353 669 q 438 722 404 710 q 515 733 472 733 q 610 716 567 733 q 683 664 653 699 q 731 579 714 629 q 749 464 749 529 l 749 0 l 543 0 l 543 436 q 422 575 543 575 q 376 569 399 575 q 335 549 353 563 q 306 517 317 536 q 296 471 296 497 l 296 0 l 90 0 m 333 803 l 150 1024 l 254 1104 l 422 944 l 590 1104 l 689 1024 l 506 803 l 333 803 z "},"ņ":{"ha":833,"x_min":90,"x_max":749,"o":"m 90 0 l 90 717 l 296 717 l 296 586 l 304 586 q 335 643 317 617 q 378 690 353 669 q 438 722 404 710 q 515 733 472 733 q 610 716 567 733 q 683 664 653 699 q 731 579 714 629 q 749 464 749 529 l 749 0 l 543 0 l 543 436 q 422 575 543 575 q 376 569 399 575 q 335 549 353 563 q 306 517 317 536 q 296 471 296 497 l 296 0 l 90 0 m 311 -75 l 529 -75 l 408 -374 l 286 -374 l 311 -75 z "},"ñ":{"ha":833,"x_min":90,"x_max":749,"o":"m 90 0 l 90 717 l 296 717 l 296 586 l 304 586 q 335 643 317 617 q 378 690 353 669 q 438 722 404 710 q 515 733 472 733 q 610 716 567 733 q 683 664 653 699 q 731 579 714 629 q 749 464 749 529 l 749 0 l 543 0 l 543 436 q 422 575 543 575 q 376 569 399 575 q 335 549 353 563 q 306 517 317 536 q 296 471 296 497 l 296 0 l 90 0 m 525 822 q 469 831 493 822 q 418 850 444 839 q 363 872 388 863 q 310 881 338 881 q 268 872 286 881 q 228 846 250 864 l 156 940 q 219 1003 181 978 q 314 1029 258 1029 q 370 1021 346 1029 q 421 1001 394 1013 q 476 980 451 989 q 529 971 501 971 q 571 979 553 971 q 611 1006 589 988 l 683 911 q 619 848 658 874 q 525 822 581 822 z "},"ŉ":{"ha":833,"x_min":0,"x_max":763,"o":"m 154 717 l 349 717 l 349 586 l 357 586 q 385 643 368 617 q 426 690 401 669 q 482 722 450 710 q 556 733 514 733 q 706 669 649 733 q 763 475 763 606 l 763 0 l 568 0 l 568 436 q 542 545 568 507 q 463 583 515 583 q 383 556 418 583 q 349 471 349 528 l 349 0 l 154 0 l 154 717 m 8 1028 l 188 1028 l 96 735 l 0 735 l 8 1028 z "},"ŋ":{"ha":833,"x_min":90,"x_max":749,"o":"m 296 -118 l 543 -118 l 543 436 q 422 575 543 575 q 376 569 399 575 q 335 549 353 563 q 306 517 317 536 q 296 471 296 497 l 296 0 l 90 0 l 90 717 l 296 717 l 296 586 l 304 586 q 335 643 317 617 q 378 690 353 669 q 438 722 404 710 q 515 733 472 733 q 610 716 567 733 q 683 664 653 699 q 731 579 714 629 q 749 464 749 529 l 749 -71 q 695 -219 749 -161 q 531 -278 642 -278 l 296 -278 l 296 -118 z "},"ó":{"ha":833,"x_min":57,"x_max":776,"o":"m 417 -17 q 267 9 333 -17 q 153 83 200 35 q 82 201 107 132 q 57 358 57 271 q 82 515 57 446 q 153 633 107 585 q 267 708 200 682 q 417 733 333 733 q 567 708 500 733 q 680 633 633 682 q 751 515 726 585 q 776 358 776 446 q 751 201 776 271 q 680 83 726 132 q 567 9 633 35 q 417 -17 500 -17 m 417 136 q 525 179 486 136 q 564 301 564 222 l 564 415 q 525 538 564 494 q 417 581 486 581 q 308 538 347 581 q 269 415 269 494 l 269 301 q 308 179 269 222 q 417 136 347 136 m 439 792 l 317 851 l 454 1121 l 625 1036 l 439 792 z "},"ŏ":{"ha":833,"x_min":57,"x_max":776,"o":"m 417 -17 q 267 9 333 -17 q 153 83 200 35 q 82 201 107 132 q 57 358 57 271 q 82 515 57 446 q 153 633 107 585 q 267 708 200 682 q 417 733 333 733 q 567 708 500 733 q 680 633 633 682 q 751 515 726 585 q 776 358 776 446 q 751 201 776 271 q 680 83 726 132 q 567 9 633 35 q 417 -17 500 -17 m 417 136 q 525 179 486 136 q 564 301 564 222 l 564 415 q 525 538 564 494 q 417 581 486 581 q 308 538 347 581 q 269 415 269 494 l 269 301 q 308 179 269 222 q 417 136 347 136 m 417 792 q 309 815 354 792 q 233 872 264 838 q 181 949 201 907 q 147 1028 160 990 l 263 1086 l 292 1042 q 350 963 324 992 q 417 935 376 935 q 483 963 457 935 q 542 1042 510 992 l 571 1086 l 686 1028 q 653 949 674 990 q 601 872 632 907 q 524 815 569 838 q 417 792 479 792 z "},"ô":{"ha":833,"x_min":57,"x_max":776,"o":"m 417 -17 q 267 9 333 -17 q 153 83 200 35 q 82 201 107 132 q 57 358 57 271 q 82 515 57 446 q 153 633 107 585 q 267 708 200 682 q 417 733 333 733 q 567 708 500 733 q 680 633 633 682 q 751 515 726 585 q 776 358 776 446 q 751 201 776 271 q 680 83 726 132 q 567 9 633 35 q 417 -17 500 -17 m 417 136 q 525 179 486 136 q 564 301 564 222 l 564 415 q 525 538 564 494 q 417 581 486 581 q 308 538 347 581 q 269 415 269 494 l 269 301 q 308 179 269 222 q 417 136 347 136 m 503 1092 l 686 871 l 582 790 l 414 950 l 246 790 l 147 871 l 331 1092 l 503 1092 z "},"ö":{"ha":833,"x_min":57,"x_max":776,"o":"m 417 -17 q 267 9 333 -17 q 153 83 200 35 q 82 201 107 132 q 57 358 57 271 q 82 515 57 446 q 153 633 107 585 q 267 708 200 682 q 417 733 333 733 q 567 708 500 733 q 680 633 633 682 q 751 515 726 585 q 776 358 776 446 q 751 201 776 271 q 680 83 726 132 q 567 9 633 35 q 417 -17 500 -17 m 417 136 q 525 179 486 136 q 564 301 564 222 l 564 415 q 525 538 564 494 q 417 581 486 581 q 308 538 347 581 q 269 415 269 494 l 269 301 q 308 179 269 222 q 417 136 347 136 m 264 821 q 177 847 201 821 q 153 908 153 872 l 153 944 q 177 1006 153 981 q 264 1031 201 1031 q 351 1006 326 1031 q 376 944 376 981 l 376 908 q 351 847 376 872 q 264 821 326 821 m 569 821 q 482 847 507 821 q 457 908 457 872 l 457 944 q 482 1006 457 981 q 569 1031 507 1031 q 656 1006 632 1031 q 681 944 681 981 l 681 908 q 656 847 681 872 q 569 821 632 821 z "},"ọ":{"ha":833,"x_min":57,"x_max":776,"o":"m 417 -17 q 267 9 333 -17 q 153 83 200 35 q 82 201 107 132 q 57 358 57 271 q 82 515 57 446 q 153 633 107 585 q 267 708 200 682 q 417 733 333 733 q 567 708 500 733 q 680 633 633 682 q 751 515 726 585 q 776 358 776 446 q 751 201 776 271 q 680 83 726 132 q 567 9 633 35 q 417 -17 500 -17 m 417 136 q 525 179 486 136 q 564 301 564 222 l 564 415 q 525 538 564 494 q 417 581 486 581 q 308 538 347 581 q 269 415 269 494 l 269 301 q 308 179 269 222 q 417 136 347 136 m 417 -282 q 329 -257 354 -282 q 304 -196 304 -232 l 304 -160 q 329 -97 304 -122 q 417 -72 354 -72 q 504 -97 479 -72 q 529 -160 529 -122 l 529 -196 q 504 -257 529 -232 q 417 -282 479 -282 z "},"ò":{"ha":833,"x_min":57,"x_max":776,"o":"m 417 -17 q 267 9 333 -17 q 153 83 200 35 q 82 201 107 132 q 57 358 57 271 q 82 515 57 446 q 153 633 107 585 q 267 708 200 682 q 417 733 333 733 q 567 708 500 733 q 680 633 633 682 q 751 515 726 585 q 776 358 776 446 q 751 201 776 271 q 680 83 726 132 q 567 9 633 35 q 417 -17 500 -17 m 417 136 q 525 179 486 136 q 564 301 564 222 l 564 415 q 525 538 564 494 q 417 581 486 581 q 308 538 347 581 q 269 415 269 494 l 269 301 q 308 179 269 222 q 417 136 347 136 m 208 1036 l 379 1121 l 517 851 l 394 792 l 208 1036 z "},"ỏ":{"ha":833,"x_min":57,"x_max":776,"o":"m 417 -17 q 267 9 333 -17 q 153 83 200 35 q 82 201 107 132 q 57 358 57 271 q 82 515 57 446 q 153 633 107 585 q 267 708 200 682 q 417 733 333 733 q 567 708 500 733 q 680 633 633 682 q 751 515 726 585 q 776 358 776 446 q 751 201 776 271 q 680 83 726 132 q 567 9 633 35 q 417 -17 500 -17 m 417 136 q 525 179 486 136 q 564 301 564 222 l 564 415 q 525 538 564 494 q 417 581 486 581 q 308 538 347 581 q 269 415 269 494 l 269 301 q 308 179 269 222 q 417 136 347 136 m 250 1101 l 449 1101 q 514 1093 488 1101 q 556 1071 540 1085 q 578 1039 571 1057 q 585 1000 585 1021 q 563 913 585 960 q 506 825 540 867 l 467 778 l 363 826 l 419 954 l 250 954 l 250 1101 z "},"ő":{"ha":833,"x_min":57,"x_max":776,"o":"m 417 -17 q 267 9 333 -17 q 153 83 200 35 q 82 201 107 132 q 57 358 57 271 q 82 515 57 446 q 153 633 107 585 q 267 708 200 682 q 417 733 333 733 q 567 708 500 733 q 680 633 633 682 q 751 515 726 585 q 776 358 776 446 q 751 201 776 271 q 680 83 726 132 q 567 9 633 35 q 417 -17 500 -17 m 417 136 q 525 179 486 136 q 564 301 564 222 l 564 415 q 525 538 564 494 q 417 581 486 581 q 308 538 347 581 q 269 415 269 494 l 269 301 q 308 179 269 222 q 417 136 347 136 m 292 792 l 179 846 l 317 1115 l 478 1036 l 292 792 m 576 792 l 464 846 l 601 1115 l 763 1036 l 576 792 z "},"ō":{"ha":833,"x_min":57,"x_max":776,"o":"m 417 -17 q 267 9 333 -17 q 153 83 200 35 q 82 201 107 132 q 57 358 57 271 q 82 515 57 446 q 153 633 107 585 q 267 708 200 682 q 417 733 333 733 q 567 708 500 733 q 680 633 633 682 q 751 515 726 585 q 776 358 776 446 q 751 201 776 271 q 680 83 726 132 q 567 9 633 35 q 417 -17 500 -17 m 417 136 q 525 179 486 136 q 564 301 564 222 l 564 415 q 525 538 564 494 q 417 581 486 581 q 308 538 347 581 q 269 415 269 494 l 269 301 q 308 179 269 222 q 417 136 347 136 m 204 997 l 629 997 l 629 854 l 204 854 l 204 997 z "},"ø":{"ha":833,"x_min":32,"x_max":801,"o":"m 32 1 l 128 117 q 57 358 57 210 q 82 515 57 446 q 153 633 107 585 q 267 708 200 682 q 417 733 333 733 q 515 722 469 733 q 599 692 561 711 l 688 799 l 801 715 l 706 600 q 776 358 776 506 q 751 201 776 271 q 680 83 726 132 q 567 9 633 35 q 417 -17 500 -17 q 318 -6 364 -17 q 235 25 272 6 l 146 -82 l 32 1 m 417 581 q 308 538 347 581 q 269 415 269 494 l 269 313 q 269 294 269 304 q 272 278 269 285 l 501 557 q 417 581 467 581 m 417 136 q 525 179 486 136 q 564 301 564 222 l 564 404 q 564 422 564 413 q 561 439 564 432 l 332 160 q 417 136 367 136 z "},"ǿ":{"ha":833,"x_min":32,"x_max":801,"o":"m 32 1 l 128 117 q 57 358 57 210 q 82 515 57 446 q 153 633 107 585 q 267 708 200 682 q 417 733 333 733 q 515 722 469 733 q 599 692 561 711 l 688 799 l 801 715 l 706 600 q 776 358 776 506 q 751 201 776 271 q 680 83 726 132 q 567 9 633 35 q 417 -17 500 -17 q 318 -6 364 -17 q 235 25 272 6 l 146 -82 l 32 1 m 417 581 q 308 538 347 581 q 269 415 269 494 l 269 313 q 269 294 269 304 q 272 278 269 285 l 501 557 q 417 581 467 581 m 417 136 q 525 179 486 136 q 564 301 564 222 l 564 404 q 564 422 564 413 q 561 439 564 432 l 332 160 q 417 136 367 136 m 439 792 l 317 851 l 454 1121 l 625 1036 l 439 792 z "},"õ":{"ha":833,"x_min":57,"x_max":776,"o":"m 417 -17 q 267 9 333 -17 q 153 83 200 35 q 82 201 107 132 q 57 358 57 271 q 82 515 57 446 q 153 633 107 585 q 267 708 200 682 q 417 733 333 733 q 567 708 500 733 q 680 633 633 682 q 751 515 726 585 q 776 358 776 446 q 751 201 776 271 q 680 83 726 132 q 567 9 633 35 q 417 -17 500 -17 m 417 136 q 525 179 486 136 q 564 301 564 222 l 564 415 q 525 538 564 494 q 417 581 486 581 q 308 538 347 581 q 269 415 269 494 l 269 301 q 308 179 269 222 q 417 136 347 136 m 522 822 q 466 831 490 822 q 415 850 442 839 q 360 872 385 863 q 307 881 335 881 q 265 872 283 881 q 225 846 247 864 l 153 940 q 217 1003 178 978 q 311 1029 256 1029 q 367 1021 343 1029 q 418 1001 392 1013 q 474 980 449 989 q 526 971 499 971 q 568 979 550 971 q 608 1006 586 988 l 681 911 q 617 848 656 874 q 522 822 578 822 z "},"ơ":{"ha":833,"x_min":57,"x_max":810,"o":"m 810 876 l 810 733 q 788 636 810 671 q 704 594 767 601 q 758 492 739 550 q 776 358 776 433 q 751 201 776 271 q 680 83 726 132 q 567 9 633 35 q 417 -17 500 -17 q 267 9 333 -17 q 153 83 200 35 q 82 201 107 132 q 57 358 57 271 q 82 515 57 446 q 153 633 107 585 q 267 708 200 682 q 417 733 333 733 q 540 717 483 733 l 638 717 l 638 876 l 810 876 m 417 136 q 525 179 486 136 q 564 301 564 222 l 564 415 q 525 538 564 494 q 417 581 486 581 q 308 538 347 581 q 269 415 269 494 l 269 301 q 308 179 269 222 q 417 136 347 136 z "},"ớ":{"ha":833,"x_min":57,"x_max":810,"o":"m 810 876 l 810 733 q 788 636 810 671 q 704 594 767 601 q 758 492 739 550 q 776 358 776 433 q 751 201 776 271 q 680 83 726 132 q 567 9 633 35 q 417 -17 500 -17 q 267 9 333 -17 q 153 83 200 35 q 82 201 107 132 q 57 358 57 271 q 82 515 57 446 q 153 633 107 585 q 267 708 200 682 q 417 733 333 733 q 540 717 483 733 l 638 717 l 638 876 l 810 876 m 417 136 q 525 179 486 136 q 564 301 564 222 l 564 415 q 525 538 564 494 q 417 581 486 581 q 308 538 347 581 q 269 415 269 494 l 269 301 q 308 179 269 222 q 417 136 347 136 m 439 792 l 317 851 l 454 1121 l 625 1036 l 439 792 z "},"ợ":{"ha":833,"x_min":57,"x_max":810,"o":"m 810 876 l 810 733 q 788 636 810 671 q 704 594 767 601 q 758 492 739 550 q 776 358 776 433 q 751 201 776 271 q 680 83 726 132 q 567 9 633 35 q 417 -17 500 -17 q 267 9 333 -17 q 153 83 200 35 q 82 201 107 132 q 57 358 57 271 q 82 515 57 446 q 153 633 107 585 q 267 708 200 682 q 417 733 333 733 q 540 717 483 733 l 638 717 l 638 876 l 810 876 m 417 136 q 525 179 486 136 q 564 301 564 222 l 564 415 q 525 538 564 494 q 417 581 486 581 q 308 538 347 581 q 269 415 269 494 l 269 301 q 308 179 269 222 q 417 136 347 136 m 417 -282 q 329 -257 354 -282 q 304 -196 304 -232 l 304 -160 q 329 -97 304 -122 q 417 -72 354 -72 q 504 -97 479 -72 q 529 -160 529 -122 l 529 -196 q 504 -257 529 -232 q 417 -282 479 -282 z "},"ờ":{"ha":833,"x_min":57,"x_max":810,"o":"m 810 876 l 810 733 q 788 636 810 671 q 704 594 767 601 q 758 492 739 550 q 776 358 776 433 q 751 201 776 271 q 680 83 726 132 q 567 9 633 35 q 417 -17 500 -17 q 267 9 333 -17 q 153 83 200 35 q 82 201 107 132 q 57 358 57 271 q 82 515 57 446 q 153 633 107 585 q 267 708 200 682 q 417 733 333 733 q 540 717 483 733 l 638 717 l 638 876 l 810 876 m 417 136 q 525 179 486 136 q 564 301 564 222 l 564 415 q 525 538 564 494 q 417 581 486 581 q 308 538 347 581 q 269 415 269 494 l 269 301 q 308 179 269 222 q 417 136 347 136 m 208 1036 l 379 1121 l 517 851 l 394 792 l 208 1036 z "},"ở":{"ha":833,"x_min":57,"x_max":810,"o":"m 810 876 l 810 733 q 788 636 810 671 q 704 594 767 601 q 758 492 739 550 q 776 358 776 433 q 751 201 776 271 q 680 83 726 132 q 567 9 633 35 q 417 -17 500 -17 q 267 9 333 -17 q 153 83 200 35 q 82 201 107 132 q 57 358 57 271 q 82 515 57 446 q 153 633 107 585 q 267 708 200 682 q 417 733 333 733 q 540 717 483 733 l 638 717 l 638 876 l 810 876 m 417 136 q 525 179 486 136 q 564 301 564 222 l 564 415 q 525 538 564 494 q 417 581 486 581 q 308 538 347 581 q 269 415 269 494 l 269 301 q 308 179 269 222 q 417 136 347 136 m 250 1101 l 449 1101 q 514 1093 488 1101 q 556 1071 540 1085 q 578 1039 571 1057 q 585 1000 585 1021 q 563 913 585 960 q 506 825 540 867 l 467 778 l 363 826 l 419 954 l 250 954 l 250 1101 z "},"ỡ":{"ha":833,"x_min":57,"x_max":810,"o":"m 810 876 l 810 733 q 788 636 810 671 q 704 594 767 601 q 758 492 739 550 q 776 358 776 433 q 751 201 776 271 q 680 83 726 132 q 567 9 633 35 q 417 -17 500 -17 q 267 9 333 -17 q 153 83 200 35 q 82 201 107 132 q 57 358 57 271 q 82 515 57 446 q 153 633 107 585 q 267 708 200 682 q 417 733 333 733 q 540 717 483 733 l 638 717 l 638 876 l 810 876 m 417 136 q 525 179 486 136 q 564 301 564 222 l 564 415 q 525 538 564 494 q 417 581 486 581 q 308 538 347 581 q 269 415 269 494 l 269 301 q 308 179 269 222 q 417 136 347 136 m 476 822 q 428 831 449 822 q 383 850 407 839 q 335 872 357 863 q 290 881 314 881 q 222 851 256 881 l 151 938 q 209 1003 175 976 q 293 1029 243 1029 q 342 1021 321 1029 q 386 1001 363 1013 q 434 980 413 989 q 479 971 456 971 q 547 1000 514 971 l 618 914 q 560 849 594 875 q 476 822 526 822 z "},"ố":{"ha":833,"x_min":57,"x_max":843,"o":"m 417 -17 q 267 9 333 -17 q 153 83 200 35 q 82 201 107 132 q 57 358 57 271 q 82 515 57 446 q 153 633 107 585 q 267 708 200 682 q 417 733 333 733 q 567 708 500 733 q 680 633 633 682 q 751 515 726 585 q 776 358 776 446 q 751 201 776 271 q 680 83 726 132 q 567 9 633 35 q 417 -17 500 -17 m 417 136 q 525 179 486 136 q 564 301 564 222 l 564 415 q 525 538 564 494 q 417 581 486 581 q 308 538 347 581 q 269 415 269 494 l 269 301 q 308 179 269 222 q 417 136 347 136 m 657 1006 l 547 1060 l 685 1329 l 843 1250 l 657 1006 m 482 1072 l 683 868 l 586 779 l 414 924 l 242 779 l 150 868 l 351 1072 l 482 1072 z "},"ộ":{"ha":833,"x_min":57,"x_max":776,"o":"m 417 -17 q 267 9 333 -17 q 153 83 200 35 q 82 201 107 132 q 57 358 57 271 q 82 515 57 446 q 153 633 107 585 q 267 708 200 682 q 417 733 333 733 q 567 708 500 733 q 680 633 633 682 q 751 515 726 585 q 776 358 776 446 q 751 201 776 271 q 680 83 726 132 q 567 9 633 35 q 417 -17 500 -17 m 417 136 q 525 179 486 136 q 564 301 564 222 l 564 415 q 525 538 564 494 q 417 581 486 581 q 308 538 347 581 q 269 415 269 494 l 269 301 q 308 179 269 222 q 417 136 347 136 m 503 1092 l 686 871 l 582 790 l 414 950 l 246 790 l 147 871 l 331 1092 l 503 1092 m 417 -282 q 329 -257 354 -282 q 304 -196 304 -232 l 304 -160 q 329 -97 304 -122 q 417 -72 354 -72 q 504 -97 479 -72 q 529 -160 529 -122 l 529 -196 q 504 -257 529 -232 q 417 -282 479 -282 z "},"ồ":{"ha":833,"x_min":-10,"x_max":776,"o":"m 417 -17 q 267 9 333 -17 q 153 83 200 35 q 82 201 107 132 q 57 358 57 271 q 82 515 57 446 q 153 633 107 585 q 267 708 200 682 q 417 733 333 733 q 567 708 500 733 q 680 633 633 682 q 751 515 726 585 q 776 358 776 446 q 751 201 776 271 q 680 83 726 132 q 567 9 633 35 q 417 -17 500 -17 m 417 136 q 525 179 486 136 q 564 301 564 222 l 564 415 q 525 538 564 494 q 417 581 486 581 q 308 538 347 581 q 269 415 269 494 l 269 301 q 308 179 269 222 q 417 136 347 136 m -10 1250 l 149 1329 l 286 1060 l 176 1006 l -10 1250 m 482 1072 l 683 868 l 586 779 l 414 924 l 242 779 l 150 868 l 351 1072 l 482 1072 z "},"ổ":{"ha":833,"x_min":57,"x_max":792,"o":"m 417 -17 q 267 9 333 -17 q 153 83 200 35 q 82 201 107 132 q 57 358 57 271 q 82 515 57 446 q 153 633 107 585 q 267 708 200 682 q 417 733 333 733 q 567 708 500 733 q 680 633 633 682 q 751 515 726 585 q 776 358 776 446 q 751 201 776 271 q 680 83 726 132 q 567 9 633 35 q 417 -17 500 -17 m 417 136 q 525 179 486 136 q 564 301 564 222 l 564 415 q 525 538 564 494 q 417 581 486 581 q 308 538 347 581 q 269 415 269 494 l 269 301 q 308 179 269 222 q 417 136 347 136 m 469 1310 l 656 1310 q 720 1301 694 1310 q 762 1279 746 1293 q 785 1247 778 1265 q 792 1210 792 1229 q 765 1122 792 1168 q 704 1033 739 1075 l 667 988 l 575 1035 l 635 1169 l 469 1169 l 469 1310 m 482 1072 l 683 868 l 586 779 l 414 924 l 242 779 l 150 868 l 351 1072 l 482 1072 z "},"ỗ":{"ha":833,"x_min":57,"x_max":776,"o":"m 417 -17 q 267 9 333 -17 q 153 83 200 35 q 82 201 107 132 q 57 358 57 271 q 82 515 57 446 q 153 633 107 585 q 267 708 200 682 q 417 733 333 733 q 567 708 500 733 q 680 633 633 682 q 751 515 726 585 q 776 358 776 446 q 751 201 776 271 q 680 83 726 132 q 567 9 633 35 q 417 -17 500 -17 m 417 136 q 525 179 486 136 q 564 301 564 222 l 564 415 q 525 538 564 494 q 417 581 486 581 q 308 538 347 581 q 269 415 269 494 l 269 301 q 308 179 269 222 q 417 136 347 136 m 313 1296 q 369 1288 344 1296 q 419 1268 393 1279 q 475 1247 450 1256 q 528 1238 500 1238 q 569 1246 551 1238 q 610 1272 588 1254 l 679 1183 q 615 1120 654 1146 q 521 1094 576 1094 q 465 1103 489 1094 q 414 1122 440 1111 q 358 1144 383 1135 q 306 1153 333 1153 q 264 1144 282 1153 q 224 1118 246 1136 l 154 1207 q 218 1270 179 1244 q 313 1296 257 1296 m 483 1054 l 681 868 l 588 779 l 415 911 l 243 779 l 153 868 l 350 1054 l 483 1054 z "},"œ":{"ha":833,"x_min":17,"x_max":811,"o":"m 588 -17 q 488 5 533 -17 q 410 75 442 26 l 404 75 q 338 7 376 31 q 242 -17 299 -17 q 150 4 192 -17 q 78 69 108 25 q 33 185 49 114 q 17 358 17 257 q 33 531 17 460 q 78 647 49 601 q 150 713 108 692 q 244 733 192 733 q 346 707 306 733 q 413 631 386 681 l 418 631 q 583 733 478 733 q 677 710 635 733 q 749 643 719 686 q 795 539 779 600 q 811 401 811 478 l 811 317 l 490 317 l 490 296 q 515 166 490 215 q 585 117 539 117 q 640 147 621 117 q 668 217 658 176 l 803 179 q 776 103 793 139 q 732 40 758 67 q 670 -1 706 14 q 588 -17 635 -17 m 254 117 q 313 153 292 117 q 335 260 335 189 l 335 457 q 313 564 335 528 q 254 600 292 600 q 195 564 217 600 q 174 457 174 528 l 174 260 q 195 153 174 189 q 254 117 217 117 m 660 424 l 660 468 q 640 567 660 526 q 575 608 619 608 q 510 567 531 608 q 490 468 490 526 l 490 424 l 660 424 z "},"ŕ":{"ha":833,"x_min":103,"x_max":781,"o":"m 103 160 l 268 160 l 268 557 l 103 557 l 103 717 l 474 717 l 474 514 l 483 514 q 510 590 493 553 q 555 655 528 626 q 621 700 582 683 q 713 717 660 717 l 781 717 l 781 528 l 628 528 q 513 483 551 528 q 474 372 474 438 l 474 160 l 710 160 l 710 0 l 103 0 l 103 160 m 474 792 l 351 851 l 489 1121 l 660 1036 l 474 792 z "},"ř":{"ha":833,"x_min":103,"x_max":781,"o":"m 103 160 l 268 160 l 268 557 l 103 557 l 103 717 l 474 717 l 474 514 l 483 514 q 510 590 493 553 q 555 655 528 626 q 621 700 582 683 q 713 717 660 717 l 781 717 l 781 528 l 628 528 q 513 483 551 528 q 474 372 474 438 l 474 160 l 710 160 l 710 0 l 103 0 l 103 160 m 365 803 l 182 1024 l 286 1104 l 454 944 l 622 1104 l 721 1024 l 538 803 l 365 803 z "},"ŗ":{"ha":833,"x_min":103,"x_max":781,"o":"m 103 160 l 268 160 l 268 557 l 103 557 l 103 717 l 474 717 l 474 514 l 483 514 q 510 590 493 553 q 555 655 528 626 q 621 700 582 683 q 713 717 660 717 l 781 717 l 781 528 l 628 528 q 513 483 551 528 q 474 372 474 438 l 474 160 l 710 160 l 710 0 l 103 0 l 103 160 m 263 -75 l 481 -75 l 360 -374 l 238 -374 l 263 -75 z "},"ś":{"ha":833,"x_min":68,"x_max":742,"o":"m 408 -17 q 201 19 289 -17 q 68 118 113 56 l 183 225 q 281 153 225 179 q 410 128 338 128 q 506 147 471 128 q 540 204 540 165 q 517 247 540 235 q 451 265 493 258 l 336 283 q 246 305 288 290 q 174 344 204 319 q 125 406 143 369 q 107 493 107 442 q 193 669 107 606 q 435 733 279 733 q 615 705 540 733 q 733 624 689 676 l 631 507 q 549 565 599 542 q 428 589 499 589 q 308 517 308 589 q 332 473 308 485 q 397 454 356 461 l 511 436 q 601 415 560 429 q 674 375 643 400 q 724 314 706 350 q 742 226 742 278 q 655 49 742 114 q 408 -17 568 -17 m 446 792 l 324 851 l 461 1121 l 632 1036 l 446 792 z "},"š":{"ha":833,"x_min":68,"x_max":742,"o":"m 408 -17 q 201 19 289 -17 q 68 118 113 56 l 183 225 q 281 153 225 179 q 410 128 338 128 q 506 147 471 128 q 540 204 540 165 q 517 247 540 235 q 451 265 493 258 l 336 283 q 246 305 288 290 q 174 344 204 319 q 125 406 143 369 q 107 493 107 442 q 193 669 107 606 q 435 733 279 733 q 615 705 540 733 q 733 624 689 676 l 631 507 q 549 565 599 542 q 428 589 499 589 q 308 517 308 589 q 332 473 308 485 q 397 454 356 461 l 511 436 q 601 415 560 429 q 674 375 643 400 q 724 314 706 350 q 742 226 742 278 q 655 49 742 114 q 408 -17 568 -17 m 338 803 l 154 1024 l 258 1104 l 426 944 l 594 1104 l 693 1024 l 510 803 l 338 803 z "},"ş":{"ha":833,"x_min":68,"x_max":742,"o":"m 426 -294 q 313 -274 354 -294 q 254 -233 272 -254 l 318 -156 q 355 -184 332 -172 q 410 -196 378 -196 q 453 -187 436 -196 q 471 -161 471 -179 q 467 -144 471 -153 q 451 -128 463 -136 q 419 -115 439 -121 q 367 -106 399 -108 l 338 -103 l 356 -14 q 181 28 256 -7 q 68 118 107 63 l 183 225 q 281 153 225 179 q 410 128 338 128 q 506 147 471 128 q 540 204 540 165 q 517 247 540 235 q 451 265 493 258 l 336 283 q 246 305 288 290 q 174 344 204 319 q 125 406 143 369 q 107 493 107 442 q 193 669 107 606 q 435 733 279 733 q 615 705 540 733 q 733 624 689 676 l 631 507 q 549 565 599 542 q 428 589 499 589 q 308 517 308 589 q 332 473 308 485 q 397 454 356 461 l 511 436 q 601 415 560 429 q 674 375 643 400 q 724 314 706 350 q 742 226 742 278 q 666 58 742 122 q 449 -15 590 -6 l 436 -76 l 442 -82 q 475 -75 458 -78 q 508 -72 492 -72 q 580 -94 550 -72 q 610 -168 610 -117 q 594 -228 610 -204 q 553 -267 579 -251 q 494 -288 528 -282 q 426 -294 461 -294 z "},"ŝ":{"ha":833,"x_min":68,"x_max":742,"o":"m 408 -17 q 201 19 289 -17 q 68 118 113 56 l 183 225 q 281 153 225 179 q 410 128 338 128 q 506 147 471 128 q 540 204 540 165 q 517 247 540 235 q 451 265 493 258 l 336 283 q 246 305 288 290 q 174 344 204 319 q 125 406 143 369 q 107 493 107 442 q 193 669 107 606 q 435 733 279 733 q 615 705 540 733 q 733 624 689 676 l 631 507 q 549 565 599 542 q 428 589 499 589 q 308 517 308 589 q 332 473 308 485 q 397 454 356 461 l 511 436 q 601 415 560 429 q 674 375 643 400 q 724 314 706 350 q 742 226 742 278 q 655 49 742 114 q 408 -17 568 -17 m 510 1092 l 693 871 l 589 790 l 421 950 l 253 790 l 154 871 l 338 1092 l 510 1092 z "},"ș":{"ha":833,"x_min":68,"x_max":742,"o":"m 408 -17 q 201 19 289 -17 q 68 118 113 56 l 183 225 q 281 153 225 179 q 410 128 338 128 q 506 147 471 128 q 540 204 540 165 q 517 247 540 235 q 451 265 493 258 l 336 283 q 246 305 288 290 q 174 344 204 319 q 125 406 143 369 q 107 493 107 442 q 193 669 107 606 q 435 733 279 733 q 615 705 540 733 q 733 624 689 676 l 631 507 q 549 565 599 542 q 428 589 499 589 q 308 517 308 589 q 332 473 308 485 q 397 454 356 461 l 511 436 q 601 415 560 429 q 674 375 643 400 q 724 314 706 350 q 742 226 742 278 q 655 49 742 114 q 408 -17 568 -17 m 299 -75 l 517 -75 l 396 -374 l 274 -374 l 299 -75 z "},"ß":{"ha":833,"x_min":83,"x_max":797,"o":"m 83 0 l 83 821 q 137 970 83 913 q 303 1028 190 1028 l 522 1028 l 522 874 l 283 874 l 283 717 l 750 717 l 750 569 l 557 296 q 733 208 669 275 q 797 22 797 140 q 699 -202 797 -126 q 433 -278 600 -278 l 342 -278 l 342 -124 l 421 -124 q 549 -93 508 -124 q 590 4 590 -62 l 590 36 q 547 135 590 104 q 413 165 504 165 l 379 165 l 379 319 l 550 563 l 283 563 l 283 0 l 83 0 z "},"ŧ":{"ha":833,"x_min":58,"x_max":738,"o":"m 738 0 l 472 0 q 307 58 361 0 q 253 207 253 117 l 253 294 l 131 294 l 131 440 l 253 440 l 253 557 l 58 557 l 58 717 l 185 717 q 250 735 231 717 q 269 801 269 753 l 269 969 l 458 969 l 458 717 l 738 717 l 738 557 l 458 557 l 458 440 l 668 440 l 668 294 l 458 294 l 458 160 l 738 160 l 738 0 z "},"ť":{"ha":833,"x_min":58,"x_max":776,"o":"m 472 0 q 307 58 361 0 q 253 207 253 117 l 253 557 l 58 557 l 58 717 l 185 717 q 250 735 231 717 q 269 801 269 753 l 269 969 l 458 969 l 458 717 l 738 717 l 738 557 l 458 557 l 458 160 l 738 160 l 738 0 l 472 0 m 685 785 l 550 785 l 558 1083 l 776 1083 l 685 785 z "},"ţ":{"ha":833,"x_min":58,"x_max":738,"o":"m 472 0 q 307 58 361 0 q 253 207 253 117 l 253 557 l 58 557 l 58 717 l 185 717 q 250 735 231 717 q 269 801 269 753 l 269 969 l 458 969 l 458 717 l 738 717 l 738 557 l 458 557 l 458 160 l 738 160 l 738 0 l 472 0 m 393 -75 l 611 -75 l 490 -374 l 368 -374 l 393 -75 z "},"ț":{"ha":833,"x_min":58,"x_max":738,"o":"m 472 0 q 307 58 361 0 q 253 207 253 117 l 253 557 l 58 557 l 58 717 l 185 717 q 250 735 231 717 q 269 801 269 753 l 269 969 l 458 969 l 458 717 l 738 717 l 738 557 l 458 557 l 458 160 l 738 160 l 738 0 l 472 0 m 393 -75 l 611 -75 l 490 -374 l 368 -374 l 393 -75 z "},"þ":{"ha":833,"x_min":82,"x_max":779,"o":"m 82 1028 l 288 1028 l 288 586 l 297 586 q 374 692 324 650 q 510 733 424 733 q 619 711 569 733 q 703 643 668 689 q 759 526 739 597 q 779 358 779 456 q 759 190 779 261 q 703 74 739 119 q 619 6 668 28 q 510 -17 569 -17 q 374 24 424 -17 q 297 131 324 65 l 288 131 l 288 -278 l 82 -278 l 82 1028 m 421 143 q 528 185 490 143 q 565 303 565 228 l 565 414 q 528 531 565 489 q 421 574 490 574 q 327 547 367 574 q 288 464 288 521 l 288 253 q 327 169 288 196 q 421 143 367 143 z "},"ú":{"ha":833,"x_min":85,"x_max":743,"o":"m 538 131 l 529 131 q 455 26 506 69 q 318 -17 404 -17 q 224 1 267 -17 q 150 53 181 18 q 102 138 119 88 q 85 253 85 188 l 85 717 l 290 717 l 290 281 q 411 142 290 142 q 458 148 435 142 q 498 167 481 154 q 526 200 515 181 q 538 246 538 219 l 538 717 l 743 717 l 743 0 l 538 0 l 538 131 m 438 792 l 315 851 l 453 1121 l 624 1036 l 438 792 z "},"ŭ":{"ha":833,"x_min":85,"x_max":743,"o":"m 538 131 l 529 131 q 455 26 506 69 q 318 -17 404 -17 q 224 1 267 -17 q 150 53 181 18 q 102 138 119 88 q 85 253 85 188 l 85 717 l 290 717 l 290 281 q 411 142 290 142 q 458 148 435 142 q 498 167 481 154 q 526 200 515 181 q 538 246 538 219 l 538 717 l 743 717 l 743 0 l 538 0 l 538 131 m 415 792 q 308 815 353 792 q 231 872 263 838 q 179 949 200 907 q 146 1028 158 990 l 261 1086 l 290 1042 q 349 963 322 992 q 415 935 375 935 q 482 963 456 935 q 540 1042 508 992 l 569 1086 l 685 1028 q 651 949 672 990 q 599 872 631 907 q 523 815 568 838 q 415 792 478 792 z "},"û":{"ha":833,"x_min":85,"x_max":743,"o":"m 538 131 l 529 131 q 455 26 506 69 q 318 -17 404 -17 q 224 1 267 -17 q 150 53 181 18 q 102 138 119 88 q 85 253 85 188 l 85 717 l 290 717 l 290 281 q 411 142 290 142 q 458 148 435 142 q 498 167 481 154 q 526 200 515 181 q 538 246 538 219 l 538 717 l 743 717 l 743 0 l 538 0 l 538 131 m 501 1092 l 685 871 l 581 790 l 413 950 l 244 790 l 146 871 l 329 1092 l 501 1092 z "},"ü":{"ha":833,"x_min":85,"x_max":743,"o":"m 538 131 l 529 131 q 455 26 506 69 q 318 -17 404 -17 q 224 1 267 -17 q 150 53 181 18 q 102 138 119 88 q 85 253 85 188 l 85 717 l 290 717 l 290 281 q 411 142 290 142 q 458 148 435 142 q 498 167 481 154 q 526 200 515 181 q 538 246 538 219 l 538 717 l 743 717 l 743 0 l 538 0 l 538 131 m 263 821 q 176 847 200 821 q 151 908 151 872 l 151 944 q 176 1006 151 981 q 263 1031 200 1031 q 350 1006 325 1031 q 375 944 375 981 l 375 908 q 350 847 375 872 q 263 821 325 821 m 568 821 q 481 847 506 821 q 456 908 456 872 l 456 944 q 481 1006 456 981 q 568 1031 506 1031 q 655 1006 631 1031 q 679 944 679 981 l 679 908 q 655 847 679 872 q 568 821 631 821 z "},"ụ":{"ha":833,"x_min":85,"x_max":743,"o":"m 538 131 l 529 131 q 455 26 506 69 q 318 -17 404 -17 q 224 1 267 -17 q 150 53 181 18 q 102 138 119 88 q 85 253 85 188 l 85 717 l 290 717 l 290 281 q 411 142 290 142 q 458 148 435 142 q 498 167 481 154 q 526 200 515 181 q 538 246 538 219 l 538 717 l 743 717 l 743 0 l 538 0 l 538 131 m 414 -282 q 326 -257 351 -282 q 301 -196 301 -232 l 301 -160 q 326 -97 301 -122 q 414 -72 351 -72 q 501 -97 476 -72 q 526 -160 526 -122 l 526 -196 q 501 -257 526 -232 q 414 -282 476 -282 z "},"ù":{"ha":833,"x_min":85,"x_max":743,"o":"m 538 131 l 529 131 q 455 26 506 69 q 318 -17 404 -17 q 224 1 267 -17 q 150 53 181 18 q 102 138 119 88 q 85 253 85 188 l 85 717 l 290 717 l 290 281 q 411 142 290 142 q 458 148 435 142 q 498 167 481 154 q 526 200 515 181 q 538 246 538 219 l 538 717 l 743 717 l 743 0 l 538 0 l 538 131 m 207 1036 l 378 1121 l 515 851 l 393 792 l 207 1036 z "},"ủ":{"ha":833,"x_min":85,"x_max":743,"o":"m 538 131 l 529 131 q 455 26 506 69 q 318 -17 404 -17 q 224 1 267 -17 q 150 53 181 18 q 102 138 119 88 q 85 253 85 188 l 85 717 l 290 717 l 290 281 q 411 142 290 142 q 458 148 435 142 q 498 167 481 154 q 526 200 515 181 q 538 246 538 219 l 538 717 l 743 717 l 743 0 l 538 0 l 538 131 m 247 1101 l 446 1101 q 511 1093 485 1101 q 553 1071 538 1085 q 575 1039 568 1057 q 582 1000 582 1021 q 560 913 582 960 q 503 825 538 867 l 464 778 l 360 826 l 417 954 l 247 954 l 247 1101 z "},"ű":{"ha":833,"x_min":85,"x_max":761,"o":"m 538 131 l 529 131 q 455 26 506 69 q 318 -17 404 -17 q 224 1 267 -17 q 150 53 181 18 q 102 138 119 88 q 85 253 85 188 l 85 717 l 290 717 l 290 281 q 411 142 290 142 q 458 148 435 142 q 498 167 481 154 q 526 200 515 181 q 538 246 538 219 l 538 717 l 743 717 l 743 0 l 538 0 l 538 131 m 290 792 l 178 846 l 315 1115 l 476 1036 l 290 792 m 575 792 l 463 846 l 600 1115 l 761 1036 l 575 792 z "},"ū":{"ha":833,"x_min":85,"x_max":743,"o":"m 538 131 l 529 131 q 455 26 506 69 q 318 -17 404 -17 q 224 1 267 -17 q 150 53 181 18 q 102 138 119 88 q 85 253 85 188 l 85 717 l 290 717 l 290 281 q 411 142 290 142 q 458 148 435 142 q 498 167 481 154 q 526 200 515 181 q 538 246 538 219 l 538 717 l 743 717 l 743 0 l 538 0 l 538 131 m 203 997 l 628 997 l 628 854 l 203 854 l 203 997 z "},"ų":{"ha":833,"x_min":85,"x_max":788,"o":"m 743 0 q 660 -53 692 -32 q 613 -92 629 -75 q 590 -121 596 -108 q 585 -146 585 -133 q 601 -182 585 -172 q 638 -192 617 -192 q 681 -181 663 -192 q 714 -153 699 -169 l 788 -224 q 727 -276 769 -257 q 618 -294 685 -294 q 552 -288 583 -294 q 497 -269 521 -282 q 460 -233 474 -256 q 446 -176 446 -210 q 490 -80 446 -118 q 611 -6 533 -42 l 610 0 l 538 0 l 538 131 l 529 131 q 455 26 506 69 q 318 -17 404 -17 q 224 1 267 -17 q 150 53 181 18 q 102 138 119 88 q 85 253 85 188 l 85 717 l 290 717 l 290 281 q 411 142 290 142 q 458 148 435 142 q 498 167 481 154 q 526 200 515 181 q 538 246 538 219 l 538 717 l 743 717 l 743 0 z "},"ů":{"ha":833,"x_min":85,"x_max":743,"o":"m 538 131 l 529 131 q 455 26 506 69 q 318 -17 404 -17 q 224 1 267 -17 q 150 53 181 18 q 102 138 119 88 q 85 253 85 188 l 85 717 l 290 717 l 290 281 q 411 142 290 142 q 458 148 435 142 q 498 167 481 154 q 526 200 515 181 q 538 246 538 219 l 538 717 l 743 717 l 743 0 l 538 0 l 538 131 m 415 763 q 335 777 372 763 q 269 818 297 792 q 226 881 242 844 q 210 961 210 918 q 226 1040 210 1004 q 269 1103 242 1076 q 335 1144 297 1129 q 415 1160 372 1160 q 496 1145 458 1160 q 561 1104 533 1131 q 605 1041 589 1078 q 621 961 621 1004 q 605 882 621 918 q 561 819 589 846 q 496 778 533 793 q 415 763 458 763 m 415 867 q 468 886 450 867 q 486 938 486 906 l 486 985 q 468 1037 486 1018 q 415 1056 450 1056 q 363 1036 381 1056 q 344 985 344 1017 l 344 938 q 363 885 344 904 q 415 867 381 867 z "},"ũ":{"ha":833,"x_min":85,"x_max":743,"o":"m 538 131 l 529 131 q 455 26 506 69 q 318 -17 404 -17 q 224 1 267 -17 q 150 53 181 18 q 102 138 119 88 q 85 253 85 188 l 85 717 l 290 717 l 290 281 q 411 142 290 142 q 458 148 435 142 q 498 167 481 154 q 526 200 515 181 q 538 246 538 219 l 538 717 l 743 717 l 743 0 l 538 0 l 538 131 m 521 822 q 465 831 489 822 q 414 850 440 839 q 358 872 383 863 q 306 881 333 881 q 264 872 282 881 q 224 846 246 864 l 151 940 q 215 1003 176 978 q 310 1029 254 1029 q 366 1021 342 1029 q 417 1001 390 1013 q 472 980 447 989 q 525 971 497 971 q 567 979 549 971 q 607 1006 585 988 l 679 911 q 615 848 654 874 q 521 822 576 822 z "},"ư":{"ha":833,"x_min":85,"x_max":831,"o":"m 831 733 q 813 642 831 675 q 743 597 794 608 l 743 0 l 538 0 l 538 131 l 529 131 q 455 26 506 69 q 318 -17 404 -17 q 224 1 267 -17 q 150 53 181 18 q 102 138 119 88 q 85 253 85 188 l 85 717 l 290 717 l 290 281 q 411 142 290 142 q 458 148 435 142 q 498 167 481 154 q 526 200 515 181 q 538 246 538 219 l 538 717 l 658 717 l 658 876 l 831 876 l 831 733 z "},"ứ":{"ha":833,"x_min":85,"x_max":831,"o":"m 831 733 q 813 642 831 675 q 743 597 794 608 l 743 0 l 538 0 l 538 131 l 529 131 q 455 26 506 69 q 318 -17 404 -17 q 224 1 267 -17 q 150 53 181 18 q 102 138 119 88 q 85 253 85 188 l 85 717 l 290 717 l 290 281 q 411 142 290 142 q 458 148 435 142 q 498 167 481 154 q 526 200 515 181 q 538 246 538 219 l 538 717 l 658 717 l 658 876 l 831 876 l 831 733 m 438 792 l 315 851 l 453 1121 l 624 1036 l 438 792 z "},"ự":{"ha":833,"x_min":85,"x_max":831,"o":"m 831 733 q 813 642 831 675 q 743 597 794 608 l 743 0 l 538 0 l 538 131 l 529 131 q 455 26 506 69 q 318 -17 404 -17 q 224 1 267 -17 q 150 53 181 18 q 102 138 119 88 q 85 253 85 188 l 85 717 l 290 717 l 290 281 q 411 142 290 142 q 458 148 435 142 q 498 167 481 154 q 526 200 515 181 q 538 246 538 219 l 538 717 l 658 717 l 658 876 l 831 876 l 831 733 m 414 -282 q 326 -257 351 -282 q 301 -196 301 -232 l 301 -160 q 326 -97 301 -122 q 414 -72 351 -72 q 501 -97 476 -72 q 526 -160 526 -122 l 526 -196 q 501 -257 526 -232 q 414 -282 476 -282 z "},"ừ":{"ha":833,"x_min":85,"x_max":831,"o":"m 831 733 q 813 642 831 675 q 743 597 794 608 l 743 0 l 538 0 l 538 131 l 529 131 q 455 26 506 69 q 318 -17 404 -17 q 224 1 267 -17 q 150 53 181 18 q 102 138 119 88 q 85 253 85 188 l 85 717 l 290 717 l 290 281 q 411 142 290 142 q 458 148 435 142 q 498 167 481 154 q 526 200 515 181 q 538 246 538 219 l 538 717 l 658 717 l 658 876 l 831 876 l 831 733 m 207 1036 l 378 1121 l 515 851 l 393 792 l 207 1036 z "},"ử":{"ha":833,"x_min":85,"x_max":831,"o":"m 831 733 q 813 642 831 675 q 743 597 794 608 l 743 0 l 538 0 l 538 131 l 529 131 q 455 26 506 69 q 318 -17 404 -17 q 224 1 267 -17 q 150 53 181 18 q 102 138 119 88 q 85 253 85 188 l 85 717 l 290 717 l 290 281 q 411 142 290 142 q 458 148 435 142 q 498 167 481 154 q 526 200 515 181 q 538 246 538 219 l 538 717 l 658 717 l 658 876 l 831 876 l 831 733 m 247 1101 l 446 1101 q 511 1093 485 1101 q 553 1071 538 1085 q 575 1039 568 1057 q 582 1000 582 1021 q 560 913 582 960 q 503 825 538 867 l 464 778 l 360 826 l 417 954 l 247 954 l 247 1101 z "},"ữ":{"ha":833,"x_min":85,"x_max":831,"o":"m 831 733 q 813 642 831 675 q 743 597 794 608 l 743 0 l 538 0 l 538 131 l 529 131 q 455 26 506 69 q 318 -17 404 -17 q 224 1 267 -17 q 150 53 181 18 q 102 138 119 88 q 85 253 85 188 l 85 717 l 290 717 l 290 281 q 411 142 290 142 q 458 148 435 142 q 498 167 481 154 q 526 200 515 181 q 538 246 538 219 l 538 717 l 658 717 l 658 876 l 831 876 l 831 733 m 490 822 q 442 831 463 822 q 397 850 421 839 q 349 872 371 863 q 304 881 328 881 q 236 851 269 881 l 165 938 q 223 1003 189 976 q 307 1029 257 1029 q 356 1021 335 1029 q 400 1001 376 1013 q 448 980 426 989 q 493 971 469 971 q 561 1000 528 971 l 632 914 q 574 849 608 875 q 490 822 540 822 z "},"ẃ":{"ha":833,"x_min":10,"x_max":824,"o":"m 10 717 l 181 717 l 232 136 l 246 136 l 331 717 l 511 717 l 594 136 l 608 136 l 661 717 l 824 717 l 739 0 l 494 0 l 424 494 l 410 494 l 339 0 l 94 0 l 10 717 m 439 792 l 317 851 l 454 1121 l 625 1036 l 439 792 z "},"ŵ":{"ha":833,"x_min":10,"x_max":824,"o":"m 10 717 l 181 717 l 232 136 l 246 136 l 331 717 l 511 717 l 594 136 l 608 136 l 661 717 l 824 717 l 739 0 l 494 0 l 424 494 l 410 494 l 339 0 l 94 0 l 10 717 m 503 1092 l 686 871 l 582 790 l 414 950 l 246 790 l 147 871 l 331 1092 l 503 1092 z "},"ẅ":{"ha":833,"x_min":10,"x_max":824,"o":"m 10 717 l 181 717 l 232 136 l 246 136 l 331 717 l 511 717 l 594 136 l 608 136 l 661 717 l 824 717 l 739 0 l 494 0 l 424 494 l 410 494 l 339 0 l 94 0 l 10 717 m 264 821 q 177 847 201 821 q 153 908 153 872 l 153 944 q 177 1006 153 981 q 264 1031 201 1031 q 351 1006 326 1031 q 376 944 376 981 l 376 908 q 351 847 376 872 q 264 821 326 821 m 569 821 q 482 847 507 821 q 457 908 457 872 l 457 944 q 482 1006 457 981 q 569 1031 507 1031 q 656 1006 632 1031 q 681 944 681 981 l 681 908 q 656 847 681 872 q 569 821 632 821 z "},"ẁ":{"ha":833,"x_min":10,"x_max":824,"o":"m 10 717 l 181 717 l 232 136 l 246 136 l 331 717 l 511 717 l 594 136 l 608 136 l 661 717 l 824 717 l 739 0 l 494 0 l 424 494 l 410 494 l 339 0 l 94 0 l 10 717 m 208 1036 l 379 1121 l 517 851 l 394 792 l 208 1036 z "},"ý":{"ha":833,"x_min":26,"x_max":807,"o":"m 597 717 l 807 717 l 469 -115 q 385 -236 438 -194 q 240 -278 332 -278 l 99 -278 l 99 -118 l 271 -118 l 315 4 l 26 717 l 247 717 l 351 415 l 417 207 l 428 207 l 490 415 l 597 717 m 443 792 l 321 851 l 458 1121 l 629 1036 l 443 792 z "},"ŷ":{"ha":833,"x_min":26,"x_max":807,"o":"m 597 717 l 807 717 l 469 -115 q 385 -236 438 -194 q 240 -278 332 -278 l 99 -278 l 99 -118 l 271 -118 l 315 4 l 26 717 l 247 717 l 351 415 l 417 207 l 428 207 l 490 415 l 597 717 m 507 1092 l 690 871 l 586 790 l 418 950 l 250 790 l 151 871 l 335 1092 l 507 1092 z "},"ÿ":{"ha":833,"x_min":26,"x_max":807,"o":"m 597 717 l 807 717 l 469 -115 q 385 -236 438 -194 q 240 -278 332 -278 l 99 -278 l 99 -118 l 271 -118 l 315 4 l 26 717 l 247 717 l 351 415 l 417 207 l 428 207 l 490 415 l 597 717 m 268 821 q 181 847 206 821 q 157 908 157 872 l 157 944 q 181 1006 157 981 q 268 1031 206 1031 q 356 1006 331 1031 q 381 944 381 981 l 381 908 q 356 847 381 872 q 268 821 331 821 m 574 821 q 486 847 511 821 q 461 908 461 872 l 461 944 q 486 1006 461 981 q 574 1031 511 1031 q 660 1006 636 1031 q 685 944 685 981 l 685 908 q 660 847 685 872 q 574 821 636 821 z "},"ỵ":{"ha":833,"x_min":26,"x_max":807,"o":"m 597 717 l 807 717 l 469 -115 q 385 -236 438 -194 q 240 -278 332 -278 l 99 -278 l 99 -118 l 271 -118 l 315 4 l 26 717 l 247 717 l 351 415 l 417 207 l 428 207 l 490 415 l 597 717 m 669 -282 q 582 -257 607 -282 q 557 -196 557 -232 l 557 -160 q 582 -97 557 -122 q 669 -72 607 -72 q 757 -97 732 -72 q 782 -160 782 -122 l 782 -196 q 757 -257 782 -232 q 669 -282 732 -282 z "},"ỳ":{"ha":833,"x_min":26,"x_max":807,"o":"m 597 717 l 807 717 l 469 -115 q 385 -236 438 -194 q 240 -278 332 -278 l 99 -278 l 99 -118 l 271 -118 l 315 4 l 26 717 l 247 717 l 351 415 l 417 207 l 428 207 l 490 415 l 597 717 m 213 1036 l 383 1121 l 521 851 l 399 792 l 213 1036 z "},"ỷ":{"ha":833,"x_min":26,"x_max":807,"o":"m 597 717 l 807 717 l 469 -115 q 385 -236 438 -194 q 240 -278 332 -278 l 99 -278 l 99 -118 l 271 -118 l 315 4 l 26 717 l 247 717 l 351 415 l 417 207 l 428 207 l 490 415 l 597 717 m 254 1101 l 453 1101 q 518 1093 492 1101 q 560 1071 544 1085 q 582 1039 575 1057 q 589 1000 589 1021 q 567 913 589 960 q 510 825 544 867 l 471 778 l 367 826 l 424 954 l 254 954 l 254 1101 z "},"ỹ":{"ha":833,"x_min":26,"x_max":807,"o":"m 597 717 l 807 717 l 469 -115 q 385 -236 438 -194 q 240 -278 332 -278 l 99 -278 l 99 -118 l 271 -118 l 315 4 l 26 717 l 247 717 l 351 415 l 417 207 l 428 207 l 490 415 l 597 717 m 526 822 q 470 831 494 822 q 419 850 446 839 q 364 872 389 863 q 311 881 339 881 q 269 872 288 881 q 229 846 251 864 l 157 940 q 221 1003 182 978 q 315 1029 260 1029 q 372 1021 347 1029 q 422 1001 396 1013 q 478 980 453 989 q 531 971 503 971 q 572 979 554 971 q 613 1006 590 988 l 685 911 q 621 848 660 874 q 526 822 582 822 z "},"ź":{"ha":833,"x_min":92,"x_max":742,"o":"m 92 0 l 92 171 l 490 557 l 106 557 l 106 717 l 728 717 l 728 546 l 329 160 l 742 160 l 742 0 l 92 0 m 439 792 l 317 851 l 454 1121 l 625 1036 l 439 792 z "},"ž":{"ha":833,"x_min":92,"x_max":742,"o":"m 92 0 l 92 171 l 490 557 l 106 557 l 106 717 l 728 717 l 728 546 l 329 160 l 742 160 l 742 0 l 92 0 m 331 803 l 147 1024 l 251 1104 l 419 944 l 588 1104 l 686 1024 l 503 803 l 331 803 z "},"ż":{"ha":833,"x_min":92,"x_max":742,"o":"m 92 0 l 92 171 l 490 557 l 106 557 l 106 717 l 728 717 l 728 546 l 329 160 l 742 160 l 742 0 l 92 0 m 417 808 q 320 837 347 808 q 293 906 293 865 l 293 946 q 320 1015 293 988 q 417 1043 347 1043 q 513 1015 486 1043 q 540 946 540 988 l 540 906 q 513 837 540 865 q 417 808 486 808 z "},"Á":{"ha":833,"x_min":7,"x_max":826,"o":"m 604 0 l 543 233 l 278 233 l 218 0 l 7 0 l 269 969 l 564 969 l 826 0 l 604 0 m 417 768 l 406 768 l 311 401 l 511 401 l 417 768 m 439 1028 l 317 1088 l 454 1357 l 625 1272 l 439 1028 z "},"Ă":{"ha":833,"x_min":7,"x_max":826,"o":"m 604 0 l 543 233 l 278 233 l 218 0 l 7 0 l 269 969 l 564 969 l 826 0 l 604 0 m 417 768 l 406 768 l 311 401 l 511 401 l 417 768 m 417 1028 q 309 1051 354 1028 q 233 1108 264 1074 q 181 1185 201 1143 q 147 1264 160 1226 l 263 1322 l 292 1278 q 350 1199 324 1228 q 417 1171 376 1171 q 483 1199 457 1171 q 542 1278 510 1228 l 571 1322 l 686 1264 q 653 1185 674 1226 q 601 1108 632 1143 q 524 1051 569 1074 q 417 1028 479 1028 z "},"Â":{"ha":833,"x_min":7,"x_max":826,"o":"m 604 0 l 543 233 l 278 233 l 218 0 l 7 0 l 269 969 l 564 969 l 826 0 l 604 0 m 417 768 l 406 768 l 311 401 l 511 401 l 417 768 m 503 1328 l 686 1107 l 582 1026 l 414 1186 l 246 1026 l 147 1107 l 331 1328 l 503 1328 z "},"Ä":{"ha":833,"x_min":7,"x_max":826,"o":"m 604 0 l 543 233 l 278 233 l 218 0 l 7 0 l 269 969 l 564 969 l 826 0 l 604 0 m 417 768 l 406 768 l 311 401 l 511 401 l 417 768 m 264 1057 q 177 1083 201 1057 q 153 1144 153 1108 l 153 1181 q 177 1242 153 1217 q 264 1267 201 1267 q 351 1242 326 1267 q 376 1181 376 1217 l 376 1144 q 351 1083 376 1108 q 264 1057 326 1057 m 569 1057 q 482 1083 507 1057 q 457 1144 457 1108 l 457 1181 q 482 1242 457 1217 q 569 1267 507 1267 q 656 1242 632 1267 q 681 1181 681 1217 l 681 1144 q 656 1083 681 1108 q 569 1057 632 1057 z "},"Ạ":{"ha":833,"x_min":7,"x_max":826,"o":"m 604 0 l 543 233 l 278 233 l 218 0 l 7 0 l 269 969 l 564 969 l 826 0 l 604 0 m 417 768 l 406 768 l 311 401 l 511 401 l 417 768 m 417 -282 q 329 -257 354 -282 q 304 -196 304 -232 l 304 -160 q 329 -97 304 -122 q 417 -72 354 -72 q 504 -97 479 -72 q 529 -160 529 -122 l 529 -196 q 504 -257 529 -232 q 417 -282 479 -282 z "},"À":{"ha":833,"x_min":7,"x_max":826,"o":"m 604 0 l 543 233 l 278 233 l 218 0 l 7 0 l 269 969 l 564 969 l 826 0 l 604 0 m 417 768 l 406 768 l 311 401 l 511 401 l 417 768 m 208 1272 l 379 1357 l 517 1088 l 394 1028 l 208 1272 z "},"Ả":{"ha":833,"x_min":7,"x_max":826,"o":"m 604 0 l 543 233 l 278 233 l 218 0 l 7 0 l 269 969 l 564 969 l 826 0 l 604 0 m 417 768 l 406 768 l 311 401 l 511 401 l 417 768 m 250 1338 l 449 1338 q 514 1329 488 1338 q 556 1307 540 1321 q 578 1275 571 1293 q 585 1236 585 1257 q 563 1149 585 1196 q 506 1061 540 1103 l 467 1014 l 363 1063 l 419 1190 l 250 1190 l 250 1338 z "},"Ā":{"ha":833,"x_min":7,"x_max":826,"o":"m 604 0 l 543 233 l 278 233 l 218 0 l 7 0 l 269 969 l 564 969 l 826 0 l 604 0 m 417 768 l 406 768 l 311 401 l 511 401 l 417 768 m 204 1233 l 629 1233 l 629 1090 l 204 1090 l 204 1233 z "},"Ą":{"ha":833,"x_min":7,"x_max":871,"o":"m 269 969 l 564 969 l 826 0 q 744 -53 775 -32 q 696 -92 713 -75 q 674 -121 679 -108 q 668 -146 668 -133 q 684 -182 668 -172 q 721 -192 700 -192 q 764 -181 746 -192 q 797 -153 782 -169 l 871 -224 q 810 -276 853 -257 q 701 -294 768 -294 q 635 -288 667 -294 q 581 -269 604 -282 q 543 -233 557 -256 q 529 -176 529 -210 q 573 -80 529 -118 q 694 -6 617 -42 l 692 0 l 604 0 l 543 233 l 278 233 l 218 0 l 7 0 l 269 969 m 417 768 l 406 768 l 311 401 l 511 401 l 417 768 z "},"Å":{"ha":833,"x_min":7,"x_max":826,"o":"m 604 0 l 543 233 l 278 233 l 218 0 l 7 0 l 269 969 l 564 969 l 826 0 l 604 0 m 417 768 l 406 768 l 311 401 l 511 401 l 417 768 m 417 999 q 336 1013 374 999 q 271 1054 299 1028 q 227 1117 243 1081 q 211 1197 211 1154 q 227 1276 211 1240 q 271 1339 243 1313 q 336 1381 299 1365 q 417 1396 374 1396 q 497 1381 460 1396 q 563 1340 535 1367 q 606 1277 590 1314 q 622 1197 622 1240 q 606 1118 622 1154 q 563 1056 590 1082 q 497 1014 535 1029 q 417 999 460 999 m 417 1103 q 469 1122 451 1103 q 488 1174 488 1142 l 488 1221 q 469 1273 488 1254 q 417 1292 451 1292 q 364 1272 382 1292 q 346 1221 346 1253 l 346 1174 q 364 1122 346 1140 q 417 1103 382 1103 z "},"Ǻ":{"ha":833,"x_min":7,"x_max":826,"o":"m 604 0 l 543 233 l 278 233 l 218 0 l 7 0 l 269 969 l 564 969 l 826 0 l 604 0 m 417 768 l 406 768 l 311 401 l 511 401 l 417 768 m 407 1356 l 333 1435 l 513 1597 l 615 1485 l 407 1356 m 417 1007 q 334 1018 372 1007 q 267 1051 296 1029 q 222 1103 239 1072 q 206 1174 206 1133 q 222 1244 206 1213 q 267 1297 239 1275 q 334 1329 296 1318 q 417 1340 372 1340 q 499 1329 461 1340 q 566 1297 538 1318 q 611 1244 594 1275 q 628 1174 628 1213 q 611 1103 628 1135 q 566 1051 594 1072 q 499 1018 538 1029 q 417 1007 461 1007 m 417 1104 q 493 1167 493 1104 l 493 1181 q 474 1228 493 1214 q 417 1243 454 1243 q 340 1181 340 1243 l 340 1167 q 360 1119 340 1133 q 417 1104 379 1104 z "},"Ã":{"ha":833,"x_min":7,"x_max":826,"o":"m 604 0 l 543 233 l 278 233 l 218 0 l 7 0 l 269 969 l 564 969 l 826 0 l 604 0 m 417 768 l 406 768 l 311 401 l 511 401 l 417 768 m 522 1058 q 466 1067 490 1058 q 415 1086 442 1075 q 360 1108 385 1099 q 307 1117 335 1117 q 265 1108 283 1117 q 225 1082 247 1100 l 153 1176 q 217 1240 178 1214 q 311 1265 256 1265 q 367 1257 343 1265 q 418 1238 392 1249 q 474 1216 449 1225 q 526 1207 499 1207 q 568 1215 550 1207 q 608 1242 586 1224 l 681 1147 q 617 1084 656 1110 q 522 1058 578 1058 z "},"Ắ":{"ha":833,"x_min":7,"x_max":826,"o":"m 604 0 l 543 233 l 278 233 l 218 0 l 7 0 l 269 969 l 564 969 l 826 0 l 604 0 m 417 768 l 406 768 l 311 401 l 511 401 l 417 768 m 417 1018 q 306 1037 353 1018 q 226 1086 260 1056 q 172 1153 193 1117 q 136 1225 150 1189 l 240 1290 l 269 1251 q 308 1206 290 1224 q 342 1178 325 1189 q 376 1163 358 1167 q 417 1158 394 1158 q 492 1178 460 1158 q 564 1251 524 1197 l 593 1290 l 697 1225 q 662 1153 683 1189 q 607 1086 640 1117 q 527 1037 574 1056 q 417 1018 481 1018 m 443 1242 l 333 1296 l 471 1565 l 629 1486 l 443 1242 z "},"Ặ":{"ha":833,"x_min":7,"x_max":826,"o":"m 604 0 l 543 233 l 278 233 l 218 0 l 7 0 l 269 969 l 564 969 l 826 0 l 604 0 m 417 768 l 406 768 l 311 401 l 511 401 l 417 768 m 417 1028 q 309 1051 354 1028 q 233 1108 264 1074 q 181 1185 201 1143 q 147 1264 160 1226 l 263 1322 l 292 1278 q 350 1199 324 1228 q 417 1171 376 1171 q 483 1199 457 1171 q 542 1278 510 1228 l 571 1322 l 686 1264 q 653 1185 674 1226 q 601 1108 632 1143 q 524 1051 569 1074 q 417 1028 479 1028 m 417 -282 q 329 -257 354 -282 q 304 -196 304 -232 l 304 -160 q 329 -97 304 -122 q 417 -72 354 -72 q 504 -97 479 -72 q 529 -160 529 -122 l 529 -196 q 504 -257 529 -232 q 417 -282 479 -282 z "},"Ằ":{"ha":833,"x_min":7,"x_max":826,"o":"m 604 0 l 543 233 l 278 233 l 218 0 l 7 0 l 269 969 l 564 969 l 826 0 l 604 0 m 417 768 l 406 768 l 311 401 l 511 401 l 417 768 m 417 1018 q 306 1037 353 1018 q 226 1086 260 1056 q 172 1153 193 1117 q 136 1225 150 1189 l 240 1290 l 269 1251 q 308 1206 290 1224 q 342 1178 325 1189 q 376 1163 358 1167 q 417 1158 394 1158 q 492 1178 460 1158 q 564 1251 524 1197 l 593 1290 l 697 1225 q 662 1153 683 1189 q 607 1086 640 1117 q 527 1037 574 1056 q 417 1018 481 1018 m 204 1486 l 363 1565 l 500 1296 l 390 1242 l 204 1486 z "},"Ẳ":{"ha":833,"x_min":7,"x_max":826,"o":"m 604 0 l 543 233 l 278 233 l 218 0 l 7 0 l 269 969 l 564 969 l 826 0 l 604 0 m 417 768 l 406 768 l 311 401 l 511 401 l 417 768 m 236 1546 l 425 1546 q 490 1538 464 1546 q 532 1515 517 1529 q 554 1483 547 1501 q 561 1446 561 1465 q 535 1358 561 1404 q 475 1269 510 1313 l 438 1224 l 346 1268 l 406 1406 l 236 1406 l 236 1546 m 417 1018 q 306 1037 353 1018 q 226 1086 260 1056 q 172 1153 193 1117 q 136 1225 150 1189 l 240 1290 l 269 1251 q 308 1206 290 1224 q 342 1178 325 1189 q 376 1163 358 1167 q 417 1158 394 1158 q 492 1178 460 1158 q 564 1251 524 1197 l 593 1290 l 697 1225 q 662 1153 683 1189 q 607 1086 640 1117 q 527 1037 574 1056 q 417 1018 481 1018 z "},"Ẵ":{"ha":833,"x_min":7,"x_max":826,"o":"m 604 0 l 543 233 l 278 233 l 218 0 l 7 0 l 269 969 l 564 969 l 826 0 l 604 0 m 417 768 l 406 768 l 311 401 l 511 401 l 417 768 m 521 1317 q 465 1325 489 1317 q 414 1344 440 1333 q 358 1366 383 1357 q 306 1375 333 1375 q 264 1367 282 1375 q 224 1340 246 1358 l 154 1429 q 218 1492 179 1467 q 313 1518 257 1518 q 369 1510 344 1518 q 419 1490 393 1501 q 475 1469 450 1478 q 528 1460 500 1460 q 569 1468 551 1460 q 610 1494 588 1476 l 679 1406 q 615 1342 654 1368 q 521 1317 576 1317 m 417 1018 q 306 1037 353 1018 q 226 1086 260 1056 q 172 1153 193 1117 q 136 1225 150 1189 l 240 1290 l 269 1251 q 308 1206 290 1224 q 342 1178 325 1189 q 376 1163 358 1167 q 417 1158 394 1158 q 492 1178 460 1158 q 564 1251 524 1197 l 593 1290 l 697 1225 q 662 1153 683 1189 q 607 1086 640 1117 q 527 1037 574 1056 q 417 1018 481 1018 z "},"Ấ":{"ha":833,"x_min":7,"x_max":843,"o":"m 604 0 l 543 233 l 278 233 l 218 0 l 7 0 l 269 969 l 564 969 l 826 0 l 604 0 m 417 768 l 406 768 l 311 401 l 511 401 l 417 768 m 657 1242 l 547 1296 l 685 1565 l 843 1486 l 657 1242 m 482 1308 l 683 1104 l 586 1015 l 414 1160 l 242 1015 l 150 1104 l 351 1308 l 482 1308 z "},"Ậ":{"ha":833,"x_min":7,"x_max":826,"o":"m 604 0 l 543 233 l 278 233 l 218 0 l 7 0 l 269 969 l 564 969 l 826 0 l 604 0 m 417 768 l 406 768 l 311 401 l 511 401 l 417 768 m 503 1328 l 686 1107 l 582 1026 l 414 1186 l 246 1026 l 147 1107 l 331 1328 l 503 1328 m 417 -282 q 329 -257 354 -282 q 304 -196 304 -232 l 304 -160 q 329 -97 304 -122 q 417 -72 354 -72 q 504 -97 479 -72 q 529 -160 529 -122 l 529 -196 q 504 -257 529 -232 q 417 -282 479 -282 z "},"Ầ":{"ha":833,"x_min":-10,"x_max":826,"o":"m 604 0 l 543 233 l 278 233 l 218 0 l 7 0 l 269 969 l 564 969 l 826 0 l 604 0 m 417 768 l 406 768 l 311 401 l 511 401 l 417 768 m -10 1486 l 149 1565 l 286 1296 l 176 1242 l -10 1486 m 482 1308 l 683 1104 l 586 1015 l 414 1160 l 242 1015 l 150 1104 l 351 1308 l 482 1308 z "},"Ẩ":{"ha":833,"x_min":7,"x_max":826,"o":"m 604 0 l 543 233 l 278 233 l 218 0 l 7 0 l 269 969 l 564 969 l 826 0 l 604 0 m 417 768 l 406 768 l 311 401 l 511 401 l 417 768 m 469 1546 l 656 1546 q 720 1538 694 1546 q 762 1515 746 1529 q 785 1483 778 1501 q 792 1446 792 1465 q 765 1358 792 1404 q 704 1269 739 1311 l 667 1224 l 575 1271 l 635 1406 l 469 1406 l 469 1546 m 482 1308 l 683 1104 l 586 1015 l 414 1160 l 242 1015 l 150 1104 l 351 1308 l 482 1308 z "},"Ẫ":{"ha":833,"x_min":7,"x_max":826,"o":"m 604 0 l 543 233 l 278 233 l 218 0 l 7 0 l 269 969 l 564 969 l 826 0 l 604 0 m 417 768 l 406 768 l 311 401 l 511 401 l 417 768 m 313 1532 q 369 1524 344 1532 q 419 1504 393 1515 q 475 1483 450 1492 q 528 1474 500 1474 q 569 1482 551 1474 q 610 1508 588 1490 l 679 1419 q 615 1356 654 1382 q 521 1331 576 1331 q 465 1339 489 1331 q 414 1358 440 1347 q 358 1380 383 1371 q 306 1389 333 1389 q 264 1381 282 1389 q 224 1354 246 1372 l 154 1443 q 218 1506 179 1481 q 313 1532 257 1532 m 483 1290 l 681 1104 l 586 1015 l 414 1147 l 242 1015 l 153 1104 l 350 1290 l 483 1290 z "},"Æ":{"ha":833,"x_min":-6,"x_max":794,"o":"m 388 233 l 243 233 l 197 0 l -6 0 l 215 969 l 794 969 l 794 815 l 579 815 l 579 568 l 781 568 l 781 414 l 579 414 l 579 154 l 794 154 l 794 0 l 388 0 l 388 233 m 357 825 l 274 388 l 388 388 l 388 825 l 357 825 z "},"Ǽ":{"ha":833,"x_min":-6,"x_max":794,"o":"m 388 233 l 243 233 l 197 0 l -6 0 l 215 969 l 794 969 l 794 815 l 579 815 l 579 568 l 781 568 l 781 414 l 579 414 l 579 154 l 794 154 l 794 0 l 388 0 l 388 233 m 357 825 l 274 388 l 388 388 l 388 825 l 357 825 m 528 1028 l 406 1088 l 543 1357 l 714 1272 l 528 1028 z "},"Ć":{"ha":833,"x_min":57,"x_max":782,"o":"m 439 -17 q 151 115 244 -17 q 57 485 57 246 q 151 855 57 724 q 439 986 244 986 q 572 966 514 986 q 671 910 629 946 q 740 822 713 874 q 782 707 767 771 l 588 660 q 568 724 579 694 q 540 774 557 753 q 497 806 522 794 q 435 818 471 818 q 315 752 350 818 q 279 569 279 686 l 279 400 q 315 217 279 283 q 435 151 350 151 q 540 196 507 151 q 588 310 572 240 l 782 263 q 740 147 767 199 q 671 59 713 96 q 572 3 629 22 q 439 -17 514 -17 m 456 1028 l 333 1088 l 471 1357 l 642 1272 l 456 1028 z "},"Č":{"ha":833,"x_min":57,"x_max":782,"o":"m 439 -17 q 151 115 244 -17 q 57 485 57 246 q 151 855 57 724 q 439 986 244 986 q 572 966 514 986 q 671 910 629 946 q 740 822 713 874 q 782 707 767 771 l 588 660 q 568 724 579 694 q 540 774 557 753 q 497 806 522 794 q 435 818 471 818 q 315 752 350 818 q 279 569 279 686 l 279 400 q 315 217 279 283 q 435 151 350 151 q 540 196 507 151 q 588 310 572 240 l 782 263 q 740 147 767 199 q 671 59 713 96 q 572 3 629 22 q 439 -17 514 -17 m 347 1039 l 164 1260 l 268 1340 l 436 1181 l 604 1340 l 703 1260 l 519 1039 l 347 1039 z "},"Ç":{"ha":833,"x_min":57,"x_max":782,"o":"m 435 818 q 315 752 350 818 q 279 569 279 686 l 279 400 q 315 217 279 283 q 435 151 350 151 q 540 196 507 151 q 588 310 572 240 l 782 263 q 678 66 754 140 q 463 -15 601 -8 l 450 -76 l 456 -82 q 489 -75 472 -78 q 522 -72 506 -72 q 594 -94 564 -72 q 624 -168 624 -117 q 608 -228 624 -204 q 567 -267 593 -251 q 508 -288 542 -282 q 440 -294 475 -294 q 327 -274 368 -294 q 268 -233 286 -254 l 332 -156 q 369 -184 346 -172 q 424 -196 392 -196 q 467 -187 450 -196 q 485 -161 485 -179 q 481 -144 485 -153 q 465 -128 476 -136 q 433 -115 453 -121 q 381 -106 413 -108 l 351 -103 l 371 -11 q 133 139 210 11 q 57 485 57 267 q 151 855 57 724 q 439 986 244 986 q 572 966 514 986 q 671 910 629 946 q 740 822 713 874 q 782 707 767 771 l 588 660 q 568 724 579 694 q 540 774 557 753 q 497 806 522 794 q 435 818 471 818 z "},"Ĉ":{"ha":833,"x_min":57,"x_max":782,"o":"m 439 -17 q 151 115 244 -17 q 57 485 57 246 q 151 855 57 724 q 439 986 244 986 q 572 966 514 986 q 671 910 629 946 q 740 822 713 874 q 782 707 767 771 l 588 660 q 568 724 579 694 q 540 774 557 753 q 497 806 522 794 q 435 818 471 818 q 315 752 350 818 q 279 569 279 686 l 279 400 q 315 217 279 283 q 435 151 350 151 q 540 196 507 151 q 588 310 572 240 l 782 263 q 740 147 767 199 q 671 59 713 96 q 572 3 629 22 q 439 -17 514 -17 m 519 1328 l 703 1107 l 599 1026 l 431 1186 l 263 1026 l 164 1107 l 347 1328 l 519 1328 z "},"Ċ":{"ha":833,"x_min":57,"x_max":782,"o":"m 439 -17 q 151 115 244 -17 q 57 485 57 246 q 151 855 57 724 q 439 986 244 986 q 572 966 514 986 q 671 910 629 946 q 740 822 713 874 q 782 707 767 771 l 588 660 q 568 724 579 694 q 540 774 557 753 q 497 806 522 794 q 435 818 471 818 q 315 752 350 818 q 279 569 279 686 l 279 400 q 315 217 279 283 q 435 151 350 151 q 540 196 507 151 q 588 310 572 240 l 782 263 q 740 147 767 199 q 671 59 713 96 q 572 3 629 22 q 439 -17 514 -17 m 433 1044 q 337 1073 364 1044 q 310 1142 310 1101 l 310 1182 q 337 1251 310 1224 q 433 1279 364 1279 q 530 1251 503 1279 q 557 1182 557 1224 l 557 1142 q 530 1073 557 1101 q 433 1044 503 1044 z "},"Ď":{"ha":833,"x_min":89,"x_max":786,"o":"m 89 969 l 401 969 q 692 844 597 969 q 786 485 786 719 q 692 125 786 250 q 401 0 597 0 l 89 0 l 89 969 m 388 164 q 524 224 481 164 q 567 397 567 283 l 567 574 q 524 746 567 686 q 388 806 481 806 l 294 806 l 294 164 l 388 164 m 301 1039 l 118 1260 l 222 1340 l 390 1181 l 558 1340 l 657 1260 l 474 1039 l 301 1039 z "},"Đ":{"ha":833,"x_min":14,"x_max":786,"o":"m 96 432 l 14 432 l 14 590 l 96 590 l 96 969 l 401 969 q 692 844 597 969 q 786 485 786 719 q 692 125 786 250 q 401 0 597 0 l 96 0 l 96 432 m 388 164 q 524 224 481 164 q 567 397 567 283 l 567 574 q 524 746 567 686 q 388 806 481 806 l 301 806 l 301 583 l 454 583 l 454 439 l 301 439 l 301 164 l 388 164 z "},"Ð":{"ha":833,"x_min":14,"x_max":786,"o":"m 96 432 l 14 432 l 14 590 l 96 590 l 96 969 l 401 969 q 692 844 597 969 q 786 485 786 719 q 692 125 786 250 q 401 0 597 0 l 96 0 l 96 432 m 388 164 q 524 224 481 164 q 567 397 567 283 l 567 574 q 524 746 567 686 q 388 806 481 806 l 301 806 l 301 583 l 454 583 l 454 439 l 301 439 l 301 164 l 388 164 z "},"É":{"ha":833,"x_min":111,"x_max":731,"o":"m 111 0 l 111 969 l 731 969 l 731 799 l 319 799 l 319 576 l 717 576 l 717 406 l 319 406 l 319 171 l 731 171 l 731 0 l 111 0 m 443 1028 l 321 1088 l 458 1357 l 629 1272 l 443 1028 z "},"Ĕ":{"ha":833,"x_min":111,"x_max":731,"o":"m 111 0 l 111 969 l 731 969 l 731 799 l 319 799 l 319 576 l 717 576 l 717 406 l 319 406 l 319 171 l 731 171 l 731 0 l 111 0 m 421 1028 q 313 1051 358 1028 q 237 1108 268 1074 q 185 1185 206 1143 q 151 1264 164 1226 l 267 1322 l 296 1278 q 354 1199 328 1228 q 421 1171 381 1171 q 488 1199 461 1171 q 546 1278 514 1228 l 575 1322 l 690 1264 q 657 1185 678 1226 q 605 1108 636 1143 q 528 1051 574 1074 q 421 1028 483 1028 z "},"Ě":{"ha":833,"x_min":111,"x_max":731,"o":"m 111 0 l 111 969 l 731 969 l 731 799 l 319 799 l 319 576 l 717 576 l 717 406 l 319 406 l 319 171 l 731 171 l 731 0 l 111 0 m 335 1039 l 151 1260 l 256 1340 l 424 1181 l 592 1340 l 690 1260 l 507 1039 l 335 1039 z "},"Ê":{"ha":833,"x_min":111,"x_max":731,"o":"m 111 0 l 111 969 l 731 969 l 731 799 l 319 799 l 319 576 l 717 576 l 717 406 l 319 406 l 319 171 l 731 171 l 731 0 l 111 0 m 507 1328 l 690 1107 l 586 1026 l 418 1186 l 250 1026 l 151 1107 l 335 1328 l 507 1328 z "},"Ë":{"ha":833,"x_min":111,"x_max":731,"o":"m 111 0 l 111 969 l 731 969 l 731 799 l 319 799 l 319 576 l 717 576 l 717 406 l 319 406 l 319 171 l 731 171 l 731 0 l 111 0 m 268 1057 q 181 1083 206 1057 q 157 1144 157 1108 l 157 1181 q 181 1242 157 1217 q 268 1267 206 1267 q 356 1242 331 1267 q 381 1181 381 1217 l 381 1144 q 356 1083 381 1108 q 268 1057 331 1057 m 574 1057 q 486 1083 511 1057 q 461 1144 461 1108 l 461 1181 q 486 1242 461 1217 q 574 1267 511 1267 q 660 1242 636 1267 q 685 1181 685 1217 l 685 1144 q 660 1083 685 1108 q 574 1057 636 1057 z "},"Ė":{"ha":833,"x_min":111,"x_max":731,"o":"m 111 0 l 111 969 l 731 969 l 731 799 l 319 799 l 319 576 l 717 576 l 717 406 l 319 406 l 319 171 l 731 171 l 731 0 l 111 0 m 421 1044 q 324 1073 351 1044 q 297 1142 297 1101 l 297 1182 q 324 1251 297 1224 q 421 1279 351 1279 q 517 1251 490 1279 q 544 1182 544 1224 l 544 1142 q 517 1073 544 1101 q 421 1044 490 1044 z "},"Ẹ":{"ha":833,"x_min":111,"x_max":731,"o":"m 111 0 l 111 969 l 731 969 l 731 799 l 319 799 l 319 576 l 717 576 l 717 406 l 319 406 l 319 171 l 731 171 l 731 0 l 111 0 m 421 -282 q 333 -257 358 -282 q 308 -196 308 -232 l 308 -160 q 333 -97 308 -122 q 421 -72 358 -72 q 508 -97 483 -72 q 533 -160 533 -122 l 533 -196 q 508 -257 533 -232 q 421 -282 483 -282 z "},"È":{"ha":833,"x_min":111,"x_max":731,"o":"m 111 0 l 111 969 l 731 969 l 731 799 l 319 799 l 319 576 l 717 576 l 717 406 l 319 406 l 319 171 l 731 171 l 731 0 l 111 0 m 213 1272 l 383 1357 l 521 1088 l 399 1028 l 213 1272 z "},"Ẻ":{"ha":833,"x_min":111,"x_max":731,"o":"m 111 0 l 111 969 l 731 969 l 731 799 l 319 799 l 319 576 l 717 576 l 717 406 l 319 406 l 319 171 l 731 171 l 731 0 l 111 0 m 254 1338 l 453 1338 q 518 1329 492 1338 q 560 1307 544 1321 q 582 1275 575 1293 q 589 1236 589 1257 q 567 1149 589 1196 q 510 1061 544 1103 l 471 1014 l 367 1063 l 424 1190 l 254 1190 l 254 1338 z "},"Ē":{"ha":833,"x_min":111,"x_max":731,"o":"m 111 0 l 111 969 l 731 969 l 731 799 l 319 799 l 319 576 l 717 576 l 717 406 l 319 406 l 319 171 l 731 171 l 731 0 l 111 0 m 208 1233 l 633 1233 l 633 1090 l 208 1090 l 208 1233 z "},"Ę":{"ha":833,"x_min":111,"x_max":775,"o":"m 111 969 l 731 969 l 731 799 l 319 799 l 319 576 l 717 576 l 717 406 l 319 406 l 319 171 l 731 171 l 731 0 q 648 -53 679 -32 q 600 -92 617 -75 q 578 -121 583 -108 q 572 -146 572 -133 q 588 -182 572 -172 q 625 -192 604 -192 q 668 -181 650 -192 q 701 -153 686 -169 l 775 -224 q 715 -276 757 -257 q 606 -294 672 -294 q 540 -288 571 -294 q 485 -269 508 -282 q 447 -233 461 -256 q 433 -176 433 -210 q 477 -80 433 -118 q 599 -6 521 -42 l 597 0 l 111 0 l 111 969 z "},"Ẽ":{"ha":833,"x_min":111,"x_max":731,"o":"m 111 0 l 111 969 l 731 969 l 731 799 l 319 799 l 319 576 l 717 576 l 717 406 l 319 406 l 319 171 l 731 171 l 731 0 l 111 0 m 526 1058 q 470 1067 494 1058 q 419 1086 446 1075 q 364 1108 389 1099 q 311 1117 339 1117 q 269 1108 288 1117 q 229 1082 251 1100 l 157 1176 q 221 1240 182 1214 q 315 1265 260 1265 q 372 1257 347 1265 q 422 1238 396 1249 q 478 1216 453 1225 q 531 1207 503 1207 q 572 1215 554 1207 q 613 1242 590 1224 l 685 1147 q 621 1084 660 1110 q 526 1058 582 1058 z "},"Ế":{"ha":833,"x_min":111,"x_max":847,"o":"m 111 0 l 111 969 l 731 969 l 731 799 l 319 799 l 319 576 l 717 576 l 717 406 l 319 406 l 319 171 l 731 171 l 731 0 l 111 0 m 661 1242 l 551 1296 l 689 1565 l 847 1486 l 661 1242 m 486 1308 l 688 1104 l 590 1015 l 418 1160 l 246 1015 l 154 1104 l 356 1308 l 486 1308 z "},"Ệ":{"ha":833,"x_min":111,"x_max":731,"o":"m 111 0 l 111 969 l 731 969 l 731 799 l 319 799 l 319 576 l 717 576 l 717 406 l 319 406 l 319 171 l 731 171 l 731 0 l 111 0 m 507 1328 l 690 1107 l 586 1026 l 418 1186 l 250 1026 l 151 1107 l 335 1328 l 507 1328 m 421 -282 q 333 -257 358 -282 q 308 -196 308 -232 l 308 -160 q 333 -97 308 -122 q 421 -72 358 -72 q 508 -97 483 -72 q 533 -160 533 -122 l 533 -196 q 508 -257 533 -232 q 421 -282 483 -282 z "},"Ề":{"ha":833,"x_min":-6,"x_max":731,"o":"m 111 0 l 111 969 l 731 969 l 731 799 l 319 799 l 319 576 l 717 576 l 717 406 l 319 406 l 319 171 l 731 171 l 731 0 l 111 0 m -6 1486 l 153 1565 l 290 1296 l 181 1242 l -6 1486 m 486 1308 l 688 1104 l 590 1015 l 418 1160 l 246 1015 l 154 1104 l 356 1308 l 486 1308 z "},"Ể":{"ha":833,"x_min":111,"x_max":796,"o":"m 111 0 l 111 969 l 731 969 l 731 799 l 319 799 l 319 576 l 717 576 l 717 406 l 319 406 l 319 171 l 731 171 l 731 0 l 111 0 m 474 1546 l 660 1546 q 724 1538 699 1546 q 766 1515 750 1529 q 789 1483 782 1501 q 796 1446 796 1465 q 769 1358 796 1404 q 708 1269 743 1311 l 671 1224 l 579 1271 l 639 1406 l 474 1406 l 474 1546 m 486 1308 l 688 1104 l 590 1015 l 418 1160 l 246 1015 l 154 1104 l 356 1308 l 486 1308 z "},"Ễ":{"ha":833,"x_min":111,"x_max":731,"o":"m 111 0 l 111 969 l 731 969 l 731 799 l 319 799 l 319 576 l 717 576 l 717 406 l 319 406 l 319 171 l 731 171 l 731 0 l 111 0 m 317 1532 q 373 1524 349 1532 q 424 1504 397 1515 q 479 1483 454 1492 q 532 1474 504 1474 q 574 1482 556 1474 q 614 1508 592 1490 l 683 1419 q 619 1356 658 1382 q 525 1331 581 1331 q 469 1339 493 1331 q 418 1358 444 1347 q 363 1380 388 1371 q 310 1389 338 1389 q 268 1381 286 1389 q 228 1354 250 1372 l 158 1443 q 222 1506 183 1481 q 317 1532 261 1532 m 488 1290 l 685 1104 l 590 1015 l 418 1147 l 246 1015 l 157 1104 l 354 1290 l 488 1290 z "},"Ə":{"ha":833,"x_min":38,"x_max":796,"o":"m 417 -17 q 130 115 222 -17 q 38 485 38 247 l 38 554 l 583 554 l 583 569 q 574 671 583 625 q 546 750 565 717 q 494 801 526 783 q 414 819 461 819 q 297 771 335 819 q 240 646 258 722 l 60 714 q 181 915 93 844 q 414 986 269 986 q 703 854 611 986 q 796 485 796 722 q 703 115 796 247 q 417 -17 611 -17 m 417 147 q 547 215 511 147 q 583 400 583 282 l 583 404 l 250 404 l 250 400 q 286 215 250 282 q 417 147 322 147 z "},"Ğ":{"ha":833,"x_min":49,"x_max":757,"o":"m 571 138 l 558 138 q 528 79 546 107 q 483 30 510 51 q 422 -4 457 8 q 342 -17 386 -17 q 216 17 271 -17 q 124 114 161 50 q 67 269 86 178 q 49 476 49 361 q 139 855 49 724 q 418 986 229 986 q 550 966 493 986 q 648 909 607 946 q 715 821 689 872 q 757 707 742 769 l 563 660 q 544 719 554 690 q 517 769 533 747 q 475 805 500 792 q 414 818 450 818 q 302 753 335 818 q 269 569 269 688 l 269 411 q 305 222 269 293 q 431 151 340 151 q 536 193 501 151 q 571 300 571 235 l 571 371 l 406 371 l 406 518 l 757 518 l 757 0 l 571 0 l 571 138 m 418 1028 q 310 1051 356 1028 q 234 1108 265 1074 q 182 1185 203 1143 q 149 1264 161 1226 l 264 1322 l 293 1278 q 351 1199 325 1228 q 418 1171 378 1171 q 485 1199 458 1171 q 543 1278 511 1228 l 572 1322 l 688 1264 q 654 1185 675 1226 q 602 1108 633 1143 q 526 1051 571 1074 q 418 1028 481 1028 z "},"Ĝ":{"ha":833,"x_min":49,"x_max":757,"o":"m 571 138 l 558 138 q 528 79 546 107 q 483 30 510 51 q 422 -4 457 8 q 342 -17 386 -17 q 216 17 271 -17 q 124 114 161 50 q 67 269 86 178 q 49 476 49 361 q 139 855 49 724 q 418 986 229 986 q 550 966 493 986 q 648 909 607 946 q 715 821 689 872 q 757 707 742 769 l 563 660 q 544 719 554 690 q 517 769 533 747 q 475 805 500 792 q 414 818 450 818 q 302 753 335 818 q 269 569 269 688 l 269 411 q 305 222 269 293 q 431 151 340 151 q 536 193 501 151 q 571 300 571 235 l 571 371 l 406 371 l 406 518 l 757 518 l 757 0 l 571 0 l 571 138 m 504 1328 l 688 1107 l 583 1026 l 415 1186 l 247 1026 l 149 1107 l 332 1328 l 504 1328 z "},"Ģ":{"ha":833,"x_min":49,"x_max":757,"o":"m 571 138 l 558 138 q 528 79 546 107 q 483 30 510 51 q 422 -4 457 8 q 342 -17 386 -17 q 216 17 271 -17 q 124 114 161 50 q 67 269 86 178 q 49 476 49 361 q 139 855 49 724 q 418 986 229 986 q 550 966 493 986 q 648 909 607 946 q 715 821 689 872 q 757 707 742 769 l 563 660 q 544 719 554 690 q 517 769 533 747 q 475 805 500 792 q 414 818 450 818 q 302 753 335 818 q 269 569 269 688 l 269 411 q 305 222 269 293 q 431 151 340 151 q 536 193 501 151 q 571 300 571 235 l 571 371 l 406 371 l 406 518 l 757 518 l 757 0 l 571 0 l 571 138 m 306 -75 l 524 -75 l 403 -374 l 281 -374 l 306 -75 z "},"Ġ":{"ha":833,"x_min":49,"x_max":757,"o":"m 571 138 l 558 138 q 528 79 546 107 q 483 30 510 51 q 422 -4 457 8 q 342 -17 386 -17 q 216 17 271 -17 q 124 114 161 50 q 67 269 86 178 q 49 476 49 361 q 139 855 49 724 q 418 986 229 986 q 550 966 493 986 q 648 909 607 946 q 715 821 689 872 q 757 707 742 769 l 563 660 q 544 719 554 690 q 517 769 533 747 q 475 805 500 792 q 414 818 450 818 q 302 753 335 818 q 269 569 269 688 l 269 411 q 305 222 269 293 q 431 151 340 151 q 536 193 501 151 q 571 300 571 235 l 571 371 l 406 371 l 406 518 l 757 518 l 757 0 l 571 0 l 571 138 m 418 1044 q 322 1073 349 1044 q 294 1142 294 1101 l 294 1182 q 322 1251 294 1224 q 418 1279 349 1279 q 515 1251 488 1279 q 542 1182 542 1224 l 542 1142 q 515 1073 542 1101 q 418 1044 488 1044 z "},"Ħ":{"ha":833,"x_min":8,"x_max":825,"o":"m 539 406 l 294 406 l 294 0 l 85 0 l 85 704 l 8 704 l 8 861 l 85 861 l 85 969 l 294 969 l 294 851 l 539 851 l 539 969 l 749 969 l 749 861 l 825 861 l 825 704 l 749 704 l 749 0 l 539 0 l 539 406 m 539 576 l 539 714 l 294 714 l 294 576 l 539 576 z "},"Ĥ":{"ha":833,"x_min":85,"x_max":749,"o":"m 539 406 l 294 406 l 294 0 l 85 0 l 85 969 l 294 969 l 294 576 l 539 576 l 539 969 l 749 969 l 749 0 l 539 0 l 539 406 m 503 1328 l 686 1107 l 582 1026 l 414 1186 l 246 1026 l 147 1107 l 331 1328 l 503 1328 z "},"Í":{"ha":833,"x_min":104,"x_max":729,"o":"m 104 0 l 104 154 l 313 154 l 313 815 l 104 815 l 104 969 l 729 969 l 729 815 l 521 815 l 521 154 l 729 154 l 729 0 l 104 0 m 439 1028 l 317 1088 l 454 1357 l 625 1272 l 439 1028 z "},"Ĭ":{"ha":833,"x_min":104,"x_max":729,"o":"m 104 0 l 104 154 l 313 154 l 313 815 l 104 815 l 104 969 l 729 969 l 729 815 l 521 815 l 521 154 l 729 154 l 729 0 l 104 0 m 417 1028 q 309 1051 354 1028 q 233 1108 264 1074 q 181 1185 201 1143 q 147 1264 160 1226 l 263 1322 l 292 1278 q 350 1199 324 1228 q 417 1171 376 1171 q 483 1199 457 1171 q 542 1278 510 1228 l 571 1322 l 686 1264 q 653 1185 674 1226 q 601 1108 632 1143 q 524 1051 569 1074 q 417 1028 479 1028 z "},"Î":{"ha":833,"x_min":104,"x_max":729,"o":"m 104 0 l 104 154 l 313 154 l 313 815 l 104 815 l 104 969 l 729 969 l 729 815 l 521 815 l 521 154 l 729 154 l 729 0 l 104 0 m 503 1328 l 686 1107 l 582 1026 l 414 1186 l 246 1026 l 147 1107 l 331 1328 l 503 1328 z "},"Ï":{"ha":833,"x_min":104,"x_max":729,"o":"m 104 0 l 104 154 l 313 154 l 313 815 l 104 815 l 104 969 l 729 969 l 729 815 l 521 815 l 521 154 l 729 154 l 729 0 l 104 0 m 264 1057 q 177 1083 201 1057 q 153 1144 153 1108 l 153 1181 q 177 1242 153 1217 q 264 1267 201 1267 q 351 1242 326 1267 q 376 1181 376 1217 l 376 1144 q 351 1083 376 1108 q 264 1057 326 1057 m 569 1057 q 482 1083 507 1057 q 457 1144 457 1108 l 457 1181 q 482 1242 457 1217 q 569 1267 507 1267 q 656 1242 632 1267 q 681 1181 681 1217 l 681 1144 q 656 1083 681 1108 q 569 1057 632 1057 z "},"İ":{"ha":833,"x_min":104,"x_max":729,"o":"m 104 0 l 104 154 l 313 154 l 313 815 l 104 815 l 104 969 l 729 969 l 729 815 l 521 815 l 521 154 l 729 154 l 729 0 l 104 0 m 417 1044 q 320 1073 347 1044 q 293 1142 293 1101 l 293 1182 q 320 1251 293 1224 q 417 1279 347 1279 q 513 1251 486 1279 q 540 1182 540 1224 l 540 1142 q 513 1073 540 1101 q 417 1044 486 1044 z "},"Ị":{"ha":833,"x_min":104,"x_max":729,"o":"m 104 0 l 104 154 l 313 154 l 313 815 l 104 815 l 104 969 l 729 969 l 729 815 l 521 815 l 521 154 l 729 154 l 729 0 l 104 0 m 417 -282 q 329 -257 354 -282 q 304 -196 304 -232 l 304 -160 q 329 -97 304 -122 q 417 -72 354 -72 q 504 -97 479 -72 q 529 -160 529 -122 l 529 -196 q 504 -257 529 -232 q 417 -282 479 -282 z "},"Ì":{"ha":833,"x_min":104,"x_max":729,"o":"m 104 0 l 104 154 l 313 154 l 313 815 l 104 815 l 104 969 l 729 969 l 729 815 l 521 815 l 521 154 l 729 154 l 729 0 l 104 0 m 208 1272 l 379 1357 l 517 1088 l 394 1028 l 208 1272 z "},"Ỉ":{"ha":833,"x_min":104,"x_max":729,"o":"m 104 0 l 104 154 l 313 154 l 313 815 l 104 815 l 104 969 l 729 969 l 729 815 l 521 815 l 521 154 l 729 154 l 729 0 l 104 0 m 250 1338 l 449 1338 q 514 1329 488 1338 q 556 1307 540 1321 q 578 1275 571 1293 q 585 1236 585 1257 q 563 1149 585 1196 q 506 1061 540 1103 l 467 1014 l 363 1063 l 419 1190 l 250 1190 l 250 1338 z "},"Ī":{"ha":833,"x_min":104,"x_max":729,"o":"m 104 0 l 104 154 l 313 154 l 313 815 l 104 815 l 104 969 l 729 969 l 729 815 l 521 815 l 521 154 l 729 154 l 729 0 l 104 0 m 204 1233 l 629 1233 l 629 1090 l 204 1090 l 204 1233 z "},"Į":{"ha":833,"x_min":104,"x_max":774,"o":"m 104 154 l 313 154 l 313 815 l 104 815 l 104 969 l 729 969 l 729 815 l 521 815 l 521 154 l 729 154 l 729 0 q 647 -53 678 -32 q 599 -92 615 -75 q 576 -121 582 -108 q 571 -146 571 -133 q 587 -182 571 -172 q 624 -192 603 -192 q 667 -181 649 -192 q 700 -153 685 -169 l 774 -224 q 713 -276 756 -257 q 604 -294 671 -294 q 538 -288 569 -294 q 483 -269 507 -282 q 446 -233 460 -256 q 432 -176 432 -210 q 476 -80 432 -118 q 597 -6 519 -42 l 594 0 l 104 0 l 104 154 z "},"Ĩ":{"ha":833,"x_min":104,"x_max":729,"o":"m 104 0 l 104 154 l 313 154 l 313 815 l 104 815 l 104 969 l 729 969 l 729 815 l 521 815 l 521 154 l 729 154 l 729 0 l 104 0 m 522 1058 q 466 1067 490 1058 q 415 1086 442 1075 q 360 1108 385 1099 q 307 1117 335 1117 q 265 1108 283 1117 q 225 1082 247 1100 l 153 1176 q 217 1240 178 1214 q 311 1265 256 1265 q 367 1257 343 1265 q 418 1238 392 1249 q 474 1216 449 1225 q 526 1207 499 1207 q 568 1215 550 1207 q 608 1242 586 1224 l 681 1147 q 617 1084 656 1110 q 522 1058 578 1058 z "},"Ĳ":{"ha":833,"x_min":72,"x_max":729,"o":"m 729 969 l 729 271 q 707 152 729 206 q 643 61 685 99 q 542 3 601 24 q 407 -17 482 -17 q 274 3 332 -17 q 175 59 217 24 q 108 144 133 94 q 72 251 83 193 l 275 296 q 316 193 286 233 q 408 153 346 153 q 491 187 461 153 q 521 292 521 221 l 521 969 l 729 969 m 88 969 l 296 969 l 296 429 l 88 429 l 88 969 z "},"Ĵ":{"ha":833,"x_min":53,"x_max":715,"o":"m 710 969 l 710 271 q 687 152 710 206 q 622 61 664 99 q 519 3 579 24 q 386 -17 460 -17 q 156 58 238 -17 q 53 253 75 132 l 250 293 q 292 192 261 231 q 386 153 324 153 q 469 187 439 153 q 499 292 499 221 l 499 799 l 179 799 l 179 969 l 710 969 m 532 1328 l 715 1107 l 611 1026 l 443 1186 l 275 1026 l 176 1107 l 360 1328 l 532 1328 z "},"Ķ":{"ha":833,"x_min":94,"x_max":838,"o":"m 389 404 l 303 283 l 303 0 l 94 0 l 94 969 l 303 969 l 303 564 l 314 564 l 419 725 l 590 969 l 824 969 l 533 560 l 838 0 l 603 0 l 389 404 m 343 -75 l 561 -75 l 440 -374 l 318 -374 l 343 -75 z "},"Ĺ":{"ha":833,"x_min":128,"x_max":754,"o":"m 128 0 l 128 969 l 338 969 l 338 171 l 754 171 l 754 0 l 128 0 m 256 1028 l 133 1088 l 271 1357 l 442 1272 l 256 1028 z "},"Ľ":{"ha":833,"x_min":128,"x_max":754,"o":"m 128 0 l 128 969 l 338 969 l 338 171 l 754 171 l 754 0 l 128 0 m 579 729 l 444 729 l 453 1028 l 671 1028 l 579 729 z "},"Ļ":{"ha":833,"x_min":128,"x_max":754,"o":"m 128 0 l 128 969 l 338 969 l 338 171 l 754 171 l 754 0 l 128 0 m 332 -75 l 550 -75 l 429 -374 l 307 -374 l 332 -75 z "},"Ŀ":{"ha":833,"x_min":128,"x_max":754,"o":"m 128 0 l 128 969 l 338 969 l 338 171 l 754 171 l 754 0 l 128 0 m 618 339 q 522 367 549 339 q 494 436 494 396 l 494 476 q 522 546 494 518 q 618 574 549 574 q 715 546 688 574 q 742 476 742 518 l 742 436 q 715 367 742 396 q 618 339 688 339 z "},"Ł":{"ha":833,"x_min":46,"x_max":754,"o":"m 754 0 l 144 0 l 144 339 l 46 307 l 46 464 l 144 496 l 144 969 l 354 969 l 354 558 l 610 643 l 610 486 l 354 401 l 354 171 l 754 171 l 754 0 z "},"Ń":{"ha":833,"x_min":85,"x_max":749,"o":"m 278 644 l 263 644 l 263 0 l 85 0 l 85 969 l 335 969 l 556 325 l 571 325 l 571 969 l 749 969 l 749 0 l 499 0 l 278 644 m 439 1028 l 317 1088 l 454 1357 l 625 1272 l 439 1028 z "},"Ň":{"ha":833,"x_min":85,"x_max":749,"o":"m 278 644 l 263 644 l 263 0 l 85 0 l 85 969 l 335 969 l 556 325 l 571 325 l 571 969 l 749 969 l 749 0 l 499 0 l 278 644 m 331 1039 l 147 1260 l 251 1340 l 419 1181 l 588 1340 l 686 1260 l 503 1039 l 331 1039 z "},"Ņ":{"ha":833,"x_min":85,"x_max":749,"o":"m 278 644 l 263 644 l 263 0 l 85 0 l 85 969 l 335 969 l 556 325 l 571 325 l 571 969 l 749 969 l 749 0 l 499 0 l 278 644 m 308 -75 l 526 -75 l 406 -374 l 283 -374 l 308 -75 z "},"Ñ":{"ha":833,"x_min":85,"x_max":749,"o":"m 278 644 l 263 644 l 263 0 l 85 0 l 85 969 l 335 969 l 556 325 l 571 325 l 571 969 l 749 969 l 749 0 l 499 0 l 278 644 m 522 1058 q 466 1067 490 1058 q 415 1086 442 1075 q 360 1108 385 1099 q 307 1117 335 1117 q 265 1108 283 1117 q 225 1082 247 1100 l 153 1176 q 217 1240 178 1214 q 311 1265 256 1265 q 367 1257 343 1265 q 418 1238 392 1249 q 474 1216 449 1225 q 526 1207 499 1207 q 568 1215 550 1207 q 608 1242 586 1224 l 681 1147 q 617 1084 656 1110 q 522 1058 578 1058 z "},"Ŋ":{"ha":833,"x_min":85,"x_max":749,"o":"m 85 0 l 85 969 l 335 969 l 556 325 l 571 325 l 571 969 l 749 969 l 749 -71 q 694 -219 749 -161 q 531 -278 640 -278 l 263 -278 l 263 -125 l 558 -125 l 558 0 l 499 0 l 278 644 l 263 644 l 263 0 l 85 0 z "},"Ó":{"ha":833,"x_min":38,"x_max":796,"o":"m 417 -17 q 130 115 222 -17 q 38 485 38 247 q 130 854 38 722 q 417 986 222 986 q 703 854 611 986 q 796 485 796 722 q 703 115 796 247 q 417 -17 611 -17 m 417 151 q 540 217 506 151 q 574 401 574 283 l 574 569 q 540 752 574 686 q 417 818 506 818 q 294 752 328 818 q 260 569 260 686 l 260 400 q 294 217 260 283 q 417 151 328 151 m 439 1028 l 317 1088 l 454 1357 l 625 1272 l 439 1028 z "},"Ŏ":{"ha":833,"x_min":38,"x_max":796,"o":"m 417 -17 q 130 115 222 -17 q 38 485 38 247 q 130 854 38 722 q 417 986 222 986 q 703 854 611 986 q 796 485 796 722 q 703 115 796 247 q 417 -17 611 -17 m 417 151 q 540 217 506 151 q 574 401 574 283 l 574 569 q 540 752 574 686 q 417 818 506 818 q 294 752 328 818 q 260 569 260 686 l 260 400 q 294 217 260 283 q 417 151 328 151 m 417 1028 q 309 1051 354 1028 q 233 1108 264 1074 q 181 1185 201 1143 q 147 1264 160 1226 l 263 1322 l 292 1278 q 350 1199 324 1228 q 417 1171 376 1171 q 483 1199 457 1171 q 542 1278 510 1228 l 571 1322 l 686 1264 q 653 1185 674 1226 q 601 1108 632 1143 q 524 1051 569 1074 q 417 1028 479 1028 z "},"Ô":{"ha":833,"x_min":38,"x_max":796,"o":"m 417 -17 q 130 115 222 -17 q 38 485 38 247 q 130 854 38 722 q 417 986 222 986 q 703 854 611 986 q 796 485 796 722 q 703 115 796 247 q 417 -17 611 -17 m 417 151 q 540 217 506 151 q 574 401 574 283 l 574 569 q 540 752 574 686 q 417 818 506 818 q 294 752 328 818 q 260 569 260 686 l 260 400 q 294 217 260 283 q 417 151 328 151 m 503 1328 l 686 1107 l 582 1026 l 414 1186 l 246 1026 l 147 1107 l 331 1328 l 503 1328 z "},"Ö":{"ha":833,"x_min":38,"x_max":796,"o":"m 417 -17 q 130 115 222 -17 q 38 485 38 247 q 130 854 38 722 q 417 986 222 986 q 703 854 611 986 q 796 485 796 722 q 703 115 796 247 q 417 -17 611 -17 m 417 151 q 540 217 506 151 q 574 401 574 283 l 574 569 q 540 752 574 686 q 417 818 506 818 q 294 752 328 818 q 260 569 260 686 l 260 400 q 294 217 260 283 q 417 151 328 151 m 264 1057 q 177 1083 201 1057 q 153 1144 153 1108 l 153 1181 q 177 1242 153 1217 q 264 1267 201 1267 q 351 1242 326 1267 q 376 1181 376 1217 l 376 1144 q 351 1083 376 1108 q 264 1057 326 1057 m 569 1057 q 482 1083 507 1057 q 457 1144 457 1108 l 457 1181 q 482 1242 457 1217 q 569 1267 507 1267 q 656 1242 632 1267 q 681 1181 681 1217 l 681 1144 q 656 1083 681 1108 q 569 1057 632 1057 z "},"Ọ":{"ha":833,"x_min":38,"x_max":796,"o":"m 417 -17 q 130 115 222 -17 q 38 485 38 247 q 130 854 38 722 q 417 986 222 986 q 703 854 611 986 q 796 485 796 722 q 703 115 796 247 q 417 -17 611 -17 m 417 151 q 540 217 506 151 q 574 401 574 283 l 574 569 q 540 752 574 686 q 417 818 506 818 q 294 752 328 818 q 260 569 260 686 l 260 400 q 294 217 260 283 q 417 151 328 151 m 417 -282 q 329 -257 354 -282 q 304 -196 304 -232 l 304 -160 q 329 -97 304 -122 q 417 -72 354 -72 q 504 -97 479 -72 q 529 -160 529 -122 l 529 -196 q 504 -257 529 -232 q 417 -282 479 -282 z "},"Ò":{"ha":833,"x_min":38,"x_max":796,"o":"m 417 -17 q 130 115 222 -17 q 38 485 38 247 q 130 854 38 722 q 417 986 222 986 q 703 854 611 986 q 796 485 796 722 q 703 115 796 247 q 417 -17 611 -17 m 417 151 q 540 217 506 151 q 574 401 574 283 l 574 569 q 540 752 574 686 q 417 818 506 818 q 294 752 328 818 q 260 569 260 686 l 260 400 q 294 217 260 283 q 417 151 328 151 m 208 1272 l 379 1357 l 517 1088 l 394 1028 l 208 1272 z "},"Ỏ":{"ha":833,"x_min":38,"x_max":796,"o":"m 417 -17 q 130 115 222 -17 q 38 485 38 247 q 130 854 38 722 q 417 986 222 986 q 703 854 611 986 q 796 485 796 722 q 703 115 796 247 q 417 -17 611 -17 m 417 151 q 540 217 506 151 q 574 401 574 283 l 574 569 q 540 752 574 686 q 417 818 506 818 q 294 752 328 818 q 260 569 260 686 l 260 400 q 294 217 260 283 q 417 151 328 151 m 250 1338 l 449 1338 q 514 1329 488 1338 q 556 1307 540 1321 q 578 1275 571 1293 q 585 1236 585 1257 q 563 1149 585 1196 q 506 1061 540 1103 l 467 1014 l 363 1063 l 419 1190 l 250 1190 l 250 1338 z "},"Ő":{"ha":833,"x_min":38,"x_max":796,"o":"m 417 -17 q 130 115 222 -17 q 38 485 38 247 q 130 854 38 722 q 417 986 222 986 q 703 854 611 986 q 796 485 796 722 q 703 115 796 247 q 417 -17 611 -17 m 417 151 q 540 217 506 151 q 574 401 574 283 l 574 569 q 540 752 574 686 q 417 818 506 818 q 294 752 328 818 q 260 569 260 686 l 260 400 q 294 217 260 283 q 417 151 328 151 m 292 1028 l 179 1082 l 317 1351 l 478 1272 l 292 1028 m 576 1028 l 464 1082 l 601 1351 l 763 1272 l 576 1028 z "},"Ō":{"ha":833,"x_min":38,"x_max":796,"o":"m 417 -17 q 130 115 222 -17 q 38 485 38 247 q 130 854 38 722 q 417 986 222 986 q 703 854 611 986 q 796 485 796 722 q 703 115 796 247 q 417 -17 611 -17 m 417 151 q 540 217 506 151 q 574 401 574 283 l 574 569 q 540 752 574 686 q 417 818 506 818 q 294 752 328 818 q 260 569 260 686 l 260 400 q 294 217 260 283 q 417 151 328 151 m 204 1233 l 629 1233 l 629 1090 l 204 1090 l 204 1233 z "},"Ø":{"ha":833,"x_min":26,"x_max":807,"o":"m 417 -17 q 231 26 307 -17 l 157 -92 l 26 -17 l 118 132 q 38 485 38 258 q 130 854 38 722 q 417 986 222 986 q 603 943 526 986 l 676 1061 l 807 986 l 715 838 q 796 485 796 711 q 703 115 796 247 q 417 -17 611 -17 m 260 400 q 260 372 260 385 q 263 346 260 360 l 515 785 q 417 818 479 818 q 294 752 328 818 q 260 569 260 686 l 260 400 m 417 151 q 540 217 506 151 q 574 400 574 283 l 574 569 q 574 597 574 585 q 571 624 574 608 l 318 185 q 417 151 353 151 z "},"Ǿ":{"ha":833,"x_min":26,"x_max":807,"o":"m 417 -17 q 231 26 307 -17 l 157 -92 l 26 -17 l 118 132 q 38 485 38 258 q 130 854 38 722 q 417 986 222 986 q 603 943 526 986 l 676 1061 l 807 986 l 715 838 q 796 485 796 711 q 703 115 796 247 q 417 -17 611 -17 m 260 400 q 260 372 260 385 q 263 346 260 360 l 515 785 q 417 818 479 818 q 294 752 328 818 q 260 569 260 686 l 260 400 m 417 151 q 540 217 506 151 q 574 400 574 283 l 574 569 q 574 597 574 585 q 571 624 574 608 l 318 185 q 417 151 353 151 m 439 1028 l 317 1088 l 454 1357 l 625 1272 l 439 1028 z "},"Õ":{"ha":833,"x_min":38,"x_max":796,"o":"m 417 -17 q 130 115 222 -17 q 38 485 38 247 q 130 854 38 722 q 417 986 222 986 q 703 854 611 986 q 796 485 796 722 q 703 115 796 247 q 417 -17 611 -17 m 417 151 q 540 217 506 151 q 574 401 574 283 l 574 569 q 540 752 574 686 q 417 818 506 818 q 294 752 328 818 q 260 569 260 686 l 260 400 q 294 217 260 283 q 417 151 328 151 m 522 1058 q 466 1067 490 1058 q 415 1086 442 1075 q 360 1108 385 1099 q 307 1117 335 1117 q 265 1108 283 1117 q 225 1082 247 1100 l 153 1176 q 217 1240 178 1214 q 311 1265 256 1265 q 367 1257 343 1265 q 418 1238 392 1249 q 474 1216 449 1225 q 526 1207 499 1207 q 568 1215 550 1207 q 608 1242 586 1224 l 681 1147 q 617 1084 656 1110 q 522 1058 578 1058 z "},"Ơ":{"ha":833,"x_min":38,"x_max":824,"o":"m 824 986 q 799 886 824 921 q 703 847 775 851 q 776 698 756 789 q 796 485 796 607 q 703 115 796 247 q 417 -17 611 -17 q 130 115 222 -17 q 38 485 38 247 q 130 854 38 722 q 417 986 222 986 q 540 969 486 986 l 651 969 l 651 1129 l 824 1129 l 824 986 m 417 151 q 540 217 506 151 q 574 401 574 283 l 574 569 q 540 752 574 686 q 417 818 506 818 q 294 752 328 818 q 260 569 260 686 l 260 400 q 294 217 260 283 q 417 151 328 151 z "},"Ớ":{"ha":833,"x_min":38,"x_max":824,"o":"m 824 986 q 799 886 824 921 q 703 847 775 851 q 776 698 756 789 q 796 485 796 607 q 703 115 796 247 q 417 -17 611 -17 q 130 115 222 -17 q 38 485 38 247 q 130 854 38 722 q 417 986 222 986 q 540 969 486 986 l 651 969 l 651 1129 l 824 1129 l 824 986 m 417 151 q 540 217 506 151 q 574 401 574 283 l 574 569 q 540 752 574 686 q 417 818 506 818 q 294 752 328 818 q 260 569 260 686 l 260 400 q 294 217 260 283 q 417 151 328 151 m 439 1028 l 317 1088 l 454 1357 l 625 1272 l 439 1028 z "},"Ợ":{"ha":833,"x_min":38,"x_max":824,"o":"m 824 986 q 799 886 824 921 q 703 847 775 851 q 776 698 756 789 q 796 485 796 607 q 703 115 796 247 q 417 -17 611 -17 q 130 115 222 -17 q 38 485 38 247 q 130 854 38 722 q 417 986 222 986 q 540 969 486 986 l 651 969 l 651 1129 l 824 1129 l 824 986 m 417 151 q 540 217 506 151 q 574 401 574 283 l 574 569 q 540 752 574 686 q 417 818 506 818 q 294 752 328 818 q 260 569 260 686 l 260 400 q 294 217 260 283 q 417 151 328 151 m 417 -282 q 329 -257 354 -282 q 304 -196 304 -232 l 304 -160 q 329 -97 304 -122 q 417 -72 354 -72 q 504 -97 479 -72 q 529 -160 529 -122 l 529 -196 q 504 -257 529 -232 q 417 -282 479 -282 z "},"Ờ":{"ha":833,"x_min":38,"x_max":824,"o":"m 824 986 q 799 886 824 921 q 703 847 775 851 q 776 698 756 789 q 796 485 796 607 q 703 115 796 247 q 417 -17 611 -17 q 130 115 222 -17 q 38 485 38 247 q 130 854 38 722 q 417 986 222 986 q 540 969 486 986 l 651 969 l 651 1129 l 824 1129 l 824 986 m 417 151 q 540 217 506 151 q 574 401 574 283 l 574 569 q 540 752 574 686 q 417 818 506 818 q 294 752 328 818 q 260 569 260 686 l 260 400 q 294 217 260 283 q 417 151 328 151 m 208 1272 l 379 1357 l 517 1088 l 394 1028 l 208 1272 z "},"Ở":{"ha":833,"x_min":38,"x_max":824,"o":"m 824 986 q 799 886 824 921 q 703 847 775 851 q 776 698 756 789 q 796 485 796 607 q 703 115 796 247 q 417 -17 611 -17 q 130 115 222 -17 q 38 485 38 247 q 130 854 38 722 q 417 986 222 986 q 540 969 486 986 l 651 969 l 651 1129 l 824 1129 l 824 986 m 417 151 q 540 217 506 151 q 574 401 574 283 l 574 569 q 540 752 574 686 q 417 818 506 818 q 294 752 328 818 q 260 569 260 686 l 260 400 q 294 217 260 283 q 417 151 328 151 m 250 1338 l 449 1338 q 514 1329 488 1338 q 556 1307 540 1321 q 578 1275 571 1293 q 585 1236 585 1257 q 563 1149 585 1196 q 506 1061 540 1103 l 467 1014 l 363 1063 l 419 1190 l 250 1190 l 250 1338 z "},"Ỡ":{"ha":833,"x_min":38,"x_max":824,"o":"m 824 986 q 799 886 824 921 q 703 847 775 851 q 776 698 756 789 q 796 485 796 607 q 703 115 796 247 q 417 -17 611 -17 q 130 115 222 -17 q 38 485 38 247 q 130 854 38 722 q 417 986 222 986 q 540 969 486 986 l 651 969 l 651 1129 l 824 1129 l 824 986 m 417 151 q 540 217 506 151 q 574 401 574 283 l 574 569 q 540 752 574 686 q 417 818 506 818 q 294 752 328 818 q 260 569 260 686 l 260 400 q 294 217 260 283 q 417 151 328 151 m 486 1058 q 438 1067 458 1058 q 393 1086 417 1075 q 345 1108 367 1099 q 300 1117 324 1117 q 232 1088 265 1117 l 161 1174 q 219 1239 185 1213 q 303 1265 253 1265 q 351 1257 331 1265 q 396 1238 372 1249 q 444 1216 422 1225 q 489 1207 465 1207 q 557 1236 524 1207 l 628 1150 q 570 1085 604 1111 q 486 1058 536 1058 z "},"Ố":{"ha":833,"x_min":38,"x_max":843,"o":"m 417 -17 q 130 115 222 -17 q 38 485 38 247 q 130 854 38 722 q 417 986 222 986 q 703 854 611 986 q 796 485 796 722 q 703 115 796 247 q 417 -17 611 -17 m 417 151 q 540 217 506 151 q 574 401 574 283 l 574 569 q 540 752 574 686 q 417 818 506 818 q 294 752 328 818 q 260 569 260 686 l 260 400 q 294 217 260 283 q 417 151 328 151 m 657 1242 l 547 1296 l 685 1565 l 843 1486 l 657 1242 m 482 1308 l 683 1104 l 586 1015 l 414 1160 l 242 1015 l 150 1104 l 351 1308 l 482 1308 z "},"Ộ":{"ha":833,"x_min":38,"x_max":796,"o":"m 417 -17 q 130 115 222 -17 q 38 485 38 247 q 130 854 38 722 q 417 986 222 986 q 703 854 611 986 q 796 485 796 722 q 703 115 796 247 q 417 -17 611 -17 m 417 151 q 540 217 506 151 q 574 401 574 283 l 574 569 q 540 752 574 686 q 417 818 506 818 q 294 752 328 818 q 260 569 260 686 l 260 400 q 294 217 260 283 q 417 151 328 151 m 503 1328 l 686 1107 l 582 1026 l 414 1186 l 246 1026 l 147 1107 l 331 1328 l 503 1328 m 417 -282 q 329 -257 354 -282 q 304 -196 304 -232 l 304 -160 q 329 -97 304 -122 q 417 -72 354 -72 q 504 -97 479 -72 q 529 -160 529 -122 l 529 -196 q 504 -257 529 -232 q 417 -282 479 -282 z "},"Ồ":{"ha":833,"x_min":-10,"x_max":796,"o":"m 417 -17 q 130 115 222 -17 q 38 485 38 247 q 130 854 38 722 q 417 986 222 986 q 703 854 611 986 q 796 485 796 722 q 703 115 796 247 q 417 -17 611 -17 m 417 151 q 540 217 506 151 q 574 401 574 283 l 574 569 q 540 752 574 686 q 417 818 506 818 q 294 752 328 818 q 260 569 260 686 l 260 400 q 294 217 260 283 q 417 151 328 151 m -10 1486 l 149 1565 l 286 1296 l 176 1242 l -10 1486 m 482 1308 l 683 1104 l 586 1015 l 414 1160 l 242 1015 l 150 1104 l 351 1308 l 482 1308 z "},"Ổ":{"ha":833,"x_min":38,"x_max":796,"o":"m 417 -17 q 130 115 222 -17 q 38 485 38 247 q 130 854 38 722 q 417 986 222 986 q 703 854 611 986 q 796 485 796 722 q 703 115 796 247 q 417 -17 611 -17 m 417 151 q 540 217 506 151 q 574 401 574 283 l 574 569 q 540 752 574 686 q 417 818 506 818 q 294 752 328 818 q 260 569 260 686 l 260 400 q 294 217 260 283 q 417 151 328 151 m 469 1546 l 656 1546 q 720 1538 694 1546 q 762 1515 746 1529 q 785 1483 778 1501 q 792 1446 792 1465 q 765 1358 792 1404 q 704 1269 739 1311 l 667 1224 l 575 1271 l 635 1406 l 469 1406 l 469 1546 m 482 1308 l 683 1104 l 586 1015 l 414 1160 l 242 1015 l 150 1104 l 351 1308 l 482 1308 z "},"Ỗ":{"ha":833,"x_min":38,"x_max":796,"o":"m 417 -17 q 130 115 222 -17 q 38 485 38 247 q 130 854 38 722 q 417 986 222 986 q 703 854 611 986 q 796 485 796 722 q 703 115 796 247 q 417 -17 611 -17 m 417 151 q 540 217 506 151 q 574 401 574 283 l 574 569 q 540 752 574 686 q 417 818 506 818 q 294 752 328 818 q 260 569 260 686 l 260 400 q 294 217 260 283 q 417 151 328 151 m 313 1532 q 369 1524 344 1532 q 419 1504 393 1515 q 475 1483 450 1492 q 528 1474 500 1474 q 569 1482 551 1474 q 610 1508 588 1490 l 679 1419 q 615 1356 654 1382 q 521 1331 576 1331 q 465 1339 489 1331 q 414 1358 440 1347 q 358 1380 383 1371 q 306 1389 333 1389 q 264 1381 282 1389 q 224 1354 246 1372 l 154 1443 q 218 1506 179 1481 q 313 1532 257 1532 m 483 1290 l 681 1104 l 586 1015 l 414 1147 l 242 1015 l 153 1104 l 350 1290 l 483 1290 z "},"Œ":{"ha":833,"x_min":14,"x_max":814,"o":"m 385 0 q 106 126 197 0 q 14 485 14 251 q 106 844 14 718 q 385 969 197 969 l 814 969 l 814 815 l 599 815 l 599 568 l 800 568 l 800 414 l 599 414 l 599 154 l 814 154 l 814 0 l 385 0 m 407 154 l 407 815 l 399 815 q 260 753 304 815 q 217 567 217 690 l 217 403 q 260 217 217 279 q 399 154 304 154 l 407 154 z "},"Ŕ":{"ha":833,"x_min":106,"x_max":797,"o":"m 311 0 l 106 0 l 106 969 l 481 969 q 607 948 551 969 q 701 886 663 926 q 758 789 739 846 q 778 661 778 732 q 733 485 778 558 q 607 388 689 411 l 797 0 l 569 0 l 407 360 l 311 360 l 311 0 m 431 521 q 533 549 504 521 q 561 640 561 576 l 561 682 q 533 774 561 746 q 431 801 504 801 l 311 801 l 311 521 l 431 521 m 444 1028 l 322 1088 l 460 1357 l 631 1272 l 444 1028 z "}}}
